<?xml version="1.0" encoding="utf-8"?>
<!-- Generator: Adobe Illustrator 19.2.1, SVG Export Plug-In . SVG Version: 6.00 Build 0)  -->
<svg version="1.1" id="Layer_1" xmlns="http://www.w3.org/2000/svg" xmlns:xlink="http://www.w3.org/1999/xlink" x="0px" y="0px"
	 viewBox="0 0 558 126" style="enable-background:new 0 0 558 126;" xml:space="preserve">
<style type="text/css">
	.st0{fill:#FFFFFF;}
	.st1{fill:#767676;}
	.st2{fill:#CF0A2C;}
	.st3{fill:#D0D2D3;}
	.st4{fill:#DBD9D6;}
	.st5{fill:#444445;}
	.st6{fill:#808184;}
	.st7{fill:#58595B;}
	.st8{fill:#342E1F;}
</style>
<g>
	<g>
		<g>
			<path class="st0" d="M110.8,21.1c-0.3-0.7-0.8-1.3-1.4-1.8c-0.2-0.2-4.5-3.4-12.6-6.5C89.5,10,77.5,6.6,61.4,6.6l0,0
				C45.3,6.6,33.2,10,26,12.8c-8.1,3.1-12.3,6.4-12.6,6.5c-0.6,0.5-1.1,1.1-1.5,1.8c-0.3,0.7-0.5,1.5-0.5,2.2v61.9
				c0,1.2,0.4,2.3,1.2,3.2l0,0l0,0c0.3,0.4,0.6,0.7,1,1.1c1.3,1.4,3,3,5,4.7c0.4,0.3,0.8,0.7,1.3,1.1c5.6,4.5,13.8,10.2,22.5,15.6
				c3.8,2.3,7.5,4.4,10.5,6.1c3.3,1.7,5.6,2.8,7,3.2c0.4,0.1,0.8,0.2,1.3,0.2l0.1,0l0,0l0,0l0.1,0c0.4,0,0.9-0.1,1.3-0.2
				c1.4-0.4,3.7-1.4,7-3.2c3-1.6,6.7-3.7,10.5-6.1c8.8-5.4,17-11.1,22.5-15.6c0.5-0.4,0.9-0.7,1.3-1.1c2-1.7,3.7-3.3,5-4.7
				c0.3-0.4,0.7-0.8,1-1.1l0,0l0,0c0.8-0.9,1.2-2,1.2-3.2V23.3C111.3,22.5,111.1,21.8,110.8,21.1z"/>
			<path class="st0" d="M61.5,122.4l-0.2,0l0,0l0,0c-0.7,0-1.3-0.1-1.9-0.3c-1.6-0.4-3.9-1.5-7.4-3.3c-3.1-1.6-6.8-3.8-10.6-6.1
				c-8.8-5.4-17.1-11.2-22.8-15.7c-0.5-0.4-0.9-0.8-1.3-1.1c-2.1-1.8-3.8-3.4-5.2-4.9c-0.3-0.4-0.7-0.7-1-1.1L11,89.7
				c-1-1.2-1.6-2.8-1.6-4.4V23.3c0-1.1,0.2-2.1,0.7-3.1c0.5-1,1.2-1.8,2-2.5c0.5-0.4,4.8-3.6,13.1-6.8C32.7,8,44.9,4.6,61.4,4.6
				c16.4,0,28.7,3.4,36.1,6.3c8.2,3.2,12.6,6.4,13.1,6.8c0.8,0.7,1.5,1.5,2,2.5c0.5,1,0.7,2,0.7,3.1v61.9c0,1.6-0.6,3.2-1.6,4.5
				l-0.1,0.1c-0.3,0.4-0.6,0.7-1,1.1c-1.4,1.5-3.1,3.1-5.2,4.9c-0.4,0.3-0.8,0.7-1.3,1.1c-5.6,4.6-13.9,10.3-22.8,15.7
				c-3.9,2.4-7.5,4.5-10.6,6.1c-3.5,1.8-5.8,2.9-7.4,3.4C62.8,122.3,62.2,122.4,61.5,122.4L61.5,122.4z M61.3,118.4l0.2,0
				c0.2,0,0.5-0.1,0.7-0.1c1.3-0.4,3.6-1.4,6.7-3c3-1.6,6.6-3.7,10.4-6c8.7-5.3,16.8-10.9,22.3-15.4c0.5-0.4,0.9-0.7,1.3-1.1
				c2-1.7,3.6-3.2,4.9-4.6c0.3-0.4,0.6-0.7,0.9-1l0,0c0.4-0.5,0.7-1.2,0.7-1.9V23.3c0-0.5-0.1-0.9-0.3-1.3c-0.2-0.4-0.5-0.8-0.9-1.1
				c-0.2-0.1-4.2-3.2-12.1-6.3c-7.1-2.8-18.9-6-34.7-6c-15.8,0-27.6,3.3-34.7,6c-7.9,3-11.9,6.1-12.1,6.3c-0.4,0.3-0.7,0.7-0.9,1.1
				c-0.2,0.4-0.3,0.9-0.3,1.3v61.9c0,0.7,0.2,1.4,0.7,1.9l0,0c0.3,0.3,0.6,0.7,0.9,1c1.3,1.4,2.9,2.9,4.9,4.6
				c0.4,0.3,0.8,0.7,1.3,1.1c5.5,4.5,13.6,10.1,22.3,15.4c3.8,2.3,7.4,4.4,10.4,6c3.1,1.7,5.3,2.7,6.6,3c0.2,0.1,0.5,0.1,0.7,0.1
				L61.3,118.4z"/>
		</g>
		<g>
			<path class="st1" d="M80,28.5C79.9,28.5,79.9,28.5,80,28.5C79.9,28.5,80,28.5,80,28.5L80,28.5z"/>
			<path class="st1" d="M42.8,28.5L42.8,28.5C42.8,28.5,42.8,28.5,42.8,28.5C42.8,28.5,42.8,28.5,42.8,28.5z"/>
			<path class="st2" d="M110.8,21.1c-0.3-0.7-0.8-1.3-1.4-1.8c-0.2-0.2-4.5-3.4-12.6-6.5C89.5,10,77.5,6.6,61.4,6.6l0,0
				C45.3,6.6,33.2,10,26,12.8c-8.1,3.1-12.3,6.4-12.6,6.5c-0.6,0.5-1.1,1.1-1.5,1.8c-0.3,0.7-0.5,1.5-0.5,2.2v61.9
				c0,1.2,0.4,2.3,1.2,3.2l0,0l0,0c0.3,0.4,0.6,0.7,1,1.1c1.3,1.4,3,3,5,4.7c0.4,0.3,0.8,0.7,1.3,1.1c5.6,4.5,13.8,10.2,22.5,15.6
				c3.8,2.3,7.5,4.4,10.5,6.1c3.3,1.7,5.6,2.8,7,3.2c0.4,0.1,0.8,0.2,1.3,0.2l0.1,0l0,0l0,0l0.1,0c0.4,0,0.9-0.1,1.3-0.2
				c1.4-0.4,3.7-1.4,7-3.2c3-1.6,6.7-3.7,10.5-6.1c8.8-5.4,17-11.1,22.5-15.6c0.5-0.4,0.9-0.7,1.3-1.1c2-1.7,3.7-3.3,5-4.7
				c0.3-0.4,0.7-0.8,1-1.1l0,0l0,0c0.8-0.9,1.2-2,1.2-3.2V23.3C111.3,22.5,111.1,21.8,110.8,21.1z M19.7,91.5
				c-0.4-0.3-0.7-0.6-1-0.9l24.1,0c0,0.3,0.1,0.6,0.1,0.9L19.7,91.5z M39.6,101.8l-6.3,0c-0.4-0.3-0.9-0.6-1.3-0.9h8.2c0,0,0,0,0,0
				h0.2C40.2,101.2,39.9,101.5,39.6,101.8z M41.6,98.8H29.1c-0.4-0.3-0.8-0.6-1.3-0.9l14.2,0C41.9,98.2,41.8,98.5,41.6,98.8z
				 M42.6,96.1H25.4c-0.4-0.3-0.8-0.6-1.2-0.9h18.6C42.7,95.5,42.7,95.8,42.6,96.1z M42.9,93.7l-20.7,0c-0.2-0.2-0.4-0.3-0.6-0.5
				c-0.2-0.1-0.4-0.3-0.5-0.4l21.8,0C42.9,93.1,42.9,93.4,42.9,93.7z M89.4,101.8h-6.3c-0.3-0.3-0.5-0.6-0.7-0.9l8.4,0
				C90.3,101.2,89.8,101.5,89.4,101.8z M93.7,98.8l-12.6,0c-0.1-0.3-0.3-0.6-0.4-0.9l14.2,0C94.5,98.2,94.1,98.5,93.7,98.8z
				 M97.4,96.1l-17.2,0c-0.1-0.3-0.1-0.6-0.2-0.9l18.6,0C98.2,95.5,97.8,95.8,97.4,96.1z M101.1,93.2c-0.2,0.2-0.4,0.3-0.6,0.5
				l-20.7,0c0-0.3,0-0.6,0-0.9l21.8,0C101.4,92.9,101.3,93.1,101.1,93.2z M103.1,91.5l-23.2,0c0-0.4,0.1-0.7,0.1-0.9l24.1,0
				C103.8,90.9,103.4,91.2,103.1,91.5z M108.5,24v12.7v1.6v14v17.2v6.5v0v9.1c0,0.5-0.2,1-0.5,1.4c-0.3,0.3-0.6,0.7-0.9,1
				c-0.6,0.6-1.2,1.3-1.9,2h-5.3h-2.1h-6h-0.4l-3.4,0h-0.4l-7.3,0h-2.7h-4.2l-11.6,0l-18.9,0h0h-3.7h-0.7h-0.4h-2.7h-5.6H29h-4.2
				h-7.3c-0.7-0.7-1.4-1.3-1.9-2c-0.3-0.3-0.6-0.7-0.9-1c-0.3-0.4-0.5-0.9-0.5-1.4v-8.3V66.9V49.5V42v-2.4v-6.8v-1.6v-6.8v-1.1
				c0-0.7,0.3-1.3,0.9-1.8c0,0,0.3-0.2,0.8-0.6c1.5-1,5.2-3.3,11.1-5.6c0.5-0.2,1.1-0.4,1.7-0.6c1-0.3,2-0.7,3.1-1
				c3.5-1.1,7.8-2.2,12.7-3c1-0.2,2.1-0.3,3.2-0.5c3.6-0.5,7.5-0.8,11.8-0.8c0.6,0,1.3,0,1.9,0l0,0c0.4,0,0.9,0,1.3,0
				c4.2,0,8.2,0.3,11.8,0.8c1.1,0.1,2.1,0.3,3.2,0.4c4.9,0.8,9.2,1.8,12.8,2.9c1.1,0.3,2.1,0.7,3.1,1c0.8,0.3,1.5,0.5,2.2,0.8
				c6.5,2.5,10.3,5,11.5,5.9c0.2,0.1,0.3,0.2,0.4,0.3l0,0c0,0,0,0,0,0c0.5,0.4,0.9,1.1,0.9,1.8V24z"/>
			<g>
				<path class="st3" d="M20.5,37.2c-1.6,0.3-1.9,0.2-3.5,0.9c-1.2,0.5-2.4,1.2-2.8,1.5V42C15,40.7,16.8,38.6,20.5,37.2z"/>
				<path class="st3" d="M22.9,73.9c-0.3,0.2-0.5,0.4-0.5,0.8c0,0.1,0,0.1,0,0.2c0,0,0,0.1,0,0.1c-0.3,0.1-0.3,0.5-0.3,1
					c-0.8,0.2-1.2,0.8-1.4,1.5c0,0,0,0.1,0,0.1c0,0,0-0.1,0-0.1c-0.2-0.6-1.3-0.3-1.3-0.2c-0.2,0.1-0.4,1-0.5,1.1
					c-0.2-0.1-0.5-0.3-0.7-0.4c-0.1-0.1-0.2-0.2-0.3-0.2c-0.3-0.1-0.6-0.2-1,0c0-0.3-0.1-0.5,0-0.7c0.1-0.5-0.2-0.9-0.5-1.3
					c-0.3-0.3-0.7-0.5-1.2-0.5c-0.3,0-0.5,0-0.8,0.1c0,0,0,1.4,0,1.4v8.3c0,0.5,0.2,1,0.5,1.4c0.3,0.3,0.6,0.7,0.9,1
					c0.6,0.6,1.2,1.3,1.9,2h7.3v0h-2V73.9z"/>
				<path class="st3" d="M21.7,55.9c-0.2,0.1-0.4,0.2-0.6,0.3c-0.2,0-0.4,0-0.6,0l-0.6-0.7l0,0c0.1-0.3,0.2-0.6,0.1-0.9
					c0-0.1,0-0.2-0.1-0.3c-0.3-0.4-0.7-0.8-1-1.2c-0.2-0.2-0.5-0.3-0.8-0.3c-0.3,0-0.4,0.2-0.5,0.3c-0.3,0-0.6-0.2-0.8-0.4
					c0.2-0.5,0.2-1-0.2-1.5c-0.4-0.4-0.8-0.8-1.5-0.9c-0.2-0.4-0.5-0.7-0.9-0.9v17.4c0.5,0,1.6,0,1.6,0c0,0.3,0,2.1,0,2.3
					c1.5,0,1.1,0,2.6,0c0-0.2,0-1.2,0-1.5c0.4,0,0.8,0,1.2,0c0-0.1,0-0.2,0.1-0.4c1,0,2.1,0,3.1,0V55.9
					C22.5,55.8,22.1,55.8,21.7,55.9z"/>
				<path class="st3" d="M19,42.6c-0.3,0.6-1.2,2.9-0.4,3.8c-0.1-2.4,1.2-4.8,4.2-4.9v-0.9C21,40.9,19.6,41.6,19,42.6z"/>
				<path class="st3" d="M28.1,28.2c1-2.2,3.3-3.6,5.5-3.2c0.5,0.1,0.6,0.1,1.5,0.4c-2.6-2-5.5-0.8-7,0.7c-0.6,0.7-1.1,1.6-1.5,2.4
					H28C28,28.4,28.1,28.3,28.1,28.2z"/>
				<path class="st3" d="M107.1,87.7c0.3-0.3,0.6-0.7,0.9-1c0.3-0.4,0.5-0.9,0.5-1.4v-9.1c-0.1,0-0.3,0-0.3,0
					c-0.3,0.1-0.6,0.2-0.8,0.5c-0.1-0.1-0.2-0.1-0.3-0.2c-0.2-0.1-0.4-0.2-0.6-0.2c-0.1,0-0.2,0-0.3,0c-0.1,0-0.2,0-0.3,0.1
					c-0.2,0-0.2,0.1-0.2,0.2c0,0.1,0,0.2,0.1,0.3c-0.4,0.1-0.6,0.2-0.6,0.5c0-0.2-0.5-0.1-0.5-0.1c-0.1,0-0.1,0.3-0.2,0.3
					c-0.1,0-0.2-0.1-0.2-0.1c-0.1-0.1-0.3-0.1-0.4,0c0-0.1,0-0.1,0-0.2c0-0.1-0.1-0.2-0.2-0.3c-0.1-0.1-0.2-0.1-0.4-0.1
					c-0.2,0-0.3,0-0.5,0l-0.3-0.3c0.1-0.1,0.1-0.2,0-0.4c0,0,0-0.1-0.1-0.1c-0.2-0.2-0.4-0.3-0.6-0.5c-0.1-0.1-0.3-0.1-0.4-0.1
					c-0.2,0-0.2,0.1-0.3,0.2c-0.2,0-0.3-0.1-0.4-0.1c0.1-0.2,0.1-0.4-0.1-0.6c-0.2-0.1-0.3-0.3-0.6-0.3v5.9v8.6v0.7h5.3
					C105.9,88.9,106.5,88.3,107.1,87.7z"/>
				<path class="st3" d="M19.8,24.4c1.3-2.1,4.5-3.2,7.3-2.7c0.5,0.1,0.9,0.3,1.2,0.4c0.9,0.4,1.4,0.7,2,1.1
					c-0.4-0.7-0.9-1.2-1.5-1.6c-0.3-0.2-0.6-0.3-1-0.5c-1.6-0.6-3.6-0.5-5.9,0.3c-1.1,0.4-2,1-2.7,1.9L15.9,21
					c-0.5,0.3-0.7,0.5-0.8,0.6c-0.5,0.4-0.9,1.1-0.9,1.8v1.1l3.7,2.2c-0.1,1-0.1,2.2,0.1,3.5c-1.4-0.1-2.3,0.2-3.3,0.8
					c-0.2,0.1-0.3,0.2-0.5,0.3v1.6c0,0,0,0,0,0c1-1.4,3.5-1.9,5.5-1.2c0.6,0.2,1,0.4,1.3,0.5v-0.6C18.8,29.9,18.3,26.8,19.8,24.4z"
					/>
				<path class="st3" d="M66.3,22.4c-3.1,2.1-3.8,3.5-4.7,5.5c0.8-1.1,1.4-2,3.4-3.4c4.9-3.7,11.1-2.7,13.8,1.4
					c-1.1,0.6-2,1.5-2.8,2.5c5.3-3.2,8.3-3.6,11.7,0h2.9c0,0-0.1-0.1-0.1-0.1c-1.7-1.6-3.6-3.2-6.1-3.5l9.2-10.3c-1-0.3-2-0.7-3.1-1
					L81.3,25c-0.4,0.1-0.8,0.2-1.3,0.3c0,0-0.5-0.6-1-1c-1.8-1.8-3.7-2.9-5.6-3.4l4.3-10.2c-1-0.2-2.1-0.3-3.2-0.4l-3.6,10.5
					C69.4,20.8,67.8,21.4,66.3,22.4z"/>
				<path class="st3" d="M36.8,28.5h1c0-0.2,0-0.5,0-0.7c0.5-3.4,3.3-6,8.1-4.9c-1-0.5-2.3-0.8-3.8-0.7c0,0-0.1-0.3-0.2-1.1
					c-0.2-1.7,0.7-2.8,1.6-3.8c0.8-0.8,1.6-1.3,2.8-1.9l3.3,8.5c-0.2,0.4-0.4,0.9-0.5,1.4c0,0-0.8-0.2-1.6-0.2
					c-1.5,0-2.9,0.1-4.4,1.2c-0.9,0.6-1.5,1.3-1.9,2.1h1.1c2.1-2.8,6.3-3.6,9.5-1.6c0.1,0.1,0.2,0.2,0.5,0.3c-0.4-0.6-1-1.1-2.5-1.7
					c0,0,0-0.1,0.1-0.3c0.9-2.2,2.6-3.4,4.1-3.8c1.2-0.4,1.7-0.5,3.6-0.6c0.7,0,1.3,0,2.3,0.1l0.1,3.6c0.8-0.5,1.6-0.9,2.3-1.1
					l0.1-1.9c0.6,0.2,1.3,0.4,2.1,0.7c-0.2-0.1-0.9-0.8-2.1-1.4l0.6-11.4c-0.4,0-0.9,0-1.3,0l0,0c-0.6,0-1.3,0-1.9,0l0.2,10.5
					c-0.7-0.2-1.5-0.3-2.4-0.3c-1.9,0-3.2,0.4-4.7,1.3c-0.4,0.3-0.9,0.6-1.3,0.9L49,14.4c1-0.1,2.3-0.1,4.6,0
					c-0.4-0.2-2.2-1.3-4.9-1l-1-3.2c-1.1,0.1-2.1,0.3-3.2,0.5l1.3,3.5c-1.5,0.7-2.4,1.6-3.3,2.6c-0.9,1.1-1.4,2.8-1,5.3
					c0,0-0.7,0.2-1.2,0.5c-0.4,0.2-0.8,0.4-1.1,0.7l-7.4-9.6c-1.1,0.3-2.1,0.7-3.1,1l8.9,10.4C37.1,26,36.8,27.2,36.8,28.5z"/>
				<path class="st3" d="M108.5,23.3c0-0.7-0.3-1.3-0.9-1.8c0,0-0.2-0.1-0.4-0.3l-5.7,3.7c0,0,0,0-0.1,0c-3.3-1.9-6.4-2.2-9,0.8
					c3.9-2.1,8.7-0.8,11.1,2.9c2,3.1,1.6,7-0.8,8.6c-1-1-2-1.7-2.9-2.1v1.3c0,0,0.1,0.1,0.1,0.1c2.4,1.9,2.2,3.9,1.1,6.9
					c0.3,0,1-0.8,1.4-1.9c0.4-1.1,0.7-1.8,0.7-3.3c1.7-0.6,3.5-0.5,5.2,0.1v-1.6c-1-0.3-2.1-0.6-2.9-1c0.7-4.1-0.3-7-1.9-8.9
					l4.8-2.8V23.3z"/>
				<path class="st3" d="M107.7,52.1c-0.2,0-0.3,0-0.5,0c-0.2,0.1-0.3,0.1-0.5,0.2c-0.2,0.1-0.3,0.2-0.3,0.3c0,0.1,0.1,0.2,0.1,0.4
					c0,0-0.1,0-0.1,0c0,0.2,0.1,0.3,0.1,0.5c-0.6,0.2-0.9,0.5-0.9,1.1c-0.8,0.1-1.2,0.6-1.2,1.2c-1-0.1-1.3,0-1.6,0.6
					c-0.1,0-0.2,0-0.3,0c-0.8,0-0.9,0.9-1.6,1.1c-0.3,0.1-0.6,0-0.9-0.1v10.1c0.5,0,1.1,0,1.6,0c0,0.4,0,0.5,0,0.5c0,0,0,0,0,0
					c0,0,0,0.1,0,0.5c0.6,0,1.3,0,1.9,0c0-1.3,0-0.6,0-1.8c0.2,0,0.3,0,0.4-0.1c0-0.2,0-0.4,0-0.6c0,0,0.1,0,0.1,0
					c0,0.2,0,0.4,0,0.6c0.2,0,0.4,0,0.5,0c0-0.2,0-0.4,0-0.6c0.4,0,0.7,0,1.1,0c0-0.1,0-0.2,0.1-0.4c0.1,0.2,0.1,0.3,0.1,0.4
					c0.3,0,0.7,0,1,0c0,0.5,0,0.9,0,1.3c0,0.7,0,1.4,0,2.1c0,0.1,0.1,0.2,0.1,0.2c0.1-0.1,0.1-0.1,0.2-0.2c0,0,0-0.1,0.1-0.1
					c0.4,0,0.8,0,1.2,0c0,0.1,0.1,0.2,0.1,0.3c0,0,0.1,0,0.1,0V52.3C108.3,52.2,108,52.2,107.7,52.1z"/>
				<polygon class="st3" points="60.9,71.4 60.9,69.7 60.6,69.7 60.6,71.4 60.9,71.4 				"/>
				<polygon class="st3" points="61,72.7 60.9,72.7 60.6,72.7 60.6,73.9 60.6,76.9 60.6,77.3 60.6,79.8 60.6,80.4 60.9,80.4 
					61,80.4 61,80 61,77.8 61,77.3 61,74.6 61,72.7 				"/>
				<polygon class="st3" points="60.9,72.4 60.9,72.4 60.9,72.3 60.4,72.4 60.4,72.4 60.5,72.4 				"/>
				<polygon class="st3" points="60.2,72.7 60.2,72.4 60.2,72.4 58.5,72.5 58.5,72.5 58.5,72.7 58.5,72.8 58.3,72.8 58.3,72.8 
					58.3,75.8 58.3,78.3 58.3,78.9 58.3,80.4 58.5,80.4 58.5,81.3 60.2,81.3 60.2,80.4 60.4,80.4 60.4,79.8 60.4,77.3 60.4,76.6 
					60.4,73.8 60.4,72.7 				"/>
				<polygon class="st3" points="58,72.5 57.8,72.5 57.7,72.5 57.7,72.5 57.7,72.6 57.7,72.6 57.7,72.6 57.8,72.6 58.2,72.5 
					58.2,72.5 58.2,72.5 				"/>
				<polygon class="st3" points="58,71.8 58,71.8 58,71.8 58,71.8 57.9,71.8 57.9,71.8 58,71.8 58,71.8 58,71.8 58,71.8 58.3,71.8 
					58.3,71.7 				"/>
				<polygon class="st4" points="58.3,69.3 58.3,69.3 57.8,69.3 57.8,69.3 				"/>
				<polygon class="st4" points="59.3,69.2 58.4,69.3 58.4,69.3 				"/>
				<polygon class="st4" points="58.4,69.3 58.4,69.3 58.4,69.3 58.4,69.3 				"/>
				<polygon class="st4" points="58.3,69.3 58.3,69.3 58.3,69.3 58.3,69.3 				"/>
				<rect x="58.3" y="69.3" class="st4" width="0" height="0"/>
				<polygon class="st3" points="58,69.9 58,71.6 58.3,71.5 58.3,71.5 58.3,71.5 58.3,71.5 58.3,69.8 				"/>
				<polygon class="st3" points="60.5,69.4 60.5,69.4 60.5,69.4 60.5,69.5 60.5,69.5 60.5,69.5 60.5,69.5 60.5,69.5 60.9,69.4 
					60.9,69.4 60.9,69.4 60.9,69.4 60.9,69.4 				"/>
				<polygon class="st3" points="60.6,71.6 60.6,71.6 60.6,71.6 60.6,71.7 60.6,71.7 60.9,71.7 60.9,71.7 60.9,71.6 				"/>
				<path class="st3" d="M60.6,71.8L60.6,71.8L57.4,72v0.1l3.5-0.2v0v0v0v-0.1v0L60.6,71.8z"/>
				<path class="st3" d="M59.1,67l-2,1.4c0,0,0,0,0,0.1v0.1c0,0,0,0,0,0c0,0.1,0.1,0,0.1,0l0.3-0.2v0l1.6-1.1v0v-0.1v0L59.1,67
					L59.1,67L59.1,67L59.1,67L59.1,67C59.1,67,59.1,67,59.1,67C59.1,67,59.1,67,59.1,67z"/>
				<polygon class="st3" points="58.3,69.5 57.9,69.5 57.9,69.6 58.3,69.6 58.3,69.6 				"/>
				<polygon class="st3" points="61.2,71.4 61.3,71.4 61.3,69.7 61.2,69.7 				"/>
				<polygon class="st3" points="61.2,80.4 61.3,80.4 61.3,72.7 61.2,72.7 				"/>
				<polygon class="st3" points="63.3,69.8 63.3,71.5 63.3,71.5 63.3,71.5 63.4,71.5 63.4,71.5 63.4,69.8 				"/>
				<polygon class="st3" points="61.1,72.3 61.1,72.4 61.1,72.4 61.2,72.4 61.3,72.4 61.4,72.4 61.4,72.4 				"/>
				<polygon class="st4" points="61,72.7 61,72.7 61,72.7 				"/>
				<polygon class="st3" points="61.4,72.4 61.4,72.4 61.3,72.4 				"/>
				<polygon class="st3" points="63.5,72.5 63.3,72.4 63.2,72.4 63.2,72.4 63.2,72.5 63.2,72.5 63.2,72.5 63.3,72.5 63.3,72.5 
					63.5,72.5 63.6,72.5 63.6,72.5 				"/>
				<polygon class="st3" points="63.1,71.7 63.1,71.8 63.5,71.8 63.5,71.7 				"/>
				<polygon class="st3" points="63.1,69.5 63.1,69.5 63.5,69.6 63.5,69.5 				"/>
				<polygon class="st3" points="61.1,69.4 61.1,69.4 61.1,69.4 61.1,69.4 61.1,69.4 61.4,69.5 61.4,69.5 61.4,69.5 61.4,69.5 
					61.4,69.4 61.4,69.4 61.4,69.4 				"/>
				<polygon class="st3" points="61.1,71.6 61.1,71.6 61.1,71.6 61.1,71.7 61.1,71.7 61.4,71.7 61.4,71.7 61.4,71.7 61.4,71.7 
					61.4,71.7 61.4,71.7 61.4,71.6 				"/>
				<path class="st3" d="M62.2,70c0,0-0.1,0-0.1,0c-0.1,0-0.2,0.1-0.3,0.3c-0.1,0.1-0.1,0.3,0,0.5c0.1,0.3,0.2,0.4,0.5,0.4
					c0,0,0.1,0,0.1,0c0.1,0,0.2-0.1,0.3-0.3c0.1-0.1,0.1-0.3,0-0.5C62.6,70.2,62.4,70,62.2,70z"/>
				<path class="st3" d="M60.3,69.7v-0.2v-0.1l-0.1,0l-1.7,0.1v0.1v0.1l-0.1,0v0v1.9l1.9-0.1v-0.1v-0.2v0l0,0v-1.7L60.3,69.7z
					 M59.6,71.2c-0.1,0-0.1,0-0.2,0l0,0l0,0l0,0l0,0c-0.3,0-0.5-0.2-0.6-0.5c-0.1-0.3,0.1-0.7,0.4-0.8c0.1,0,0.1,0,0.2,0l0,0
					c0.3,0,0.5,0.2,0.6,0.5C60.1,70.8,60,71.1,59.6,71.2z"/>
				<path class="st4" d="M59.9,82.6c0.1,0,0.1,0.1,0.1,0.2C60,82.6,60,82.6,59.9,82.6z"/>
				<path class="st4" d="M59.5,82.4c0.1,0,0.1,0,0.2,0C59.6,82.4,59.5,82.4,59.5,82.4z"/>
				<path class="st4" d="M59.2,82.4c0.1,0,0.1,0,0.2,0C59.4,82.4,59.3,82.4,59.2,82.4z"/>
				<path class="st4" d="M59.7,82.4c0.1,0,0.1,0.1,0.2,0.1C59.8,82.5,59.8,82.5,59.7,82.4z"/>
				<path class="st4" d="M60.1,82.7c0,0.1,0.1,0.1,0.1,0.2C60.2,82.9,60.1,82.8,60.1,82.7z"/>
				<path class="st4" d="M60.1,82.7C60.1,82.7,60.1,82.7,60.1,82.7C60.1,82.7,60.1,82.7,60.1,82.7z"/>
				<path class="st4" d="M59.7,82.4C59.7,82.4,59.7,82.4,59.7,82.4C59.7,82.4,59.7,82.4,59.7,82.4z"/>
				<path class="st4" d="M59.9,82.5C59.9,82.5,59.9,82.5,59.9,82.5C59.9,82.5,59.9,82.5,59.9,82.5z"/>
				<polygon class="st3" points="61.1,71.8 61.1,72 61.1,72 63.8,72.1 63.8,72.1 63.8,72 				"/>
				<polygon class="st4" points="63.4,68.8 63.4,68.8 63.4,68.8 				"/>
				<path class="st3" d="M61.1,68.9L61.1,68.9L61.1,68.9L61.1,68.9l-0.2,0V69V69v0l-0.4,0l-2.8,0.1v0.1l1.5-0.1l1.6-0.1v0l0.1,0
					l0.1,0l1.9,0.1l0.5,0v0.1l0.2,0V69v0L61.1,68.9z"/>
				<path class="st3" d="M64.1,68.4C64.1,68.4,64.1,68.4,64.1,68.4L64.1,68.4C64.1,68.4,64.1,68.4,64.1,68.4l-1.6-1.5c0,0,0,0,0,0
					c0,0,0,0,0,0c0,0,0,0,0,0v0v0v0v0v0.1v0v0.1v0v0v0v0c0,0,0,0,0,0v0v0c0,0,0,0,0,0v0.1v0v0l1.2,1l0.4,0.3l-0.3,0l-0.3-0.3l-1-0.9
					l0,0l0,0l0,0l0,0l0,0l0,0c0,0,0,0,0,0c0,0,0,0,0,0l0,0h0l0.1-0.1l0,0l0.1-0.2v0v0v0v-0.1v0v0v0v0v0v0v0v0v0v0v0v0v0v0v0v0v0v0
					h-0.1h-3h0c0,0,0,0,0,0v0v0v0v0v0v0v0v0v0.1v0v0v0v0v0v0v0v0v0v0v0l0,0v0v0l1.7,1.1l0,0c0,0,0,0,0,0v0v0l-0.2-0.1l-0.1-0.1
					c0,0,0,0,0,0c0,0,0,0,0,0l-2.2,0.1l-0.1,0h0c0,0,0,0,0,0h0l0,0h0c0,0,0,0,0,0c0,0,0,0,0,0c0,0,0,0,0,0c0,0,0,0,0,0
					c0,0,0,0,0-0.1l0.1-0.1c0,0,0,0,0,0l0,0h0l0,0l0,0l0,0l0.1,0l1.7-0.1l0,0l-0.2-0.1l0,0l-0.1,0l-0.1,0l-1.2,0.1l-0.1,0l0,0l0,0
					l0,0l-0.1,0c0,0,0,0,0,0c0,0,0,0,0,0l0.1-0.1l0.1-0.1l0.1-0.1l0,0c0,0,0,0,0,0l0.2,0c0,0,0,0.1,0,0.1c0,0,0,0,0,0
					c0,0,0.1,0.1,0.1,0.1c0,0,0.1,0,0.1,0l0.2,0c0,0,0,0,0,0c0,0,0,0,0,0c0,0,0,0,0,0c0,0,0,0,0,0c0,0,0-0.2,0-0.2l0.1,0l-0.3-0.2
					c0,0,0,0,0,0c0,0,0,0,0,0l-0.2-0.2l0,0L58,68.4l-0.3,0.2l-0.1,0.1h0l-0.1,0l0,0l-0.1,0.1l0,0l-0.1,0.1l-0.1,0.1l-0.1,0l0.8,0
					c0,0,0,0,0,0v-0.1c0,0,0,0,0,0l0,0c0,0,0,0,0,0c0,0,0,0,0.1,0h0l2.5-0.1l0,0c0,0,0,0,0.1,0c0,0,0,0.1,0,0.1l0.2,0l0.2,0v-0.1
					l1.2-0.8l0,0l0,0.2l-0.1,0.2l0.2,0l0,0l0,0l0,0l0,0v0c0,0,0,0,0-0.1l0,0v0c0-0.1,0-0.1,0-0.1l0,0l1,0.8l0,0v0v0v0v0l0.1,0l0.1,0
					l0,0l0.1,0v0.1H64c0,0,0.1,0,0.1,0c0,0,0-0.1,0-0.1c0,0,0-0.1,0-0.2C64.1,68.5,64.1,68.5,64.1,68.4z"/>
				<path class="st3" d="M63.3,68.7C63.3,68.6,63.2,68.6,63.3,68.7L63.3,68.7l-0.1,0l-1.9-0.1l0,0c0,0,0,0-0.1,0c0,0,0,0,0,0
					c0,0,0,0,0,0v0.1c0,0,0,0,0,0c0,0,0,0,0.1,0.1l2,0.1h0c0,0,0,0,0.1,0c0,0,0,0,0,0c0,0,0,0,0,0L63.3,68.7L63.3,68.7
					C63.3,68.7,63.3,68.7,63.3,68.7z"/>
				<path class="st3" d="M62.9,68.3C62.9,68.3,62.8,68.3,62.9,68.3L62.9,68.3L62.9,68.3l-1.2-0.1l0,0c0,0,0,0,0,0c0,0,0,0,0,0
					c0,0,0,0,0,0v0c0,0,0,0,0,0c0,0,0,0,0,0l1.2,0.1h0C62.8,68.4,62.8,68.4,62.9,68.3C62.9,68.4,62.9,68.4,62.9,68.3
					C62.9,68.4,62.9,68.4,62.9,68.3L62.9,68.3L62.9,68.3C62.9,68.3,62.9,68.3,62.9,68.3z"/>
				<polygon class="st3" points="58.2,80.6 58.2,80.6 58.1,80.6 57.8,80.6 57.7,80.6 57.7,80.6 57.5,80.6 57.5,81.3 57.7,81.3 
					57.7,81.3 57.8,81.3 58.1,81.3 58.2,81.3 58.2,81.3 58.3,81.3 58.3,80.6 				"/>
				<polygon class="st3" points="61.5,80.6 61.4,80.6 61.4,80.6 61.3,80.6 61.3,80.6 61.1,80.6 61,80.6 60.9,80.6 60.6,80.6 
					60.5,80.6 60.4,80.6 60.4,80.6 60.4,81.3 60.4,81.3 60.5,81.3 60.9,81.3 61,81.3 61.1,81.3 61.3,81.3 61.3,81.3 61.4,81.3 
					61.4,81.3 61.4,81.3 61.5,81.3 61.5,81.3 61.5,81.2 61.5,80.6 				"/>
				<rect x="57.5" y="81.5" class="st3" width="6.2" height="0.1"/>
				<polygon class="st3" points="63.5,80.6 63.3,80.6 63.3,80.6 63.2,80.6 63.2,80.6 63.2,80.6 63.1,80.6 63.1,80.6 63,80.6 
					63,81.1 63,81.2 63,81.2 63,81.3 63.1,81.3 63.1,81.3 63.2,81.3 63.3,81.3 63.5,81.3 63.7,81.3 63.7,80.6 				"/>
				<path class="st4" d="M62.9,82.8C62.9,82.8,62.9,82.9,62.9,82.8L62.9,82.8c0,0,0-0.1,0-0.1C62.9,82.8,62.9,82.8,62.9,82.8
					C62.9,82.8,62.9,82.8,62.9,82.8z"/>
				<path class="st4" d="M62.7,82.5C62.7,82.5,62.7,82.5,62.7,82.5L62.7,82.5C62.7,82.5,62.7,82.5,62.7,82.5z"/>
				<path class="st4" d="M62.7,82.5c0,0,0.1,0.1,0.1,0.1C62.8,82.6,62.8,82.6,62.7,82.5z"/>
				<path class="st4" d="M62.4,82.4c0.1,0,0.1,0,0.2,0C62.5,82.4,62.4,82.4,62.4,82.4z"/>
				<path class="st4" d="M62.9,82.8C62.9,82.8,62.9,82.8,62.9,82.8C62.9,82.8,62.9,82.8,62.9,82.8z"/>
				<path class="st4" d="M62.7,82.5C62.7,82.5,62.7,82.5,62.7,82.5C62.7,82.5,62.7,82.5,62.7,82.5z"/>
				<path class="st4" d="M62.8,82.7C62.8,82.7,62.9,82.7,62.8,82.7C62.9,82.7,62.8,82.7,62.8,82.7z"/>
				<path class="st3" d="M61.7,81.7h-4v0.9c0,0,0,1.5,0,1.5c0.3-0.3,0.5-0.2,0.5-0.2c0.4,0.2,0.2,0.5,0.2,0.4c0.1,0,0.2-0.2,0.5,0.2
					c0.1,0.1,0.2-0.2,0.1-0.2c0.1,0,0.2,0.1,0.3,0.1c0,0,0,0,0,0c0,0,0.1,0.1,0.1,0.1h0.2c0,0-0.1-0.1-0.1-0.2c0,0,0,0,0,0
					c0,0,0-0.1,0-0.1c0,0,0,0,0-0.1c0-0.1,0.1-0.1,0.1-0.1c0,0,0.1,0,0.1,0c0.1,0,0.1,0,0.2,0c0.1,0,0.1,0,0.2,0
					c0-0.1,0.3-0.1,0.2-0.2c0-0.1,0.1-0.1,0.2-0.2c0.2,0,0.2-0.3,0.4-0.2c0.1,0,0.1,0,0.2,0c0.1-0.1,0.2-0.3,0.2-0.4
					c0-0.1,0.2-0.1,0.2-0.1c0-0.1,0.2-0.1,0.3,0c0-0.2,0.1-0.3,0.2-0.4c0,0,0.1-0.1,0.1-0.1c0,0,0,0,0.1,0c0.1,0,0.1,0,0.2,0
					c0,0,0,0,0,0c0,0,0,0,0,0c0,0,0,0,0,0c0,0,0,0,0,0c0,0,0,0,0,0c0.1,0,0.1,0,0.2,0c0,0,0,0,0,0c0,0,0.1,0,0.1,0.1c0,0,0,0,0,0
					c0,0,0,0,0,0c0,0,0.1,0.1,0.1,0.1c0,0,0,0,0,0c0,0,0,0.1,0.1,0.2h0.7v-0.3v-0.5v-0.4H61.7z M60.2,83c0,0.1,0,0.1,0,0.2
					c0,0,0,0.1,0,0.1c0,0.3-0.2,0.5-0.4,0.7c0,0-0.1,0-0.1,0.1c-0.1,0-0.1,0-0.2,0c0,0,0,0,0,0c0,0,0,0,0,0c-0.1,0-0.1,0-0.2,0
					c0,0,0,0,0,0c-0.1,0-0.1-0.1-0.2-0.1c0,0,0,0,0,0c-0.1,0-0.1-0.1-0.1-0.2c0,0,0,0,0,0c0-0.1-0.1-0.1-0.1-0.2c0-0.1,0-0.1,0-0.2
					c0-0.4,0.2-0.7,0.5-0.8c0.1,0,0.1,0,0.2,0c0,0,0,0,0,0c0.1,0,0.1,0,0.2,0c0,0,0,0,0,0c0.1,0,0.1,0.1,0.2,0.1c0,0,0,0,0,0
					c0.1,0,0.1,0.1,0.1,0.2C60.1,82.7,60.2,82.9,60.2,83z"/>
				<path class="st4" d="M62.5,82.4C62.5,82.4,62.5,82.4,62.5,82.4C62.5,82.4,62.5,82.4,62.5,82.4z"/>
				<path class="st3" d="M63.2,72.7V75v1.3v4.2h0.3v-4.2v-1.2v-2.4L63.2,72.7z"/>
				<g>
					<path class="st3" d="M57.5,82v-0.2v0h-0.2v-0.3v-0.2v-0.9h0.4v-2.3c0,0,0,0-0.1,0c-0.3-0.1-0.5-0.1-0.7-0.2
						c-0.4-0.2-0.7-0.2-1.3-0.1c0-0.1-0.1-0.3,0-0.4c0.1-0.2-0.1-0.4-0.5-0.6c-0.3-0.2-0.7-0.3-1.2-0.2c-0.4,0-0.9,0-1.4,0L52,76.2
						h-0.7l-0.2-0.1l0,0c0.2-0.1,0.2-0.3,0.1-0.5c0,0,0-0.1,0-0.1c0,0,0-0.1-0.1-0.1c-0.4-0.2-0.8-0.5-1.2-0.7
						c-0.2-0.1-0.4-0.1-0.6-0.1v0.7v1v0.9c0.3,0,0.6,0.1,0.8,0.3c0.6,0.4,1.1,0.9,1.6,1.3c0.1,0.1,0.1,0.2,0.1,0.3
						c0.1,0.3,0.1,0.7-0.2,1c0,0-0.1,0.2,0.5,0c0.5-0.2,0.5,0.8,0.5,0.8c0.5,0,0.9,0,1.4,0c0.5,0,0.9,0.1,1.2,0.3
						c0.3,0.3,0.6,0.5,0.5,0.8c0,0.1,0,0.3,0,0.5c0.5-0.2,0.9-0.1,1.3,0.2c0.2,0.1,0.4,0.1,0.5,0.2V82z"/>
				</g>
				<polygon class="st3" points="65.3,85.1 64.4,85.1 57.8,85.1 56.4,85.1 56.4,86 57.3,86 58.1,86 65.3,86 				"/>
				<path class="st3" d="M43.6,73.1v1.2v1.5v1v1.6h-0.9v1h5.9v3.3h-5.9v2.4h3.7c0.1,0.1,0.2,0.2,0.2,0.3c0,0.1,0.1,0.2,0.1,0.3
					c0.8-0.1,1.1,0,1.4,0.5c0.1,0,0.2,0,0.2,0c0.4,0,0.5,0.1,0.6,0.4c0,0.1,0.1,0.2,0.2,0.2c0.2,0.1,0.3,0.2,0.5,0.3
					c0.5-0.4,1-0.4,1.6-0.4c0.5,0,0.8,0.3,0.8,0.7c0,0.1,0,0.2,0,0.3c0,0.1-0.1,0.2-0.1,0.3c0.1,0.1,0.2,0.1,0.3,0.2
					c0-0.2,0-0.5,0.1-0.6c0,0,0,0,0,0c0.1-0.1,0.2-0.1,0.3-0.2c0.2-0.2,0.2-0.3-0.1-0.5c0,0-0.1,0-0.2-0.1c-0.1,0-0.2-0.1-0.2-0.1
					c0-0.1-0.2-0.2-0.3-0.3c0-0.1,0.1-0.1,0.1-0.2c0-0.1,0-0.2,0-0.2c0-0.3-0.3-0.5-0.8-0.5c-0.4,0-0.4-0.2-0.8-0.1l-0.2,0.2l-0.1,0
					v-0.2c0,0-0.1,0-0.1,0c-0.1,0-0.2-0.1-0.2-0.2c0,0,0-0.1-0.1-0.1v-0.3h-0.3h-0.2v-5.5h0.2v-1h-0.5h0v-5.3h0h0.5v-1h-1.6v-3h-5.2
					v4H43.6z M46.8,73.1h1.1v5.3h-1.1V73.1z M44.6,73.1c0.4,0,1.1,0,1.1,0v5.3h-1.1V73.1z"/>
				<path class="st3" d="M79.1,57.3c0,0.3,0,0.5,0,0.7c-0.2,0-0.4,0-0.6,0c0-0.2,0-0.5,0-0.7c0,0-0.1,0-0.1,0c0,0.2,0,0.4,0,0.7
					c-0.2,0-0.3,0-0.5,0.1c0,1.3,0,2.7,0,4.1c-0.8,0-1.5,0-2.3,0c0-1.1,0-2.1,0-3.2c-0.1,0-0.3,0-0.4,0v-0.9h-0.3v-0.6h-0.4v-1h-1v1
					H73v0.6h-0.3V59c-0.1,0-0.3,0-0.4,0c0,0.1,0,1,0,1.1c0,0,0,0,0,0c0,0,0,0,0,0c-0.4,0-1,0-1.5,0c0,0.2,0,0.3,0,0.3v0
					c0,0,0,0.1,0,0.4c-0.4,0-0.7,0-1.1,0l-0.9,0.8c0,0.8,0,0.3,0,1.1c-0.2,0-0.3,0-0.4,0c-0.2,0-0.2,0-0.2,0c-0.1,0-0.2,0-0.3,0
					c0-2.4,0-2.3,0-4.7l-1.6-1.6c-1.5,0-2.6,0-4.4,0c0,0.8,0,1.7,0,2.5c-0.2,0-0.3,0-0.5,0.1c0,1.3,0,2.5,0,3.8c-0.2,0-1.9,0-2.2,0
					c0-0.2,0-0.4,0-0.7c-0.4,0-0.8,0-1.3,0c0-1.1,0-2.2,0-3.4c-0.6,0-2.2,0-2.7,0c0,0.2,0,0.4,0,0.7c-0.2,0-0.4,0-0.7,0
					c0-0.1-0.1-0.2-0.1-0.4c-0.6-0.2-0.4,1.3-0.5,1.4c-0.2,0-0.2,0-0.5,0c0-0.8-0.5-0.6-0.5-0.7c0-1.3,0-2.7,0-3.2
					c0-0.1,0-0.2,0-0.4c0-1.5-1.2-2.6-2.6-2.6c-1.5,0-2.6,1.2-2.6,2.6c0,0.2,0,0.4,0,0.6c0,1.1,0,2.7,0,2.8c-0.2,0-0.4,0-0.6,0.1
					c0-0.2,0-2.2,0-2.4c-0.5,0-0.9,0-1.4,0c0-0.4,0-0.8,0-1.2c-0.1,0-0.1,0-0.2,0c0,0.4,0,0.8,0,1.2c-0.4,0-0.7,0-1,0
					c0,1.9,0,0.3,0,2.2c-0.7,0-1.3,0-2,0v3.4c0.4-0.1,0.8,0,1.2,0.4c0.1,0.1,0.7-0.7,0.8,0.5c1.2-1.6,1.7-0.4,1.7-0.4
					c0.2-0.4,1-0.8,1.7,0c0.1,0.1,0.1-0.5,0.7-0.4c0.5,0.2,0.4,1.1,0.6,1.4c0.3,0,0.5,0,0.7,0.1c0.3,0.1,0.3,0.2,0.1,0.8
					c0.5,0.2,0.2-0.2,0.7,0.2c0.3,0,0.4,0.3,0.4,0.4c0.1,0.1,0.2,0.1,0.4,0.1c0.1-0.1,0.2-0.2,0.5-0.2c0.3,0,0.5,0,0.7,0.1
					c0.3,0.2,0.6,0.4,0.9,0.7c0.1,0,0.1,0.1,0.1,0.2c0,0.1,0,0.2,0,0.3c0.4,0,0.8,0,1.2,0.2c0.1-0.1,0.3-0.1,0.4-0.2
					c0.1,0,0.1-0.1,0.1-0.2c0.1-0.2,0.2-0.3,0.5-0.3c0.1,0,0.1,0,0.2,0c0.2-0.3,0.2-0.9,0.8-0.8c0.1-0.3,0.2-0.6,0.6-0.4
					c-0.1-0.3,0-0.4,0.3-0.5c0.2,0,0.3,0.1,0.5,0.1c0,0,0.1,0,0.2-0.2c0-0.1,0-0.1,0-0.3c0-0.1,0.2-0.2,0.3-0.2
					c0.2,0,0.3,0.2,0.4,0.1c0.1,0,0.2-0.2,0.3-0.1c0.2,0,0.2,0.2,0.4,0.3c0.1,0.1,0.2,0,0.3,0c0.3-0.8,0.7-0.2,0.8-0.4
					c0.2-0.4,1.2,0,1.4,0.3c0,0.1,0.1,0.1,0.2,0.2c0.3,0.1,0.5,0.2,0.7,0.5c0.4,0,0.8-0.1,1,0.1c0.2,0.2,0.3,0.6,0.3,0.8
					c0,0,0.1,0,0.1,0.1c0.1,0,0.6-0.3,0.7-0.3c0.5,0,0.3,0.3,0.8,0.2c0.2,0,0.3-0.1,0.4-0.2c0.2-0.2,0.4-0.3,0.7-0.4
					c0.3-0.1,0.5-0.2,0.5-0.4c0-0.2,0.3-0.3,0.7-0.3c0.3,0,0.6,0.1,0.9,0.1c0.1-0.1,0.1-0.1,0.1-0.2c0.1-0.1,0.1-0.2,0.2-0.3
					c0.1-0.1,0.3-0.2,0.6-0.2c0.2,0,0.4,0,0.6-0.1c0.2,0,0.3-0.1,0.5-0.1c0.2,0,0.3,0.2,0.5,0.2c0.2-0.2,0.5-0.4,0.9-0.3
					c0.6,0.1,0.1,0.9,0.6,1.1c0.1,0,0.5-0.1,0.7,0c0.2,0.1,0.6,0.7,0.6,0.7c0,0,0.1-0.1,0.1-0.2c0.1-0.2,0.1-0.4,0.5-0.3
					c0.2,0,0.4,0.2,0.5,0.3c0.2,0.2,0.4-0.3,0.9-0.3c0.2,0,0.7,0.5,0.9,0.6c0.1,0.1,0.3,0.1,0.4,0c0.1-0.1,0.1-0.5,0.3-0.4
					c0.1,0,0.5,0.2,0.6,0.2c0.2,0,0.7,0.5,0.9,0.5c0,0,0,0,0.1-0.1v-8.5C79.8,57.3,79.4,57.3,79.1,57.3z"/>
				<path class="st3" d="M79.7,84.5h-0.4v-1.1v-2.9V78H74h-0.8v-1.1h6.6h0.4v-5.2c-0.3,0-0.4,0-0.5,0c0-0.1,0,0.9-0.1,0.9
					c-0.3,0-0.6,0-0.9,0c0,0.2,0,0.5,0,0.8c-0.3,0-0.5,0-0.7,0c-0.3,0-0.1,0.1-0.5,0.1c0,0.3,0,0.2,0,0.5c0,0-0.1,0-0.1,0
					c-0.2,0-0.2,0-0.2,0c0,0-0.1,0-0.1,0c0-0.8,0-2,0-2.8c-1.6,0-1.2,0-2.8,0c0-0.2,0-0.8,0-0.9c-0.1,0-3.3,0-3.4,0c0,0.2,0,1.1,0,2
					h-1c0,0.3,0,2.2,0,2.4c0,0.1,0,0.1,0,0.2c-0.2-0.1-0.3-0.3-0.4-0.4c0-0.1-0.2-0.3-0.4-0.2c-0.1,0-0.4-0.1-0.4-0.1
					c-0.1,0.1-0.2,0.1-0.3,0.3c-0.1,0.1,0,0.3-0.2,0.3c-0.1,0-0.3,0.3-0.3,0.3c-0.1,0-0.2,0-0.3,0c-0.1,0-0.2,0.1-0.2,0.2
					c-0.1,0.1-0.1,0.2-0.1,0.3c0,0.4-0.1,0.4-0.3,0.4c-0.3-0.1-0.3,0.4-0.9,0.4c-0.3,0-0.4,0.3-0.5,0.6c0,0-0.3,0.1-0.6,0.3
					c-0.4,0.4,0.2,0.7-0.4,0.9c0-0.2-0.3-0.2-0.5-0.1c-0.2,0-0.3,0.2-0.4,0.4v2.3h0.2v0.7c0.2-0.4,0.6-0.6,1-0.2
					c0.1,0.1,0.8-0.5,0.7,0.3c-0.1,0.7,0.7,1,0.7,0.2c0-0.2,0-1.8,0-1.8c0.6,0,1.7,0,2.3,0c1.2,0,2.3,0,3.5,0c0,0,0.5,0,0.5,0v1.1
					h-5.9v6.3h-6.2H59v0.9h0.9h0.8h7v0h1.2v1H63h-1.4v0.8l11.6,0v-9.1h4.2v0v9.1h2.7v-5.1H79.7z"/>
			</g>
			<polygon class="st5" points="80.1,89.6 87.4,89.6 80.1,89.6 			"/>
			<g>
				<path class="st6" d="M101.6,28.5H90.7h-2.9H80c-0.1,0-0.1,0-0.2,0c0,0,0,0,0,0.1v4.3c0,0.1,0,0.1,0.1,0.1h19.7h1.9
					c0.1,0,0.1,0,0.1-0.1v-4.3C101.7,28.5,101.6,28.5,101.6,28.5z"/>
				<path class="st6" d="M42.8,28.5C42.8,28.5,42.8,28.5,42.8,28.5l-0.6,0h-1.1h-3.3h-1H28h-1.4h-5.4c-0.1,0-0.1,0-0.1,0.1v3v0.6
					v0.8c0,0.1,0,0.1,0.1,0.1H24h18.8c0.1,0,0.1,0,0.1-0.1L42.8,28.5C42.9,28.5,42.9,28.5,42.8,28.5z"/>
				<polygon class="st6" points="24.9,33.6 22.9,33.6 22.9,40.6 22.9,41.5 22.9,55.9 22.9,67.3 22.9,73.9 22.9,89.6 24.9,89.6 
					24.9,89.6 29,89.6 29.5,89.6 41,89.6 41,85.1 41,82.7 41,79.4 41,78.4 41,72.2 41,71.7 41,65.3 41,59.4 41,52.2 41,37 41,33.6 
									"/>
				<polygon class="st6" points="97.7,33.5 81.7,33.5 81.7,34.1 81.7,39.4 81.7,57.4 81.7,65.5 81.7,89.6 97.7,89.6 99.8,89.6 
					99.8,67.4 99.8,57.3 99.8,36.3 99.8,35 99.8,33.6 99.8,33.5 				"/>
				<path class="st6" d="M80.1,36.3c-4.6-2-10.9-3.7-18.8-3.7c-7.8,0-14,1.6-18.6,3.6c-0.3,0.1-0.5,0.2-0.8,0.4v2.4v12.7
					c0.3-0.2,0.5-0.3,0.8-0.4c4.6-2.5,10.8-4.6,18.6-4.6c7.9,0,14.2,2.1,18.8,4.7c0.3,0.1,0.5,0.3,0.8,0.4V39v-2.4
					C80.6,36.5,80.4,36.4,80.1,36.3z"/>
			</g>
			<path class="st0" d="M73.4,48.5l0.3,0.1c0,0,0,0,0,0C73.6,48.5,73.5,48.5,73.4,48.5C73.4,48.4,73.4,48.5,73.4,48.5z"/>
			<path class="st7" d="M80.9,33L80.9,33L80,33c-0.1,0-0.1,0-0.1-0.1v-4.3c0,0,0,0,0-0.1c0,0,0,0,0,0l-1.1,1c0,0-0.1,0.1-0.1,0.2V34
				c0,0.1,0,0.1,0.1,0.1h1.3v2.2c0.3,0.1,0.5,0.2,0.8,0.3V39v12.8c-0.2-0.1-0.5-0.3-0.8-0.4c-4.6-2.6-10.9-4.7-18.8-4.7
				c-7.8,0-14,2.1-18.6,4.6c-0.3,0.1-0.5,0.3-0.8,0.4V38.9v-2.4c0.3-0.1,0.5-0.2,0.8-0.4v-2.1H44c0.1,0,0.1,0,0.1-0.1v-4.3
				c0-0.1,0-0.1-0.1-0.2l-1.1-0.9c0,0-0.1,0-0.1-0.1c0,0,0.1,0.1,0.1,0.1v4.3c0,0.1,0,0.1-0.1,0.1l-19.9,0v0.5h1.3H32h0.4h2.5h0.4
				H41v7.3v0.4v4v0.4v3.6v0.4v6.6v0.4v2.7v1.9v0.4v3.6v3v0.4v3.4v0.7v1.4v0.4v3.6v1v3.3v1.9V85v0.1v4.5h1.6v-4.5v-2.4v-3.3v-1v-5.3
				v-4v-6.2v-3.4v-5.9C47.3,51,53.5,49,61.3,49c7.9,0,14.2,2.1,18.8,4.7v3.6v8.5v5.8v5.2v7.6v5.1h1.6v-5.1v-3.9v-4.5v0v-4.4v-6.2
				v-8.1v-2.7V39.4v-5.3v-0.6h16h2.1V33L80.9,33z"/>
			<g>
				<path class="st0" d="M27.2,33c0.8-1.3,1.3-3.2,0.9-4.6h-0.3c0.4,1.3-0.3,3.4-1,4.6H27.2z"/>
				<path class="st0" d="M37,33c-0.4-0.8-0.2-2.1,0.1-3.1c0.1-0.5,0.3-1,0.4-1.4h-0.4c-0.1,0.4-0.2,0.9-0.3,1.3
					c-0.3,1.1-0.7,2.3-0.2,3.2H37z"/>
				<path class="st0" d="M82.9,32.6c0-0.1,0.1-0.1,0.1-0.1c0-0.1,0.1-0.1,0.1-0.2c0.1-0.3,0.3-0.5,0.4-0.8l0,0
					c0.2-0.5,0.4-1.1,0.3-1.7l0-0.2c0-0.4-0.1-0.8,0-1.1h-0.3c0,0.4,0,0.8,0,1.1l0,0.2c0,0.5-0.2,1.1-0.3,1.5l0,0
					c-0.1,0.3-0.2,0.5-0.4,0.7c0,0.1-0.1,0.1-0.1,0.2c0,0.1-0.1,0.1-0.1,0.2c-0.1,0.1-0.2,0.5-0.3,0.6l0.4,0
					C82.9,32.9,82.9,32.8,82.9,32.6z"/>
				<path class="st0" d="M90.7,29.4c0,0.2,0.1,0.3,0.1,0.5c0.1,0.4,0.2,0.9,0.3,1.4c0.1,0.4,0.3,0.7,0.5,1c0.1,0.1,0.2,0.2,0.2,0.4
					c0,0,0,0.1,0.1,0.1c0,0.1,0.2,0.2,0.2,0.3l0,0.1h0.4c0-0.2-0.1-0.4-0.2-0.5c0,0,0-0.1,0-0.1c-0.1-0.1-0.2-0.3-0.3-0.4
					c-0.2-0.3-0.4-0.6-0.5-0.9c-0.1-0.4-0.2-0.9-0.3-1.3c0-0.2-0.1-0.3-0.1-0.5c0-0.1,0-0.2-0.1-0.3c0-0.2-0.1-0.4-0.1-0.6l-0.3,0
					c0,0.2,0.1,0.5,0.1,0.7C90.6,29.2,90.6,29.3,90.7,29.4z"/>
				<path class="st0" d="M98.4,33h0.3c0.1-0.6,0-1.3-0.1-1.9c-0.1-0.6-0.2-1.1-0.1-1.7c0-0.1,0-0.2,0.1-0.3c0-0.2,0.1-0.4,0.1-0.6
					h-0.4c-0.1,0.2-0.1,0.4-0.1,0.6c0,0.1,0,0.2-0.1,0.3c-0.1,0.6,0,1.3,0.1,1.9C98.4,31.8,98.5,32.4,98.4,33z"/>
				<path class="st0" d="M87.9,88.4c0-0.4,0-0.7-0.1-1.1c0-0.3-0.1-0.7-0.1-1h0c0.1-0.7,0.1-1.4,0.1-2c0-0.4,0-0.9,0-1.3
					c0-0.1,0-0.5,0.1-0.6l0,0.1l0.2,0c0.9,0.1,1.8,0.2,2.7,0.3c0.2,0,0.5,0.1,0.7,0.1c-0.3,0.9-0.2,1.9,0,2.9c0,0.3,0.1,0.6,0.1,0.9
					c0.1,0.6,0,1.3-0.1,1.9c-0.1,0.4-0.1,0.7-0.2,1.1c0,0,0,0.1,0,0.1h0.4c0,0,0,0,0-0.1c0-0.3,0.1-0.7,0.2-1c0.1-0.7,0.2-1.3,0.2-2
					c0-0.2-0.1-0.4-0.1-0.6c2.2-0.4,4.6-0.3,6.8-0.3c0.4,0,0.7,0,1.1,0v-0.4c-0.3,0-0.7,0-1,0c-2.3-0.1-4.7-0.1-6.9,0.3
					c-0.1-0.9-0.3-1.8,0.1-2.6c0.4,0,0.7,0.1,1.1,0.1c0.5,0,0.9,0.1,1.3,0.1c0.3,0,0.7,0,1-0.1c0.2,0,0.3-0.1,0.5-0.1
					c0.2,0,0.4-0.1,0.6-0.1c1.1-0.1,2.2-0.2,3.5-0.2v-0.4c-1.3,0-2.4,0.1-3.5,0.2c-0.2,0-0.4,0.1-0.7,0.1c-0.1,0-0.3,0.1-0.4,0.1
					c-0.7,0.1-1.4,0.1-2.2,0c-0.7-0.1-1.5-0.2-2.2-0.2c-0.8-0.1-1.7-0.2-2.5-0.3c0-0.2,0-0.3,0-0.5c0-0.3,0-0.6,0-0.9
					c0-0.2,0-0.3,0-0.5c0-0.3,0-0.5,0-0.8c0-0.1,0-0.2,0-0.3c0-0.2,0-0.4,0-0.5c0-0.1,0.1-0.1,0.1-0.2c0-0.1,0-0.2,0-0.3
					c0,0,0-0.1,0-0.1c0-1,0-2,0-2.9c0-0.1,0-0.2,0-0.2c2.2,0,4.3,0,6.5-0.1l0,0c0,0,0,0,0,0c0.5,0,1.1,0,1.6,0l2,0
					c0.3,0,0.6,0,0.9,0.1c0.1,0,0.3,0,0.4,0.1v-0.4c-0.1,0-0.2,0-0.4,0c-0.3,0-0.6-0.1-1-0.1l-2,0c-0.5,0-1,0-1.6,0
					c0-0.2,0-0.4,0.1-0.6c0-0.2,0.1-0.4,0.1-0.6c0-0.3,0-0.5,0-0.8c0-0.2,0-0.3,0-0.5c0-0.1,0-0.1,0-0.2c0-0.2,0-0.3,0-0.5
					c0-0.1-0.1-0.3-0.2-0.4c0-0.1-0.1-0.1-0.1-0.2c0-0.1-0.1-0.2-0.1-0.3c0-0.1-0.1-0.2-0.1-0.3c-0.1-0.2-0.1-0.3-0.1-0.5
					c0-0.8-0.1-1.6-0.2-2.4l0-0.1c0-0.1,0-0.2,0-0.2c0.1,0,0.7,0,0.9,0c0.1,0,0.2,0,0.3,0c0.9,0,1.5,0,2.4,0c0.6,0,1.3,0.1,2,0.1
					v-0.4c-0.7,0-1.3,0-2-0.1c-0.8,0-1.1-0.1-1.9-0.1c0-0.1,0-0.2,0-0.3c0-0.1,0-0.1,0-0.2c0-0.5,0-0.9-0.1-1.3c0-0.1,0-0.3,0-0.4
					c0-0.2,0-0.5-0.1-0.7c0,0,0,0,0,0c0.1-0.2,0.1-0.5,0-0.8c0-0.1,0-0.2,0-0.2c0-0.5,0-1-0.1-1.5c0,0,0,0,0,0c0.1,0,0.1,0,0.2,0
					c0.1,0,0.1,0,0.2,0c0.7,0.1,0.8,0.2,1.4,0.2c0.3,0,0.7,0,1,0c0.2,0,0.5,0,0.7,0l0.1,0c0.1,0,0.1,0,0.2,0c0.1,0,0.2,0,0.3,0v-0.4
					l0,0c-0.1,0-0.3,0-0.5,0l-0.1,0c-0.2,0-0.5,0-0.7,0c-0.3,0-0.7,0-1,0c-0.6,0-0.6-0.1-1.3-0.2c-0.1,0-0.1,0-0.2,0
					c-0.1,0-0.3,0-0.3-0.1c-0.1-0.1-0.1-0.3-0.1-0.4l0-0.1c-0.1-0.6-0.1-1.1-0.1-1.6v-1.5c0-0.1,0-0.2,0-0.4c0-0.1,0-0.3,0-0.4
					c0-0.2,0-0.2,0-0.3c0-0.1,0.1-0.2,0.1-0.4c0-0.1,0-0.1,0-0.2c0-0.2,0.1-0.5,0.1-0.8c0.1-0.5,0.1-1,0.3-1.4c0-0.1,0-0.1,0.1-0.2
					c0-0.1,0.1-0.2,0.1-0.3c0.1,0,0.3,0,0.4,0c0.5,0,0.6,0,1.2,0l0.9,0c0.2,0,0.5,0,0.8,0c0.2,0,0.3,0,0.5,0v-0.4
					c-0.2,0-0.3,0-0.5,0c-0.3,0-0.5,0-0.8,0l-0.9,0c-0.5,0-0.6,0-1.2,0c-1.2,0-2.6,0-3.5-0.1c-0.5,0-1,0-1.4,0c-0.5,0-1,0-1.4,0
					c-0.2,0-0.7,0-0.9-0.1l-0.2,0c-0.1,0-0.2,0-0.3,0c-0.1,0-0.2,0-0.4,0c0,0-0.1,0-0.1,0c0-0.1,0-0.2,0-0.3c0-0.1,0-0.1,0-0.2
					c0-0.3,0-0.7,0-1l0-0.3c0-0.3,0-0.7,0-1c0-0.2,0-0.4,0-0.6h6.6c0.1,0,0.2-0.1,0.2-0.2v-1.9c0.9,0.1,1.9,0.2,2.9,0.2c0,0,0,0,0,0
					c0.2,0,0.3,0,0.5,0c0.3,0,0.7,0,1,0l0.1,0c0.1,0,0.1,0,0.2,0V46c-0.1,0-0.1,0-0.2,0l-0.2,0c-0.3,0-0.7,0-1,0c-0.2,0-0.3,0-0.5,0
					c-1,0-2-0.1-2.9-0.2v-2.2c0.3,0,0.6,0,0.8,0.1c1,0.1,2,0.1,3.1,0.1c0,0,0.1,0,0.1,0c0.1,0,0.1,0,0.2,0c0.1,0,0.3,0,0.4,0v-0.4
					c0,0,0,0,0,0c-0.1,0-0.4,0-0.5,0c-0.1,0-0.1,0-0.2,0c0,0,0,0,0,0c-1.1,0-2.1-0.1-3.1-0.1c-0.3,0-0.6,0-0.9-0.1v-0.8
					c0-0.1-0.1-0.2-0.2-0.2H94c0-0.3,0-0.6,0-0.9c0-0.4,0-0.7,0-1.1c0-0.2,0-0.4,0-0.6c0-0.5,0-1.1,0.1-1.5l0-0.1
					c0.1-0.3,0.1-0.6,0.2-1c0-0.2,0-0.5,0-0.7c0-0.2,0-0.3,0-0.5h2.7c0.2,0,0.5,0,0.7,0c0.4,0,0.9,0,1.3,0c0.1,0,0.3,0,0.4,0
					c0.2,0,0.3,0,0.5,0c0,0,0.1,0,0.1,0v-0.4c0,0,0,0,0,0c-0.2,0-0.4,0-0.5,0c-0.1,0-0.3,0-0.4,0c-0.4,0-0.9,0-1.3,0
					c-0.2,0-0.5,0-0.7,0h-4h-2.3c-0.3,0-0.5,0-0.8,0c-0.3,0-0.6,0-1,0c0-0.2,0-0.3,0-0.5c-0.1-0.4-0.1-0.9,0.1-1.2c0,0,0-0.1,0-0.1
					h-0.5c-0.2,0.4-0.1,0.9-0.1,1.3c0,0.2,0,0.4,0,0.6c0,0.1,0,0.3,0,0.4c0,0.2,0,0.4,0,0.6c-0.3,0-0.6,0-1,0c-0.8,0-1.6,0-2.3,0
					c-0.1,0-0.2,0-0.3,0c0,0,0,0,0,0c-0.1-0.3-0.1-0.6-0.1-0.8c0-0.3,0.1-0.7,0.1-1c0.1-0.4,0.2-0.7,0.2-1.1h-0.4
					c0,0.3-0.1,0.7-0.1,1c-0.1,0.4-0.2,0.7-0.2,1.1c0,0.3,0.1,0.7,0.1,1c0,0,0,0,0,0.1c0,0,0,0,0,0.1c0,0,0,0.1,0,0.1
					c0,0.2,0.1,0.5,0.1,0.7c0,0.2,0,0.3-0.1,0.5c0,0.1,0,0.2-0.1,0.2c0,0.1,0,0.1,0,0.1c0,0.1-0.1,0.2-0.1,0.3c0,0.1,0,0.2,0.1,0.5
					c0,0.2,0.1,0.5,0.1,0.6c-0.5-0.1-1.3-0.2-1.8-0.2c0,0,0,0,0,0c-0.2,0-0.4,0-0.6,0c0,0-0.1,0-0.1,0v0.4c0,0,0,0,0.1,0
					c0.2,0,0.4,0,0.6,0c0,0,0,0,0.1,0c0.5,0,1.4,0.1,1.8,0.2c0,0.1,0,0.1,0,0.2v0.1V41c0,0.3,0,0.6,0,0.9c0,0.5,0,1,0,1.6
					c0,0,0,0.1,0,0.1c0,0,0,0,0,0c-0.1,0-0.2,0-0.3,0c-0.2,0-0.3,0-0.5,0c-0.1,0-0.2,0-0.3,0c-0.1,0-0.3,0-0.4,0
					c-0.3,0-0.7-0.1-1-0.1h0c0,0,0,0-0.1,0v0.4c0,0,0.1,0,0.1,0c0,0,0,0,0,0c0.3,0,0.6,0,0.9,0.1c0.1,0,0.3,0,0.4,0
					c0.1,0,0.2,0,0.3,0c0.1,0,0.3,0,0.4,0c0.1,0,0.3,0,0.4,0c0,0.1,0.1,0.2,0.2,0.2c0.1,0,0.2,0.1,0.3,0.1c0,0,0.1,0,0.1,0h1.3v3.8
					c0,0.1,0.1,0.2,0.2,0.2h1.5c0,0.2,0,0.4,0,0.6c0,0.2,0,0.5,0,0.7c-0.2,0-0.4,0-0.6,0c-0.4,0.1-0.6,0.1-1,0.1l-0.3,0
					c-0.3,0-0.6,0-0.9,0c-0.4,0-0.9,0-1.3,0c-0.6-0.1-1.3-0.1-2-0.1V50c0.7,0,1.3,0,1.9,0.1c0.2,0,0.4,0,0.6,0c0.3,0,0.5,0,0.8,0
					c0.3,0,0.5,0,0.8,0l0.3,0c0.4,0,0.7,0,1.1-0.1c0.2,0,0.3,0,0.5,0l0,0.2c0,0.3,0,0.7,0,1c0,0,0,0.1,0,0.1c0,0.1,0,0.3,0.1,0.5
					c0,0.1,0,0.2,0,0.3c0,0.1,0,0.2,0,0.3c0,0.2,0,0.3,0,0.5c0,0.3,0,0.6,0,0.9c0,0.1,0,0.2,0,0.3c0,0.2,0,0.3,0,0.4
					c-0.1,0.2-0.7,0.2-0.9,0.2l-0.1,0c-0.3,0-0.5,0-0.8-0.1c-0.5,0-0.9-0.1-1.4,0c-0.4,0-0.7,0.1-1.1,0.1c-0.3,0-0.6,0.1-0.8,0.1
					c-0.4,0-0.8,0.1-1.1,0.1v0.4c0.4,0,0.8-0.1,1.2-0.1c0.3,0,0.6-0.1,0.8-0.1c0.3,0,0.7-0.1,1-0.1c0.4,0,0.9,0,1.3,0
					c0.3,0,0.6,0,0.8,0.1l0.1,0c0.3,0,0.6,0,0.9-0.1c0,0.1,0,0.2,0,0.3l0.1,0.1c0,0,0,0,0,0c0,0.2,0,0.3,0.1,0.5l0,0.1
					c0,0.1,0,0.3,0.1,0.4c0.1,0.3,0.1,0.6,0.1,0.9l0,0.1c0,0.2,0,0.6-0.1,0.7c-0.1,0.1-0.4,0.1-0.6,0.1c-0.1,0,0,0,0,0
					c-0.5,0-1.1,0.1-1.6,0.1c-0.5,0-1.1,0-1.6,0.1c-0.5,0-1,0-1.5,0c-0.3,0-0.7,0-1,0V59c0.3,0,0.7,0,1,0c0.5,0,1,0,1.5,0
					c0.5,0,1.1-0.1,1.6-0.1c0.5,0,1.1,0,1.6-0.1c0.1,0-0.1,0,0,0c0.3,0,0.7,0,0.9-0.2c0.3,0,0.7,0.1,1,0.1c0.4,0,1.1,0.1,1.6,0.1
					c0.1,0,0.2,0,0.3,0c0.1,0,0.2,0,0.3,0c0.3,0,0.3,0,0.6-0.1c0,0.1,0,0.3-0.1,0.5L92,59.3c-0.1,0.4-0.2,0.7-0.2,1.1
					c0,0.4,0,0.8,0.1,1.2c0,0.2,0.1,0.4,0.1,0.6c0,0.1,0,0.1,0,0.2c0,0,0,0,0,0c0,0-0.1,0-0.2,0c-0.1,0-0.1,0-0.1,0
					c-0.2,0,0,0-0.2,0c-0.2,0-0.4,0-0.6,0l-3.9,0c-0.4,0-0.8,0-1.2,0c-0.4,0-0.7,0.1-1.1,0.1c-0.2,0-0.4,0.1-0.6,0.1
					c-0.5,0.1-1,0.1-1.6,0.1c-0.3,0-0.5,0-0.8,0v0.4c0.3,0,0.5,0,0.8,0c0.5,0,1.1,0,1.6-0.1c0.2,0,0.4-0.1,0.6-0.1
					c0.4-0.1,0.7-0.1,1.1-0.1c0.4,0,0.8,0,1.2,0l2.4,0c0,0.2,0,0.5,0,0.8c0.1,1.2,0.2,2.2,0.2,3.2c0,0.1,0,0.4,0,0.8
					c0,2.1,0,3,0,3.4c0,0,0,0,0,0c-0.1,0-0.3,0-0.4,0c-0.5,0-1.1,0-1.6,0C87,71,86.6,71,86.2,71c-0.3,0-0.5,0-0.8,0l-0.2,0
					c-1.2-0.1-2.4-0.2-3.5,0v0.4c1.1-0.2,2.3-0.1,3.5,0l0.2,0c0.3,0,0.5,0,0.8,0c0.4,0,0.8,0,1.1,0.1c0.2,0,0.4,0,0.6,0
					c0,1.2,0,2.4,0,3.5c0,1,0,2,0,2.9c0,0,0,0.1,0,0.1c0,0.1,0,0.1,0,0.2c0,0.1-0.1,0.2-0.5,0.2c-0.6,0.1-1.3,0.1-1.9,0.1
					c-0.4,0-0.7,0-1.1,0l-0.7,0c-0.5,0-0.9,0-1.4,0.1c-0.2,0-0.5,0-0.7,0c0,0,0,0-0.1,0v0.4c0,0,0.1,0,0.1,0c0.2,0,0.5,0,0.7,0
					c0.5,0,0.9,0,1.4-0.1l0.7,0c0.3,0,0.7,0,1,0c0.6,0,1.3,0,2-0.1c0.1,0,0.2,0,0.3-0.1c0,0.1,0,0.1,0,0.2c0,0.1,0,0.2,0,0.3
					c0,0.3,0,0.5,0,0.8c0,0.2,0,0.3,0,0.5c0,0.3,0,0.6,0,0.9c0,0.1,0,0.3,0,0.4c-0.1,0-0.1,0.1-0.2,0.1c-0.3,0.2-0.3,0.6-0.3,1
					c0,0.4,0,0.9,0,1.3c0,0.6,0,1.3-0.1,1.9c-0.2,0-0.4,0-0.5,0c-0.5,0-0.9,0-1.4,0c-0.5,0-0.9,0.1-1.4,0.1c-0.5,0-1,0.1-1.6,0.1
					c-0.2,0-0.4,0.1-0.6,0.1c0,0-0.1,0-0.1,0v0.4c0.1,0,0.1,0,0.2,0c0.2,0,0.4-0.1,0.6-0.1c0.5,0,1-0.1,1.5-0.1c0.5,0,0.9,0,1.4-0.1
					c0.5,0,0.9,0,1.3,0c0.2,0,0.4,0,0.6,0c0,0.2,0,0.5,0.1,0.7c0,0.4,0.1,0.7,0.1,1c0,0.4,0,0.8,0,1.2h0.4
					C87.9,89.2,87.9,88.8,87.9,88.4z M88.7,37.9c0-0.2,0-0.4,0-0.6c0-0.2,0-0.4,0-0.6c0,0,0,0,0,0c0,0,0,0,0,0c0-0.3,0-0.5,0-0.8
					c0,0,0-0.1,0-0.1c0.3,0,0.6,0,1,0c0.3,0,0.5,0,0.8,0h3.2c0,0.2,0,0.3,0,0.5c0,0.2,0,0.4,0,0.7c0,0.3-0.1,0.6-0.2,0.9l0,0.1
					c-0.1,0.3-0.1,0.7-0.1,1.1c-0.1,0-0.3,0-0.4,0l-0.1,0c-0.9,0-1.8,0.1-2.7,0.2c-0.2,0-0.4,0.1-0.7,0.1c-0.3,0-0.6,0.1-0.9,0.1
					C88.7,38.9,88.7,38.4,88.7,37.9z M88.7,39.8c0.3,0,0.7-0.1,1-0.1c0.2,0,0.4-0.1,0.6-0.1c0.9-0.1,1.8-0.2,2.6-0.2l0.2,0
					c0.1,0,0.3,0,0.4,0c0,0,0,0.1,0,0.1c0,0.2,0,0.4,0,0.6c0,0.4,0,0.7,0,1.1c0,0.3,0,0.6,0,0.9h-4.9c0-0.4,0-0.9,0-1.3
					C88.7,40.6,88.6,40.2,88.7,39.8z M86.1,42.4v1.4h-0.4h-0.8l-0.1,0c0,0-0.1,0-0.1,0c0,0,0-0.2,0-0.3c0-0.1,0-0.1,0-0.2
					c0-0.5,0-1,0-1.5c0-0.3,0-0.6,0-0.9l0-0.4l0-0.1c0-0.1,0-0.2,0-0.3c0-0.1,0-0.4-0.1-1c0-0.2-0.1-0.4-0.1-0.4c0-0.1,0-0.1,0-0.2
					c0-0.1,0-0.1,0.1-0.2c0-0.1,0-0.2,0.1-0.2c0-0.2,0.1-0.3,0.1-0.6c0-0.2,0-0.5,0-0.7c0,0,0,0,0,0c0.1,0,0.2,0,0.3,0
					c0.8-0.1,1.5,0,2.3,0c0.3,0,0.6,0,1,0c0,0.1,0,0.3,0,0.4c0,0.2,0,0.4,0,0.6c0,0.6,0,1.3,0,1.9c0,0.4,0,0.8,0,1.2
					c0,0.4,0,0.8,0,1.3h-2C86.2,42.2,86.1,42.3,86.1,42.4z M86.5,47.8v-5.2h8.2v5.2H86.5z M95.4,62.5c0,0.2,0,0.5,0,0.7
					c0,0,0,0-0.1,0l-0.1,0c-0.5,0.1-2,0.1-2.5,0c-0.1,0-0.2,0-0.2,0v0c0-0.4,0-0.7,0-1.1c0-0.2,0-0.4-0.1-0.6
					c-0.1-0.4-0.1-0.7-0.1-1.1c0-0.3,0.1-0.7,0.2-1l0.1-0.2c0.1-0.3,0.1-0.5,0.1-0.6c0-0.1,0-0.1,0-0.2c0.1-0.1,0.1-0.2,0.2-0.3
					c0.1-0.3,0.1-0.7,0.1-1c0-0.1,0-0.2,0-0.3c0-0.1,0-0.1,0-0.2c0-0.2,0.1-0.4,0-0.6h0.1h0c0.1,0,0.1,0,0.2,0c0.1,0,0.6,0,0.7,0
					c0.2,0,0.8,0,0.9-0.1c0,0.1,0,0.2,0,0.4c0,0.1,0,0.2,0,0.4v1.5c0,0.5,0,1.1,0.1,1.7l0,0.1c0,0.1,0,0.3,0.1,0.5
					c0,0.1,0,0.2,0.1,0.3c0,0.1,0,0.1,0,0.2c0.1,0.5,0.1,0.9,0.1,1.4C95.4,62.4,95.4,62.5,95.4,62.5z M88.3,55.2c0-0.1,0-0.2,0-0.3
					c0,0,0-0.1,0-0.1c0,0,0,0,0,0c0,0,0,0,0,0c0.1-0.2,0.1-0.4,0.1-0.6c0-0.1,0-0.2,0-0.2c0-0.3,0-0.6,0-1c0-0.2,0-0.3,0-0.5
					c0-0.1,0-0.2,0-0.3c0.1,0,0.3,0,0.4,0.1c0.1,0,0.1,0,0.2,0l0.2,0c0.2,0,0.7,0.1,0.9,0.1c0.5,0,1,0,1.5,0c0.5,0,0.9,0,1.4,0
					c0.7,0,1.9,0,2.7,0c0,0.1,0,0.1-0.1,0.1c0,0.1-0.1,0.2-0.1,0.2c-0.2,0.5-0.2,1-0.3,1.5c0,0.2-0.1,0.5-0.1,0.7c0,0.1,0,0.1,0,0.2
					c0,0.1,0,0.2,0,0.3c-0.1,0.2-1.3,0.2-1.6,0.1c-0.1,0-0.2,0-0.2,0h0H93c-0.4,0-0.8,0-1.2,0c-0.2,0-0.3-0.1-0.5-0.1
					c-0.1,0-0.3-0.1-0.4-0.1c-0.3-0.1-0.4-0.1-0.7,0l-0.2,0c-0.1,0-0.2,0-0.2,0c-0.2,0-0.6,0-0.8,0C88.7,55.2,88.5,55.2,88.3,55.2z
					 M91.5,58.3c-0.1,0-0.2,0-0.3,0c-0.5,0-1.2,0-1.8-0.1c-0.3,0-0.6-0.1-0.8-0.1c0-0.2,0.1-0.4,0.1-0.6l0-0.1c0-0.3,0-0.6-0.1-1
					c0-0.1-0.1-0.3-0.1-0.4l0-0.1c0-0.1,0-0.2,0-0.4c0.2,0,0.4,0,0.5,0c0.2,0,0.6,0,0.8,0c0.1,0,0.2,0,0.2,0l0.2,0
					c0.3,0,0.3,0,0.6,0c0.1,0,0.3,0.1,0.4,0.1c0.2,0.1,0.3,0.1,0.6,0.1c0.3,0,0.5,0,0.8,0c0,0.1,0,0.4,0,0.5c0,0.1,0,0.2,0,0.2
					c0,0.1,0,0.2,0,0.3c0,0.3,0,0.6-0.1,0.9c0,0.1-0.1,0.2-0.2,0.2C92,58.3,91.9,58.3,91.5,58.3z M89.7,62.8l1.1,0
					c0.2,0,0.4,0,0.6,0c0.2,0,0,0,0.2,0c0,0,0.1,0,0.1,0c0.1,0,0.2,0,0.3,0c0,0.1,0,0.3,0,0.4v0.2c0,0.1,0.1,0.2,0.2,0.2
					c0.1,0,0.3,0,0.4,0c0.3,0,1.1,0,1.4,0c0.3,0,1,0,1.2-0.1l0.1,0c0,0,0.1,0,0.1,0c0,0.1,0,0.2,0,0.4c0,0.1,0,0.3,0,0.5
					c0,0.4,0.1,0.8,0.1,1.3c0,0.1,0,0.1,0,0.2c0,0.1,0,0.2,0,0.3c0,0-0.1,0-0.1,0c-0.1,0-0.2,0-0.3,0c-0.2,0-0.8,0-0.9,0
					c-0.1,0-0.2,0.1-0.3,0.2c-0.1,0.2-0.1,0.4,0,0.5l0,0.1c0.1,0.8,0.2,1.6,0.2,2.4c0,0.2,0,0.4,0.1,0.6c0,0.1,0.1,0.2,0.1,0.3
					c0,0.1,0.1,0.3,0.1,0.4c0,0.1,0.1,0.1,0.1,0.2c-0.1,0-0.2,0-0.2,0c-0.1,0-0.2,0-0.3,0c-0.2,0-0.3,0-0.5,0l-0.1,0
					c-0.5,0.1-1.1,0-1.7,0l-0.2,0c-0.6,0-1.1,0-1.7,0c0-0.6,0-2.4,0-3.4c0-0.4,0-0.7,0-0.8c0-1-0.1-2.1-0.2-3.3
					C89.7,63.3,89.7,63,89.7,62.8z M88.4,71.5c0.2,0,0.4,0,0.6,0c0.2,0,0.3,0,0.4,0c0.7-0.1,1.4-0.1,2.1,0l0.2,0c0.6,0,1.2,0,1.8,0
					l0.1,0c0.1,0,0.3,0,0.4,0c0.1,0,0.1,0,0.2,0c0.2,0,0.3,0,0.5,0c0,0.1,0,0.2,0,0.3c0,0.1,0,0.1,0,0.2c0,0.2,0,0.4,0,0.5
					c0,0.3,0,0.5,0,0.7c0,0.2-0.1,0.3-0.1,0.5c0,0.2-0.1,0.4-0.1,0.7c-2.1,0-4.1,0-6.2,0.1C88.4,73.4,88.4,72.5,88.4,71.5z"/>
				<path class="st0" d="M40.4,84.6c-0.2,0-0.5,0-0.7,0h-0.8h-0.3c0,0,0-0.1,0-0.1c0-0.5,0.1-1,0-1.4c0-0.1-0.1-0.2-0.2-0.2l-1,0
					c-0.3,0-0.6,0-0.9,0c0.1-0.3,0.1-0.7,0.1-1c0-0.1,0-0.2,0-0.3c0-0.2,0-0.5,0-0.7c0-0.1,0-0.3,0-0.4c0-0.1,0-0.2,0-0.4
					c0-0.4,0-0.8,0.1-1.1c0,0,0-0.1,0-0.1c0-0.1,0.1-0.2,0.1-0.4c0-0.1,0-0.1,0-0.2c0-0.1,0-0.2,0-0.2c0-0.3,0-0.5,0-0.8
					c0-0.4,0-0.7,0-1.1c0-0.5,0-1,0-1.4c0,0,0,0,0,0c0.2,0,0.5,0,0.8,0c0.2,0,0.3,0,0.5,0h2c0.1,0,0.2,0,0.2,0c0.2,0,0.4,0,0.6,0
					v-0.4c-0.1,0-0.4,0-0.5,0c-0.1,0-0.2,0-0.3,0h-2c-0.2,0-0.3,0-0.5,0c-0.3,0-0.5,0-0.8,0c0-0.2,0-0.4,0-0.6c0-0.4,0-0.7,0-1.1
					c0-0.7,0-1.5,0-2.3c0-0.2,0.1-0.5,0.1-0.7c0.1-0.3,0.1-0.6,0.1-0.9c0.5,0,1,0.1,1.5,0.1c0.2,0,0.4,0,0.6,0c0.3,0,0.6,0,0.8,0
					c0.2,0,0.4,0,0.6,0c0.1,0,0.1,0,0.2,0c0,0,0,0,0.1,0v-0.4c0,0-0.1,0-0.1,0c-0.1,0-0.2,0-0.3,0c-0.4,0.1-0.9,0-1.4,0
					c-0.2,0-0.4,0-0.7,0c-0.8,0-1.6-0.1-2.4-0.1c-0.4,0-0.8-0.1-1.3-0.1c-0.3,0-0.6,0-0.9,0c-0.7,0-1.4,0-2-0.1c0-0.3,0-0.6,0-0.9
					c0-0.3,0-0.7,0.1-1.1c0-0.3,0-0.7,0-1c0-0.3,0-0.7,0-1c0-0.2,0-0.5,0-0.7c0-0.3,0-0.7,0-1c0-0.2,0-0.4,0-0.5c0-0.1,0-0.2,0-0.3
					c0.1,0,0.2,0,0.4-0.1c0.1,0,0.2,0,0.3-0.1c0.3,0,0.6,0,1,0c0.1,0,0.3,0,0.4,0c0.5,0,1,0,1.5,0c0.2,0,0.4,0,0.7,0c0,0,0,0,0,0
					c0.2,0,0.3,0,0.5,0c0.7,0,1.5,0,2.2,0c0.3,0,0.6,0,0.9,0.1c0.4,0,0.7,0.1,1.1,0.1v-0.4c-0.4,0-0.7,0-1-0.1
					c-0.3,0-0.6-0.1-0.9-0.1c-0.7,0-1.5,0-2.2,0c-0.2,0-0.3,0-0.5,0c0,0,0,0,0,0c-0.2,0-0.5,0-0.7,0c-0.5,0-1,0-1.5,0
					c-0.1,0-0.3,0-0.4,0c-0.4,0-0.7-0.1-1.1,0c-0.1,0-0.2,0-0.3,0.1c-0.1,0-0.2,0-0.3,0.1c0-0.9,0-1.8,0-2.6c0-0.5,0-1,0-1.5
					c0,0,0.1,0,0.1,0c1.5,0,3-0.1,4.4-0.1c1.4,0,2.9-0.1,4.3-0.1v-0.4c-1.4,0-2.8,0.1-4.2,0.1c0-0.2,0.1-0.4,0.2-0.7
					c0.1-0.3,0.3-0.6,0.3-1c0-0.5,0-1,0-1.4l0-0.7c0-0.3,0-0.5,0-0.8c0-0.5,0-1,0-1.5c0-0.1,0-0.2,0-0.2c0-0.1,0-0.3,0-0.4
					c0.1,0,0.2,0,0.2,0c1,0,2,0,3,0.1c0.1,0,0.2,0,0.3,0c0,0,0,0,0.1,0v-0.4c-0.1,0-0.2,0-0.3,0c-1-0.1-2.1-0.1-3.1-0.1
					c-0.3,0-0.7,0-1,0c-0.7,0-1.4,0-2.1-0.1c-0.8,0-1.6-0.1-2.4-0.1c-0.5,0-1,0.1-1.5,0.1c-0.2,0-0.4,0-0.6,0.1c-0.3,0-0.5,0-0.8,0
					c-0.3,0-0.6,0-1,0.1c-0.2,0-0.5,0.1-0.7,0.1c0-0.7,0-1.4,0.1-2c0-0.6,0.1-1.3,0.1-1.9c1.5,0.1,3,0.1,4.3,0.1c0.6,0,1.2,0,1.8,0
					l0.6,0c0.2,0,0.5,0,0.7,0c0.1,0,0.3,0,0.4,0c0.2,0,0.4,0,0.5,0c0.2,0,0.3,0,0.5,0c0,0,0,0,0,0c0.2,0,0.4,0,0.6,0h0.3
					c0.2,0,0.4,0,0.7,0c0.4,0,0.9,0,1.3,0c0.3,0,0.7,0.1,1,0.1c0.2,0,0.4,0.1,0.5,0.1v-0.4c-0.2,0-0.3,0-0.5-0.1
					c-0.3-0.1-0.7-0.1-1-0.1c-0.4,0-0.9,0-1.4,0c-0.2,0-0.4,0-0.7,0h-0.3c-0.2,0-0.4,0-0.6,0c-0.2,0-0.4,0-0.5,0c-0.2,0-0.3,0-0.5,0
					c0,0,0,0,0,0c0-0.2,0-0.4,0-0.6c0-0.2,0-0.4,0-0.6c0-0.2,0-0.5,0-0.7c0-0.4,0-0.8,0-1.2c0-0.3-0.1-0.6-0.2-0.8
					c0.2,0,0.4-0.1,0.5-0.1c0.3,0,0.6,0,1.1,0c1,0,2.1,0,3.1,0c0.3,0,0.7,0,1.1,0v-0.4c-0.4,0-0.7,0-1.1,0c-1,0-2.1,0-3.1,0
					c-0.4,0-0.7,0-1,0c-0.2,0-0.4,0-0.6,0.1c0-0.3,0.1-0.7,0.1-1.3c0-0.1,0-0.3,0-0.3c0.1-0.7,0.1-1.6,0.1-2.4l0-0.1
					c-0.1-1-0.2-2.2,0-3.2h-0.4c-0.2,1-0.1,2.2,0,3.2l0,0.1c0.1,0.8,0,1.6-0.1,2.4c0,0.1,0,0.2,0,0.3c0,0.3,0,1.3-0.1,1.4
					c0,0,0,0,0,0c-0.4,0-1-0.1-1.5-0.1c-0.3,0-0.7,0-1,0c0,0,0,0-0.1,0c0-0.4,0-0.7,0-1.1c0-0.9,0-1.7,0-2.5l0-0.2
					c0-0.5,0.1-1,0.1-1.5c0-0.6,0.1-1.1,0.1-1.7c0-0.1,0-0.3,0-0.4H32c0,0.1,0,0.2,0,0.4c-0.1,0.6-0.1,1.1-0.1,1.7
					c0,0.5,0,1-0.1,1.5l0,0.2c0,0.2,0,0.5,0,0.7c-0.1,0-0.2,0-0.3,0c-0.1,0-0.2,0-0.3,0h-0.4c-0.3,0-0.6,0-0.8,0c-0.8,0-1.6,0-2.4,0
					c-0.8,0-1.5,0-2.3,0c0,0,0,0,0,0c-0.5,0-1,0-1.5-0.1c-0.3,0-0.6,0-0.8,0v0.4c0.3,0,0.5,0,0.8,0c0.5,0,1,0.1,1.5,0.1c0,0,0,0,0,0
					c0.8,0,1.5,0,2.3,0c0.8,0,1.6,0,2.4,0c0.3,0,0.6,0,0.8,0h0.4l0,0c0.1,0,0.2,0,0.3,0c0.1,0,0.2,0,0.3,0c0,0.5,0,0.9,0,1.4
					c0,0.4,0,0.7,0,1.1c-0.2,0-0.4,0-0.5,0c-0.4,0-0.9,0-1.3,0c-0.9,0-1.9,0-2.9,0.1c-0.1,0-0.2,0.1-0.2,0.2c0,0.4-0.1,0.8-0.1,1.2
					c0,0,0,0,0,0h-0.2c-0.1,0-0.2,0-0.3,0c-0.3,0-0.7,0-1,0c-0.3,0-0.6,0-1,0c-0.5,0-0.9,0-1.4,0V43c0.5,0,0.9,0,1.4,0
					c0.3,0,0.7,0,1,0c0.3,0,0.6,0,1,0c0.2,0,0.2,0,0.3,0h0.2c0,0,0,0,0,0c0,0.4,0,0.9,0.1,1.3l0,0c0.1,0.3,0.1,0.6,0.1,1
					c0,0.1,0.1,0.2,0.2,0.2c0,0,0,0,0.1,0c0,0.7,0,1.3-0.1,1.9c0,0.7-0.1,1.4-0.1,2.1c-0.7,0-1.4,0.1-2.2,0.1c-0.3,0-0.6,0-0.9,0
					c-0.4,0-0.7,0-1.1,0V50c0.4,0,0.7,0,1.1,0c0.3,0,0.6,0,0.9,0c1.3,0,2.3-0.1,3.3-0.2c-0.1,0.5-0.2,0.8-0.2,1c0,0.2,0,0.7,0,1.1
					c0,0.5,0,0.9,0,1.1c0,0.7,0.1,2.3,0,2.7c0,0.2-0.1,0.3-0.1,0.5c-0.2,0.8-0.3,1.5-1,1.8c-0.2,0.1-0.4,0-0.6,0c-0.3,0-0.7,0-1,0.1
					c-0.5,0.2-1,0.2-1.6,0.2c-0.2,0-0.4,0-0.6,0c0,0-0.1,0-0.1,0v0.5c0,0,0.1-0.1,0.1-0.1c0.2,0,0.4,0,0.6,0c0.6,0,1.2,0,1.7-0.2
					c0.2-0.1,0.5-0.1,0.8-0.1c0.3,0,0.5,0,0.8,0c0.6-0.2,0.9-0.7,1.1-1.2c0,0,0,0,0,0c0.2,0,0.4-0.1,0.6-0.1c0.2,0,0.4-0.1,0.5-0.1
					c0.5,0,1,0,1.5,0c0.3,0,0.7,0,1,0c0,0.5,0,1,0,1.5c0,1,0,1.9,0,2.9c0,0,0,0.1,0,0.1c0,0.2,0,0.3,0,0.4c0,0.1,0,0.3,0,0.4
					c0,0.2,0,0.3,0,0.5c-0.6,0-1.2,0-1.8,0.1C29,63,28,63,27,63c-0.2,0-0.3,0-0.5,0c-0.3,0-0.7,0-1,0c-0.8,0-1.5,0-2.3,0
					c-0.1,0-0.2,0-0.3,0v0.4c0.1,0,0.2,0,0.3,0c0.8,0,1.5,0,2.3,0c0.3,0,0.7,0,1,0c0.2,0,0.3,0,0.5,0c1,0,2,0,3-0.1
					c0.6,0,1.2-0.1,1.8-0.1c0,0,0,0.1,0,0.1c0,0.2,0,0.5,0,0.7c0,0.3,0,0.6,0,1c0,0.3,0,0.7,0,1c-0.2,0-0.4,0-0.5,0
					c-0.2,0-0.3,0-0.5,0c-1,0-2.1,0.1-3.1,0.2c-0.7,0.1-1.4,0.1-2.2,0.2c-0.7,0-1.3,0-2,0c-0.2,0-0.4,0-0.6,0v0.4c0.2,0,0.4,0,0.6,0
					c0.7,0,1.3,0,2,0c0.7,0,1.5-0.1,2.2-0.2c1-0.1,2-0.2,3.1-0.2c0.2,0,0.3,0,0.5,0c0.2,0,0.4,0,0.5,0c0,0.2,0,0.5,0,0.7
					c0,0.3,0,0.7,0,1.1c0,0,0,0,0,0c-0.1,0.4,0,0.8,0,1.2c0,0.1,0,0.3,0,0.4c0,0.5,0,0.9,0,1.3c0,0.3-0.1,0.5-0.1,0.8
					c0,0.4-0.1,0.7-0.1,1.1c-0.3-0.1-0.9-0.2-1.5-0.1c-0.6,0.1-1.5,0-1.9-0.1c-0.5-0.1-0.9,0-1.3,0c-0.2,0-0.5,0.1-0.8,0.1
					c-0.2,0-0.3,0.1-0.4,0.2c-0.2,0.2-0.1,0.6,0,1c0.1,0.3,0.1,0.6,0.1,0.8c-0.8-0.4-1.7-0.5-2.6-0.6v0.4c0.9,0,1.9,0.2,2.6,0.6
					c0,0.4,0,0.7,0,1.1c0,1.2,0,2.5-0.1,3.8c-0.1,0-0.4,0-0.6,0c-0.1,0-0.2,0-0.2,0l0,0c-0.6,0-1.2,0-1.7,0c0,0,0,0,0,0v0.4l0,0
					c0.5,0,1.1,0,1.7,0c0,0,0,0,0,0c0.1,0,0.1,0,0.2,0c0.1,0,0.2,0,0.3,0c0.2,0,0.3,0,0.4-0.1c0.7,0.2,1.3,0.2,2,0.2
					c0.3,0,0.6,0,0.8,0c0.1,0,0.2,0,0.3,0c0.3,0,0.7-0.1,1-0.1c0.1,0,0.2,0,0.3-0.1c0,0.1,0,0.1,0.1,0.2c0,0.1,0.1,0.2,0.1,0.3
					c0,0.3,0,0.5,0,0.8c0,0.1,0,0.3,0,0.4c0,0.2-0.1,0.3-0.1,0.6c-0.1,0.2-0.1,0.5-0.2,0.7c-0.1,0.4-0.2,0.8-0.3,1.2
					c-0.2,0.1-0.6,0-0.8,0c-0.1,0-0.2,0-0.3,0c-0.6,0-1.2,0-1.8,0c-0.3,0-0.6,0-0.9,0c-0.6,0-1.2,0-1.8,0c-0.3,0-0.7,0-1,0V85
					c0.3,0,0.7,0,1,0c0.6,0,1.2,0,1.8,0c0.3,0,0.6,0,0.9,0c0.6,0,1.2,0,1.7,0c0.1,0,0.2,0,0.3,0c0.2,0,0.4,0.1,0.6,0.1
					c0.1,0,0.1,0,0.2,0c0,0.1,0,0.3,0,0.4c0,0.2,0,0.4-0.1,0.6c0,0.2-0.1,0.4-0.1,0.7c-0.5,0.4-0.6,1-0.6,1.3c0,0.6,0.2,1,0.3,1.4
					c0,0,0,0.1,0.1,0.1h0.5c0-0.1-0.1-0.2-0.1-0.3c-0.1-0.4-0.3-0.7-0.3-1.2c0-0.2,0.1-0.7,0.5-1c0.3,0.1,0.6,0.1,0.8,0.1
					c0.1,0,0.3,0,0.4,0c0.6,0.1,1.2,0.1,1.6,0.1c0,0,0.1,0,0.1,0c0.5,0,1-0.1,1.5-0.2c0.8-0.2,1.4-0.3,2.2-0.3c0.4,0,0.9,0,1.3-0.1
					c0,0,0.1,0,0.2,0c0.1,0,0.2,0,0.3,0c0,0.5,0,1.1-0.1,1.6c0,0.3,0,0.6,0,0.9c0,0.1,0,0.3,0,0.4h0.4c0-0.1,0-0.3,0-0.4
					c0-0.3,0-0.6,0-0.9c0-0.6,0.1-1.1,0.1-1.7c0.1,0,0.1-0.1,0.1-0.1c0.1-0.1,0.1-0.2,0.1-0.3c0,0,0,0,0,0c0-0.2,0-0.4,0-0.6
					c0-0.1,0-0.2,0-0.3c0-0.1,0-0.2,0-0.2h0.3h0.8c0.3,0,0.5,0,0.8,0c0.2,0,0.4,0,0.6,0v-0.4C40.8,84.6,40.6,84.6,40.4,84.6z
					 M27.3,44.2L27.3,44.2c-0.1-0.9-0.1-1.9,0-2.7c0.9-0.1,1.8-0.1,2.6,0c0.4,0,0.9,0,1.3,0c0.3,0,0.7,0,1,0c0.3,0,0.7,0,1,0
					c0.5,0,1.1,0,1.6,0.1c0.1,0,0.2,0,0.3,0.7c0,0.4,0,0.7,0,1.1c0,0.2,0,0.5,0,0.7c0,0.2,0,0.4,0,0.6c0,0.2,0,0.4,0,0.6
					c-0.2,0-0.4,0-0.7,0l-0.6,0c-0.6,0-1.2,0-1.8,0c-1.4,0-3,0-4.6-0.1C27.4,44.7,27.4,44.5,27.3,44.2z M30.8,56.5c-0.5,0-1,0-1.5,0
					c-0.2,0-0.4,0.1-0.6,0.1c-0.2,0-0.3,0.1-0.4,0.1c0-0.1,0.1-0.3,0.1-0.4c0-0.2,0.1-0.3,0.1-0.5c0.1-0.6,0.1-2.3,0-2.8
					c0-0.1,0-0.6,0-1c0-0.5,0-1,0-1.2c0-0.2,0.1-0.5,0.2-1c0.2,0,0.4,0,0.6,0c0.3,0,0.5,0,0.8,0c0.2,0,0.4,0,0.6-0.1
					c0.5-0.1,1-0.1,1.4-0.1c0.8,0,1.6,0,2.4,0.1c0.7,0,1.4,0.1,2.1,0.1c0,0,0,0,0,0c0.1,0,0.2,0,0.3,0c0,0.1,0,0.2,0,0.4
					c0,0.1,0,0.2,0,0.3c0,0.5,0,1,0,1.5c0,0.3,0,0.5,0,0.8v0.7c0,0.5,0,0.9,0,1.4c0,0.3-0.1,0.6-0.2,0.9c-0.1,0.3-0.2,0.5-0.3,0.8
					c-1.4,0-2.8,0.1-4.2,0.1C31.8,56.6,31.3,56.5,30.8,56.5z M31.7,75.9c0-0.1,0-0.2,0-0.2c0-0.3,0-0.8,0-1.2c0-0.4,0-0.8,0-1.1
					c0,0,0-0.1,0-0.1c0-0.5,0.1-0.9,0.1-1.4c0-0.3,0.1-0.5,0.1-0.8c0-0.4,0-0.9,0-1.3c0-0.1,0-0.3,0-0.4c0-0.3,0-0.6,0-0.9
					c0.7,0.1,1.4,0.1,2.1,0.1c0.3,0,0.6,0,0.9,0c0.4,0,0.8,0,1.3,0.1c0.2,0,0.3,0,0.5,0c0,0.3-0.1,0.5-0.1,0.8
					c-0.1,0.3-0.1,0.5-0.1,0.8c0,0.8,0,1.5,0,2.3c0,0.3,0,0.7,0,1.1c0,0.4,0,0.7,0,1.1c0,0.5,0,1,0,1.4c0,0.1,0,0.1,0,0.2
					c-0.4-0.2-0.9,0-1.1,0c-0.3,0.1-0.4,0.1-0.6,0c-0.1,0-0.3-0.1-0.6,0c-0.2,0-0.8,0-1,0c-0.4,0-0.9-0.1-1.6-0.3
					C31.7,76.1,31.7,76,31.7,75.9z M29.8,79.2c0.1,0.3,0.1,0.8,0.1,1c-0.1,0-0.2,0-0.3,0c-0.4,0.1-0.7,0.1-1.1,0.1
					c-0.3,0-0.6,0-0.9,0c-0.6,0-1.2,0-1.8-0.2c0.1-1.3,0.1-2.5,0.1-3.8c0-0.4,0-0.8,0-1.2c0.1-0.4,0-0.8,0-1.2c0-0.3-0.1-0.6,0-0.7
					c0,0,0.1,0,0.1,0c0.3,0,0.6,0,0.8-0.1c0.4,0,0.7-0.1,1.2,0c0.5,0.1,1.4,0.2,2.1,0.1c0.6-0.1,1.2,0.1,1.4,0.2c0,0.3,0,0.7,0,1.1
					c0,0.5,0,0.9,0,1.2c0,0.1,0,0.2,0,0.2c0,0.1,0,0.2,0,0.2c-0.5,0-1,0-1.3,0.1c-0.2,0.1-0.2,0.2-0.3,1.1c0,0.1,0,0.1,0,0.1
					C29.6,77.9,29.7,78.6,29.8,79.2z M30.1,77.6c0,0,0-0.1,0-0.1c0-0.5,0.1-0.7,0.1-0.8c0.3-0.1,0.9-0.1,1.2-0.1c0.1,0,0.1,0,0.1,0
					c0.8,0.2,1.4,0.3,1.8,0.3c0.2,0,0.8,0,1,0c0.3,0,0.4,0,0.5,0c0.2,0,0.4,0.1,0.8-0.1c0.6-0.2,0.9-0.1,1,0.1c0,0.1,0,0.3,0,0.4
					c0,0.3,0,0.5,0,0.8c0,0.1,0,0.2,0,0.2c0,0.1,0,0.1,0,0.2c0,0.1,0,0.1,0,0.2c0,0,0,0.1-0.1,0.1c-0.1,0.4-0.1,0.8-0.1,1.2
					c0,0.1,0,0.2,0,0.3c0,0.2,0,0.3,0,0.5c0,0.2,0,0.5,0,0.7c0,0.1,0,0.2,0,0.3c0,0.3,0,0.8-0.2,1c-2.4-0.1-4.3-0.1-5.6-0.1
					c0,0,0,0,0-0.1c0-0.1,0-0.2,0-0.3c0-0.1,0-0.2,0.1-0.4c0-0.3,0-0.5,0-0.9c0-0.2-0.1-0.3-0.1-0.5c0-0.1-0.1-0.2-0.1-0.3
					c0,0,0,0,0-0.1c0-0.2,0-0.5-0.1-1.1C30.1,78.6,30,77.9,30.1,77.6z M38.2,84.5c0,0.3,0,0.5,0,0.8c0,0.1,0,0.2,0,0.3
					c0,0.2,0,0.4,0,0.5c0,0.1,0,0.1,0,0.1c-0.1,0-0.4,0-0.5,0c-0.1,0-0.2,0-0.3,0c-0.4,0-0.8,0.1-1.2,0.1c-0.8,0-1.5,0.1-2.3,0.4
					c-0.5,0.1-0.9,0.2-1.4,0.2c-0.5,0-1,0-1.6-0.1c-0.1,0-0.3,0-0.4,0c-0.2,0-0.5,0-0.7-0.1c0-0.2,0-0.4,0.1-0.5
					c0-0.2,0.1-0.4,0.1-0.6c0-0.2,0-0.4,0.1-0.6c0.1-0.5,0.2-0.9,0.3-1.4c0-0.2,0.1-0.3,0.1-0.5c1.5,0,3.8,0,7,0.1l0.8,0
					C38.2,83.7,38.2,84.1,38.2,84.5z"/>
				<path class="st0" d="M54.5,40c0.1,1.1,0.4,2.2,0.7,3.3c0.2,0.7,0.4,1.5,0.5,2.2c0.1,0.5,0.2,1,0.4,1.5c0.1,0,0.3,0,0.4-0.1
					c-0.3-0.4-0.4-1-0.5-1.5c-0.1-0.8-0.3-1.5-0.5-2.2c-0.3-1-0.5-2.1-0.6-3.2c-0.1-0.9-0.1-1.8-0.2-2.7c0.1,0,0.3-0.1,0.4-0.1
					c0.1,0,0.3-0.1,0.4-0.1c0.3,0,0.6,0,0.9,0c0.3,0,0.6,0,0.9,0c0.3,1.9,0.6,3.7,0.9,5.5c0.1,0.5,0.2,1,0.3,1.4
					c0.2,0.6,0.3,1.3,0.4,2c0.1,0.3,0.1,0.5,0.2,0.8c0.1,0,0.3,0,0.4,0c-0.1-0.3-0.2-0.6-0.3-0.9c-0.1-0.7-0.3-1.4-0.4-2
					c-0.1-0.5-0.2-0.9-0.3-1.4c-0.5-2.6-0.9-5.2-1.3-7.9l0-0.2c-0.1-0.5-0.1-1.1,0-1.5c-0.1,0-0.2,0-0.4,0c-0.2,0.5-0.1,1.1,0,1.6
					l0,0.2c0.1,0.7,0.2,1.4,0.3,2.1c-0.3,0-0.6,0-0.9,0c-0.3,0-0.6,0-0.9,0c-0.1,0-0.3,0.1-0.4,0.1c-0.1,0-0.2,0.1-0.3,0.1
					c-0.1-1.3-0.1-2.6-0.4-3.8c-0.1,0-0.2,0-0.3,0c0.3,1.3,0.3,2.7,0.4,4.1C54.3,38.1,54.3,39.1,54.5,40z"/>
				<path class="st0" d="M63,45.8c0.1-0.5,0.3-0.9,0.3-1.4c0.2-1.3,0.3-2.7,0.4-4c0.1-0.7,0.1-1.4,0.2-2.2c0-0.4,0.1-0.8,0.2-1.3
					c0.2-1.4,0.4-2.9,0.1-4.3c-0.1,0-0.2,0-0.4,0c0.3,1.3,0.1,2.9-0.1,4.3c-0.1,0.4-0.1,0.9-0.2,1.3c-0.1,0.7-0.2,1.4-0.2,2.2
					c-0.1,1.3-0.3,2.6-0.4,4c-0.1,0.5-0.2,0.9-0.3,1.4c-0.1,0.3-0.2,0.6-0.2,0.9c0.1,0,0.2,0,0.4,0C62.9,46.4,62.9,46.1,63,45.8z"/>
				<path class="st0" d="M50.3,37.8l0,0.1c0.2,0.8,0.4,1.6,0.8,2.4c0.4,0.9,0.8,1.9,1.1,2.9c0.2,0.7,0.5,1.4,0.7,2.1l0.1,0.2
					c0.2,0.6,0.5,1.2,0.6,1.8c0.1,0,0.2,0,0.3-0.1c-0.1-0.6-0.4-1.3-0.6-1.9l-0.1-0.2c-0.3-0.7-0.5-1.4-0.7-2.1
					c-0.3-1-0.7-2-1.1-2.9c-0.3-0.8-0.5-1.5-0.7-2.3l0-0.1c-0.1-0.5-0.3-1-0.4-1.5c-0.2-0.7-0.5-1.5-0.6-2.3c-0.1,0-0.2,0.1-0.3,0.1
					c0.1,0.8,0.4,1.6,0.6,2.3C50,36.8,50.2,37.3,50.3,37.8z"/>
				<path class="st0" d="M66.6,43.9c1,0.2,2.2,0.5,3.2,0.9c0.1,0,0.2,0.1,0.2,0.1c0.1,0.1,0.2,0.1,0.3,0.2c-0.1,0.3-0.1,0.6-0.2,0.9
					c-0.1,0.7-0.3,1.2-0.5,1.5c0.1,0,0.2,0,0.4,0.1c0.2-0.3,0.3-0.8,0.5-1.6c0.3-1.6,0.8-3.1,1.4-4.7l0.1-0.4
					c0.3-0.8,0.5-1.5,0.7-2.3c0.1-0.2,0.1-0.4,0.2-0.6c0.1-0.4,0.3-0.8,0.4-1.2c0.3-0.8,0.6-1.7,0.7-2.6c-0.1,0-0.2-0.1-0.3-0.1
					c-0.1,0.8-0.4,1.7-0.7,2.5c-0.1,0.4-0.3,0.8-0.4,1.2c-0.1,0.2-0.1,0.4-0.2,0.6c-0.2,0.7-0.5,1.5-0.7,2.3l-0.1,0.4
					c-0.4,1.2-0.8,2.4-1.1,3.6c-0.1,0-0.1-0.1-0.2-0.1c-0.1-0.1-0.2-0.1-0.3-0.1c-1-0.4-2.2-0.7-3.2-0.9c0-0.2,0.1-0.3,0.1-0.5
					c0.1-0.5,0.3-1,0.5-1.5c0.3-0.9,0.6-1.7,0.7-2.6c0.1-0.8,0.4-1.6,0.6-2.4c0.1-0.2,0.1-0.4,0.2-0.6c0.1-0.3,0.3-0.6,0.4-1
					c0.3-0.5,0.5-1.1,0.6-1.7c-0.1,0-0.2,0-0.3-0.1c-0.1,0.5-0.3,1-0.6,1.6c-0.2,0.3-0.3,0.7-0.4,1c-0.1,0.2-0.1,0.4-0.2,0.6
					c-0.3,0.8-0.6,1.6-0.7,2.5c-0.1,0.9-0.4,1.7-0.7,2.5c-0.2,0.5-0.4,1-0.5,1.5c-0.4,1.3-0.6,2.8-0.8,3.9c0.1,0,0.2,0,0.3,0
					C66.1,46,66.3,44.9,66.6,43.9z"/>
				<path class="st0" d="M44,46.9c0.2,0.4,0.3,0.7,0.5,0.9c0.2,0.2,0.3,0.5,0.4,0.7c0,0.1,0.1,0.2,0.1,0.3c0.1,0.3,0.2,0.7,0.5,0.9
					c0.1-0.1,0.2-0.1,0.4-0.2c-0.2-0.2-0.4-0.6-0.5-0.9c0-0.1-0.1-0.3-0.1-0.4c-0.1-0.3-0.3-0.5-0.4-0.8c-0.2-0.3-0.3-0.5-0.5-0.9
					c0.1-0.2,0.2-0.3,0.4-0.4c0,0,0.1-0.1,0.1-0.1l0,0c0.8-0.6,1.7-1.2,2.6-1.5c0.2,0.4,0.4,0.8,0.6,1.2c0.1,0.2,0.2,0.4,0.3,0.6
					c0.1,0.2,0.2,0.5,0.2,0.8c0.1,0.4,0.2,0.8,0.4,1.1c0.1,0,0.2-0.1,0.4-0.1c-0.2-0.3-0.4-0.8-0.5-1.1c-0.1-0.3-0.1-0.6-0.3-0.8
					c-0.1-0.2-0.2-0.4-0.3-0.6c-0.3-0.6-0.6-1.2-1-1.8c-1-1.9-1.8-3.9-2.6-5.9c-0.3-0.8-0.6-1.6-0.9-2.4c-0.1,0-0.2,0.1-0.3,0.1
					c0.3,0.8,0.6,1.6,0.9,2.4c0.8,2,1.5,4,2.6,5.9c0.1,0.1,0.1,0.2,0.2,0.3c-1,0.3-1.9,1-2.7,1.5l0,0c0,0-0.1,0.1-0.1,0.1
					c-0.1,0.1-0.3,0.2-0.4,0.3c-0.2-0.5-0.4-1-0.5-1.5c-0.4-1.3-0.9-2.6-1.8-3.7v0.5c0.7,0.9,1,2.1,1.4,3.3
					C43.5,45.7,43.7,46.3,44,46.9z"/>
				<path class="st0" d="M73.8,48.5c0.4-1,1-2.1,1.5-3.1c0.7-1.3,1.4-2.7,1.9-4.2c0,0,0-0.1,0-0.1c1,0.4,2.1,0.8,2.7,1.5
					c0.1,0.1,0.1,0.1,0.1,0.2c0.1,0.1,0.2,0.3,0.3,0.4c0,0,0,0.1-0.1,0.1l-0.1,0.1c-0.4,0.6-0.8,1.1-0.9,1.9
					c-0.3,1.1-0.8,2.1-1.3,3.2c-0.2,0.4-0.5,0.9-0.7,1.4c0.1,0,0.2,0.1,0.3,0.1c0.2-0.4,0.5-0.9,0.7-1.3c0.5-1,1.1-2.1,1.3-3.3
					c0.2-0.7,0.5-1.1,0.9-1.8l0.1-0.1c0-0.1,0.1-0.1,0.1-0.2c0-0.1,0.1-0.1,0.2-0.2v-0.6c-0.2,0.2-0.3,0.3-0.3,0.4
					c-0.1-0.1-0.1-0.2-0.2-0.2c-0.1-0.1-0.1-0.2-0.2-0.3c-0.6-0.9-1.7-1.3-2.8-1.7c0.2-0.5,0.4-1,0.6-1.4c0.3-0.6,0.5-1.3,0.8-1.9
					c0.1-0.2,0.1-0.4,0.2-0.6c0.1-0.3,0.2-0.6,0.3-1c-0.1,0-0.2-0.1-0.3-0.1c-0.1,0.3-0.2,0.7-0.3,1c-0.1,0.2-0.1,0.4-0.2,0.6
					c-0.2,0.6-0.5,1.3-0.8,1.9c-0.3,0.6-0.5,1.3-0.8,1.9c-0.5,1.5-1.2,2.8-1.9,4.1c-0.5,1-1.1,2.1-1.5,3.1
					C73.5,48.5,73.6,48.5,73.8,48.5z"/>
			</g>
			<g>
				<g>
					<path class="st0" d="M48.9,105.6v-0.1c0.1,0,0.3,0,0.4,0c0.1,0,0.2,0,0.2-0.1c0.1,0,0.1-0.1,0.1-0.2c0-0.1,0-0.2,0-0.4v-8.1
						c0-0.1,0-0.2-0.1-0.3c-0.1-0.1-0.2-0.1-0.3-0.1l-1.4,0.5l-0.1-0.1l2.5-1.6l0.5,0l0,9.7c0,0.2,0,0.3,0,0.4
						c0,0.1,0.1,0.1,0.1,0.2c0.1,0,0.1,0.1,0.2,0.1c0.1,0,0.2,0,0.4,0v0.1H48.9z"/>
					<path class="st0" d="M54.6,99.8c-0.2-0.2-0.5-0.4-0.6-0.6c-0.2-0.2-0.3-0.5-0.4-0.7c-0.1-0.3-0.2-0.6-0.2-0.9
						c0-0.4,0.1-0.7,0.2-1c0.1-0.3,0.4-0.5,0.6-0.8c0.3-0.3,0.7-0.4,1-0.5c0.4-0.1,0.8-0.2,1.1-0.2c0.3,0,0.7,0,1,0.1
						c0.3,0.1,0.6,0.2,0.9,0.4c0.3,0.2,0.5,0.4,0.6,0.7c0.2,0.3,0.2,0.6,0.2,1c0,0.3-0.1,0.6-0.2,0.8c-0.1,0.3-0.3,0.5-0.5,0.7
						c-0.2,0.2-0.4,0.4-0.7,0.6c-0.3,0.2-0.5,0.3-0.7,0.4c0.3,0.2,0.6,0.3,0.9,0.5c0.3,0.2,0.6,0.4,0.8,0.7c0.2,0.2,0.4,0.5,0.5,0.8
						c0.1,0.3,0.2,0.7,0.2,1.1c0,0.5-0.1,0.9-0.3,1.2c-0.2,0.3-0.4,0.6-0.7,0.8c-0.3,0.2-0.6,0.4-1,0.5c-0.4,0.1-0.8,0.1-1.2,0.1
						c-0.4,0-0.8-0.1-1.2-0.2c-0.4-0.1-0.7-0.3-1-0.5c-0.3-0.2-0.5-0.5-0.7-0.8c-0.2-0.3-0.3-0.7-0.3-1.2c0-0.4,0.1-0.7,0.2-1
						c0.1-0.3,0.3-0.5,0.5-0.8c0.2-0.2,0.4-0.4,0.7-0.6c0.3-0.2,0.5-0.3,0.9-0.5C55.1,100.2,54.9,100,54.6,99.8z M55.4,101.1
						c-0.2,0.1-0.4,0.3-0.6,0.5c-0.2,0.2-0.3,0.4-0.4,0.7c-0.1,0.3-0.1,0.5-0.1,0.8c0,0.4,0.1,0.8,0.3,1.1c0.2,0.3,0.5,0.5,0.8,0.7
						c0.3,0.2,0.7,0.2,1,0.2c0.4,0,0.7,0,1-0.2c0.3-0.1,0.6-0.3,0.8-0.6c0.2-0.3,0.3-0.6,0.3-1c0-0.7-0.3-1.2-0.8-1.6
						c-0.5-0.4-1.1-0.8-1.7-1.1C55.8,100.8,55.6,100.9,55.4,101.1z M57.8,98.6c0.3-0.4,0.4-0.9,0.4-1.3c0-0.4-0.2-0.8-0.5-1.1
						c-0.3-0.3-0.8-0.5-1.4-0.5c-0.2,0-0.5,0-0.7,0.1c-0.2,0.1-0.4,0.2-0.6,0.3c-0.2,0.1-0.3,0.3-0.4,0.5c-0.1,0.2-0.2,0.4-0.2,0.7
						c0,0.3,0.1,0.5,0.2,0.8c0.1,0.2,0.3,0.5,0.5,0.7c0.2,0.2,0.4,0.4,0.7,0.5c0.2,0.2,0.5,0.3,0.7,0.4
						C57.1,99.4,57.5,99.1,57.8,98.6z"/>
					<path class="st0" d="M61.3,105.4c0.1,0.1,0.2,0.1,0.4,0.1c0.2,0,0.3,0,0.4,0c0.3,0,0.6-0.1,0.9-0.2c0.3-0.1,0.6-0.3,0.9-0.5
						c0.3-0.2,0.5-0.4,0.8-0.7c0.2-0.2,0.4-0.5,0.6-0.7c0.3-0.4,0.5-0.9,0.6-1.3c0.2-0.5,0.3-0.9,0.3-1.4c-0.3,0.4-0.6,0.6-1,0.8
						c-0.4,0.2-0.9,0.3-1.3,0.3c-0.5,0-1-0.1-1.3-0.2c-0.4-0.2-0.7-0.4-1-0.7c-0.3-0.3-0.5-0.6-0.6-1c-0.1-0.4-0.2-0.8-0.2-1.3
						c0-0.5,0.1-1,0.2-1.4c0.2-0.4,0.4-0.8,0.7-1.1c0.3-0.3,0.6-0.5,1-0.7c0.4-0.2,0.9-0.3,1.4-0.3c0.7,0,1.2,0.1,1.7,0.4
						c0.4,0.3,0.8,0.7,1,1.1c0.3,0.5,0.4,1,0.5,1.5c0.1,0.6,0.2,1.1,0.2,1.7c0,0.8-0.1,1.6-0.4,2.3c-0.2,0.7-0.6,1.4-1.2,2
						c-0.6,0.7-1.4,1.1-2.2,1.4c-0.8,0.3-1.7,0.3-2.6,0.2L61.3,105.4z M66.1,97.4c-0.2-0.5-0.5-0.9-0.8-1.2
						c-0.3-0.3-0.7-0.5-1.1-0.5c-0.4-0.1-0.7,0-1.1,0.2c-0.3,0.2-0.6,0.5-0.8,0.9c-0.2,0.4-0.3,0.9-0.3,1.6c0,0.6,0.1,1.2,0.3,1.6
						c0.2,0.4,0.5,0.7,0.8,0.9c0.3,0.2,0.6,0.3,1,0.3c0.4,0,0.7-0.1,1-0.2c0.3-0.1,0.6-0.3,0.8-0.6c0.2-0.3,0.3-0.5,0.4-0.9
						C66.4,98.6,66.3,98,66.1,97.4z"/>
					<path class="st0" d="M74.9,105.6h-6.1v-0.5l3.3-3.6c0.2-0.2,0.4-0.4,0.5-0.7c0.2-0.3,0.3-0.6,0.5-0.9c0.1-0.3,0.3-0.6,0.4-0.9
						c0.1-0.3,0.1-0.6,0.1-0.9c0-0.6-0.2-1.1-0.6-1.5c-0.4-0.4-0.9-0.6-1.5-0.6c-0.4,0-0.6,0-0.9,0.1c-0.2,0-0.4,0.1-0.6,0.2
						c-0.2,0.1-0.3,0.2-0.5,0.4c-0.2,0.1-0.4,0.3-0.6,0.6L69,97.2c0.1-0.2,0.3-0.5,0.4-0.8c0.2-0.3,0.4-0.5,0.6-0.7
						c0.3-0.2,0.6-0.4,1-0.5c0.4-0.1,0.7-0.2,1.1-0.1c0.4,0,0.7,0.1,1,0.2c0.3,0.1,0.6,0.3,0.9,0.5c0.3,0.2,0.5,0.5,0.6,0.8
						c0.2,0.3,0.2,0.7,0.2,1.1c0,0.4-0.1,0.7-0.2,1c-0.1,0.3-0.2,0.7-0.4,1c-0.2,0.3-0.4,0.6-0.6,0.9c-0.2,0.3-0.5,0.6-0.7,0.8
						l-2.8,3h4.4c0.2,0,0.3-0.1,0.4-0.2c0.1-0.1,0.2-0.2,0.3-0.4l0.1,0.1L74.9,105.6z"/>
				</g>
			</g>
		</g>
	</g>
	<g>
		<g>
			<path class="st2" d="M177,67.6h-7.5l-4.1-20.4c-1-4.7-1.7-8.9-2.1-12.2c-0.5,3.4-1.2,7.5-2.1,12.2L157,67.6h-7.3l-7.8-48.5h8.2
				l2.4,18.1c0.5,3.5,1.2,10.4,1.5,13.7c0.4-3.3,1.6-10.2,2.3-13.7l3.5-18.1h7.1l3.5,18.1c0.7,3.5,1.9,10.4,2.4,13.7
				c0.3-3.3,1-10.2,1.5-13.7l2.4-18.1h8.1L177,67.6z"/>
			<path class="st2" d="M189.2,67.6V19.1h8.7v48.5H189.2z"/>
			<path class="st2" d="M225.3,67.6L216.4,46c-1.2-3-2.8-7-3.7-9.8c0.1,3,0.1,8,0.1,11v20.4H205V19.1h8.7l8.5,21.3
				c1.2,2.9,2.9,7.4,3.8,10.1c-0.1-3-0.3-8.2-0.3-11.3V19.1h7.9v48.5H225.3z"/>
			<path class="st2" d="M252.1,68.4c-6.6,0-11.2-3.5-14.5-7.6l5.9-6.3c2.9,3.7,6,5.5,8.9,5.5c3.6,0,5.4-2,5.4-5.3
				c0-2.8-1.7-5-7.4-7.9c-7.2-3.7-11.6-7.4-11.6-15.4c0-7.3,5.4-13,13.6-13c6,0,9.8,2.4,13.2,6.9l-5.8,5.8c-2.8-3.2-4.4-4.3-7.7-4.3
				c-2.8,0-4.6,1.8-4.6,4.2c0,2.9,1.7,4.7,6.9,7.6c8.4,4.5,12.1,7.8,12.1,16C266.6,62.5,261.1,68.4,252.1,68.4z"/>
			<path class="st2" d="M287.7,27.4v40.2H279V27.4h-10v-8.3h28.8v8.3H287.7z"/>
			<path class="st2" d="M314.3,68.4c-11.3,0-16.1-11-16.1-24.9c0-14,4.9-25.1,16.2-25.1c11.2,0,16,11,16,24.9
				C330.4,57.3,325.5,68.4,314.3,68.4z M314.3,27c-5.2,0-7.2,6-7.2,16.3c0,10.3,2.1,16.4,7.3,16.4c5.1,0,7.1-6,7.1-16.3
				C321.5,33.1,319.4,27,314.3,27z"/>
			<path class="st2" d="M356.2,67.6L347.3,46c-1.2-3-2.8-7-3.7-9.8c0.1,3,0.1,8,0.1,11v20.4h-7.9V19.1h8.7l8.5,21.3
				c1.2,2.9,2.9,7.4,3.8,10.1c-0.1-3-0.3-8.2-0.3-11.3V19.1h7.9v48.5H356.2z"/>
			<path class="st2" d="M369.9,46.7v-8.5H384v8.5H369.9z"/>
			<path class="st2" d="M401.3,68.4c-6.6,0-11.2-3.5-14.5-7.6l5.9-6.3c2.9,3.7,6,5.5,8.9,5.5c3.6,0,5.4-2,5.4-5.3
				c0-2.8-1.7-5-7.4-7.9c-7.2-3.7-11.6-7.4-11.6-15.4c0-7.3,5.4-13,13.6-13c6,0,9.8,2.4,13.2,6.9l-5.8,5.8c-2.8-3.2-4.4-4.3-7.7-4.3
				c-2.8,0-4.6,1.8-4.6,4.2c0,2.9,1.7,4.7,6.9,7.6c8.4,4.5,12.1,7.8,12.1,16C415.9,62.5,410.3,68.4,401.3,68.4z"/>
			<path class="st2" d="M441.7,67.6l-2.3-10.1h-10.9l-2.3,10.1h-8.9l12.4-48.5h8.5l12.4,48.5H441.7z M436.2,43.6
				c-0.8-3.7-1.9-9.4-2.3-11.8c-0.3,2.5-1.3,7.7-2.2,11.6l-1.3,5.9h7.1L436.2,43.6z"/>
			<path class="st2" d="M454.7,67.6V19.1h8.7v40h15.2v8.5H454.7z"/>
			<path class="st2" d="M482.8,67.6V19.1h24.9v8.3h-16.2v10.3h10.9v8.2h-10.9v13.4h16.8v8.3H482.8z"/>
			<path class="st2" d="M540.8,67.6V51.9c0-5.8,0.1-11.1,0.1-14.7c-1,3.5-2.6,8.9-4.4,14.4L531,68.8l-5.6-17.2
				c-1.8-5.5-3.4-10.9-4.4-14.4c0.1,3.6,0.1,8.9,0.1,14.7v15.7h-7.8V19.1h8.7l5.8,17.9c1.5,4.5,2.8,8.7,3.3,10.9
				c0.5-2.4,1.9-6.7,3.3-10.9l5.8-17.9h8.6v48.5H540.8z"/>
		</g>
	</g>
	<g>
		<g>
			<path class="st8" d="M142.1,103.5c2.4,2.4,5.1,3.4,9.1,3.4c4.9,0,8-2.5,8-6.3c0-1.5-0.6-2.8-1.6-3.6c-1.1-1-1.7-1.2-6-2.8
				c-2.7-1-4.2-1.6-5.5-2.5c-2.1-1.3-3.1-3.1-3.1-5.4c0-5.2,4-8.3,11-8.3c2,0,3.6,0.2,6,0.6l0.5,4.1c-2.4-1.5-4.6-2.2-7.2-2.2
				c-4,0-6.6,1.9-6.6,4.9c0,1,0.5,2.1,1.1,2.8c1.1,1.1,2.4,1.8,6.1,3.1c4,1.4,5.2,2,6.6,3.2c1.6,1.4,2.5,3.3,2.5,5.6
				c0,5.8-4.7,9.4-12.5,9.4c-2.2,0-4.4-0.3-7.1-0.9l-0.5-0.1L142.1,103.5z"/>
			<path class="st8" d="M176.1,105.4V81h-5.7c-2.2,0-3,0.3-4.1,1.8l0.6-4.3h22l0.6,4.3c-1.2-1.5-2-1.8-4.2-1.8h-5.7v24.4
				c0,1.9,0.4,2.7,1.6,3.5h-6.7C175.8,108.1,176.1,107.3,176.1,105.4z"/>
			<path class="st8" d="M190.5,106.6L200.6,82c0.4-1,0.6-1.6,0.6-2.1s-0.2-0.9-0.7-1.4h4.6l11.1,26.8c0.3,0.7,0.5,1.3,0.9,1.8
				c0.5,0.7,0.7,1,1.7,1.8H212c0.6-0.6,0.8-1,0.8-1.6c0-0.4-0.1-0.9-0.5-1.8l-3.5-8.6h-11.5l-3.6,9.1c-0.2,0.6-0.3,1-0.3,1.4
				c0,0.6,0.2,1,0.8,1.5h-5.7C189.7,108.1,190.1,107.6,190.5,106.6z M207.9,94.4l-4.7-11.8l-4.7,11.8H207.9z"/>
			<path class="st8" d="M227.6,105.4V81h-5.7c-2.2,0-3,0.3-4.1,1.8l0.6-4.3h22l0.6,4.3c-1.2-1.5-2-1.8-4.2-1.8h-5.7v24.4
				c0,1.9,0.4,2.7,1.6,3.5H226C227.3,108.1,227.6,107.3,227.6,105.4z"/>
			<path class="st8" d="M260.2,106.4c3.6,0,4.7-0.3,6.5-1.7l0.3-0.2l-1.4,4.4h-19.4c1.2-0.7,1.6-1.6,1.6-3.5V82
				c0-1.9-0.4-2.7-1.6-3.5h18.2l0.6,3.9l-0.2-0.1c-1.4-1-2.1-1.2-4.3-1.2h-9.2v9.7h9.2c1.6,0,1.9,0,2.4-0.3l0.3,3.8
				c-0.7-0.5-1-0.7-1.4-0.9c-0.5-0.1-1.2-0.2-2.6-0.2h-7.9v13.1H260.2z"/>
			<path class="st8" d="M293.7,78.5c-1.2,0.8-1.6,1.6-1.6,3.5v14.7c0,3.6,0.3,5.1,1.4,6.8c1.5,2.2,4.2,3.6,7.5,3.6
				c5.3,0,8.7-3.2,8.7-8.5l0-2V82c0-1.9-0.4-2.7-1.6-3.5h5.8c-1.2,0.8-1.6,1.6-1.6,3.5v14.9c0,3.1-0.2,4.4-0.8,6.1
				c-1.6,4-5.6,6.4-10.7,6.4c-4,0-7.2-1.2-9.4-3.6c-2-2.1-2.6-4.3-2.6-9.2V82c0-1.9-0.4-2.7-1.6-3.5H293.7z"/>
			<path class="st8" d="M321.9,105.4V82.2c0-1.9-0.5-3-1.6-3.7h4.6l17.9,22.4V82c0-1.9-0.4-2.7-1.6-3.5h5.7
				c-1.2,0.8-1.6,1.6-1.6,3.5v27.4l-21-26.2v22.2c0,1.9,0.4,2.7,1.6,3.5h-5.7C321.5,108.1,321.9,107.3,321.9,105.4z"/>
			<path class="st8" d="M355.2,105.4V82c0-1.9-0.4-2.7-1.6-3.5h6.6c-1.2,0.8-1.6,1.6-1.6,3.5v23.4c0,1.9,0.4,2.7,1.6,3.5h-6.6
				C354.7,108.1,355.2,107.3,355.2,105.4z"/>
			<path class="st8" d="M368.8,83.4l-0.5-1.2c-0.8-1.8-1.5-2.6-2.8-3.7h6.9c-0.7,0.5-0.8,0.8-0.8,1.5c0,0.5,0.3,1.5,0.8,2.6
				l8.7,19.9l9.1-20.3c0.5-1.1,0.7-1.9,0.7-2.3c0-0.5-0.2-0.9-0.7-1.3h5.7c-1,0.8-1.4,1.1-1.8,1.7c-0.2,0.3-0.4,0.6-0.5,1
				c-0.1,0.2-0.3,0.5-0.5,1c-0.2,0.5-0.4,0.8-0.5,1l-12,26.3L368.8,83.4z"/>
			<path class="st8" d="M415,106.4c3.6,0,4.7-0.3,6.5-1.7l0.3-0.2l-1.4,4.4H401c1.2-0.7,1.6-1.6,1.6-3.5V82c0-1.9-0.4-2.7-1.6-3.5
				h18.2l0.6,3.9l-0.2-0.1c-1.4-1-2.1-1.2-4.3-1.2h-9.2v9.7h9.2c1.6,0,1.9,0,2.4-0.3l0.3,3.8c-0.7-0.5-1-0.7-1.4-0.9
				c-0.5-0.1-1.2-0.2-2.6-0.2h-7.9v13.1H415z"/>
			<path class="st8" d="M428.6,105.4V82c0-1.9-0.4-2.7-1.6-3.5h6.8c0.5,0,1.3,0,2.3,0c3.4,0,4.4,0.1,6,0.6c2.8,0.8,4.6,3.4,4.6,6.5
				c0,4-2.4,6.3-7.4,7.2c0.9,0.6,1.2,0.8,1.6,1.1c0.4,0.3,0.7,0.6,1.1,1.1c0.5,0.6,0.8,1,1.6,2.2l5.5,7.7c0.1,0.2,0.3,0.4,0.5,0.7
				c0.7,1,1.1,1.4,1.7,1.8c0.6,0.5,0.9,0.6,2.4,1.3h-6.3l-7.7-11.2c-1.2-1.8-2.2-2.8-3.3-3.4c-1.2-0.7-2.1-0.9-4.3-0.9v12.1
				c0,1.9,0.4,2.7,1.6,3.5H427C428.2,108.1,428.6,107.3,428.6,105.4z M435,91.1c1.5,0,2.4-0.1,3.4-0.3c2.5-0.5,4.1-2.5,4.1-5.1
				c0-1.5-0.6-2.8-1.6-3.6c-1.3-1-2.9-1.3-6.4-1.3c-0.7,0-1.3,0-2.6,0v10C433.5,91.1,434.1,91.1,435,91.1z"/>
			<path class="st8" d="M456.1,103.5c2.4,2.4,5.1,3.4,9.1,3.4c4.9,0,8-2.5,8-6.3c0-1.5-0.6-2.8-1.6-3.6c-1.1-1-1.7-1.2-6-2.8
				c-2.7-1-4.2-1.6-5.5-2.5c-2.1-1.3-3.1-3.1-3.1-5.4c0-5.2,4-8.3,11-8.3c2,0,3.6,0.2,6,0.6l0.5,4.1c-2.4-1.5-4.6-2.2-7.2-2.2
				c-4,0-6.6,1.9-6.6,4.9c0,1,0.5,2.1,1.1,2.8c1.1,1.1,2.4,1.8,6.1,3.1c4,1.4,5.2,2,6.6,3.2c1.6,1.4,2.5,3.3,2.5,5.6
				c0,5.8-4.7,9.4-12.5,9.4c-2.2,0-4.4-0.3-7.1-0.9l-0.5-0.1L456.1,103.5z"/>
			<path class="st8" d="M484.4,105.4V82c0-1.9-0.4-2.7-1.6-3.5h6.6c-1.2,0.8-1.6,1.6-1.6,3.5v23.4c0,1.9,0.4,2.7,1.6,3.5h-6.6
				C484,108.1,484.4,107.3,484.4,105.4z"/>
			<path class="st8" d="M505.4,105.4V81h-5.7c-2.2,0-3,0.3-4.1,1.8l0.6-4.3h22l0.6,4.3c-1.2-1.5-2-1.8-4.2-1.8h-5.7v24.4
				c0,1.9,0.4,2.7,1.6,3.5h-6.7C505,108.1,505.4,107.3,505.4,105.4z"/>
			<path class="st8" d="M532.9,108.9c1.2-0.7,1.6-1.6,1.6-3.5V94.3l-7.2-11.8c-0.6-1.1-1-1.5-1.4-2.1c-0.6-0.8-1-1.2-2-1.8l-0.2-0.2
				h7c-0.4,0.5-0.5,0.9-0.5,1.3c0,0.5,0.2,1,0.7,1.8l5.9,9.8l5.9-10c0.4-0.6,0.6-1.2,0.6-1.6c0-0.4-0.1-0.7-0.6-1.3h6
				c-1.5,1-1.9,1.5-4,4.9l-6.7,11v11.1c0,1.9,0.4,2.7,1.6,3.5H532.9z"/>
		</g>
	</g>
</g>
</svg>
