<svg width="138" height="30" viewBox="0 0 138 30" fill="none" xmlns="http://www.w3.org/2000/svg">
<g id="Layer_1" clip-path="url(#clip0_0_1)">
<path id="Vector" d="M42.52 14.9901L44.53 2.56006H42.45L41.85 7.20006C41.73 8.11006 41.55 9.86006 41.46 10.7201C41.35 9.87006 41.03 8.11006 40.86 7.20006L39.95 2.56006H38.12L37.21 7.20006C37.03 8.11006 36.73 9.86006 36.62 10.7201C36.53 9.87006 36.35 8.11006 36.23 7.20006L35.63 2.56006H33.53L35.54 14.9901H37.4L38.45 9.77006C38.7 8.56006 38.88 7.51006 39 6.64006C39.12 7.49006 39.3 8.56006 39.55 9.77006L40.6 14.9901H42.52Z" fill="white" style="fill:white;fill-opacity:1;"/>
<path id="Vector_2" d="M47.88 2.56006H45.66V14.9901H47.88V2.56006Z" fill="white" style="fill:white;fill-opacity:1;"/>
<path id="Vector_3" d="M51.72 9.75006C51.72 8.97006 51.7 7.69006 51.68 6.93006C51.91 7.66006 52.3 8.67006 52.62 9.45006L54.91 14.9901H57.04V2.56006H55.01V7.71006C55.01 8.49006 55.06 9.84006 55.08 10.6101C54.85 9.92006 54.41 8.76006 54.1 8.02006L51.92 2.57006H49.68V15.0001H51.71V9.76006L51.72 9.75006Z" fill="white" style="fill:white;fill-opacity:1;"/>
<path id="Vector_4" d="M61.86 13.03C61.11 13.03 60.32 12.57 59.57 11.61L58.06 13.23C58.91 14.3 60.08 15.18 61.77 15.18C64.08 15.18 65.5 13.69 65.5 11.63C65.5 9.56999 64.56 8.67999 62.41 7.52999C61.06 6.79999 60.63 6.33999 60.63 5.58999C60.63 4.96999 61.09 4.50999 61.8 4.50999C62.65 4.50999 63.04 4.78999 63.77 5.60999L65.24 4.13999C64.35 2.98999 63.39 2.35999 61.85 2.35999C59.75 2.35999 58.37 3.82999 58.37 5.69999C58.37 7.75998 59.49 8.69999 61.34 9.65999C62.8 10.41 63.24 10.97 63.24 11.69C63.24 12.52 62.78 13.04 61.85 13.04L61.86 13.03Z" fill="white" style="fill:white;fill-opacity:1;"/>
<path id="Vector_5" d="M70.91 14.99V4.69005H73.48V2.55005H66.11V4.69005H68.69V14.99H70.91Z" fill="white" style="fill:white;fill-opacity:1;"/>
<path id="Vector_6" d="M81.87 8.74999C81.87 5.17999 80.64 2.35999 77.77 2.35999C74.9 2.35999 73.61 5.19999 73.61 8.78999C73.61 12.38 74.84 15.18 77.73 15.18C80.62 15.18 81.87 12.34 81.87 8.74999ZM77.76 12.96C76.43 12.96 75.88 11.4 75.88 8.74999C75.88 6.09999 76.39 4.57999 77.73 4.57999C79.07 4.57999 79.59 6.13999 79.59 8.78999C79.59 11.44 79.07 12.96 77.76 12.96Z" fill="white" style="fill:white;fill-opacity:1;"/>
<path id="Vector_7" d="M88.59 7.71006C88.59 8.49006 88.64 9.84006 88.66 10.6101C88.43 9.92006 87.99 8.76006 87.68 8.02006L85.5 2.57006H83.26V15.0001H85.29V9.76006C85.29 8.98006 85.27 7.70006 85.25 6.94006C85.48 7.67006 85.87 8.68006 86.19 9.46006L88.48 15.0001H90.61V2.56006H88.58V7.71006H88.59Z" fill="white" style="fill:white;fill-opacity:1;"/>
<path id="Vector_8" d="M95.6 7.45996H91.98V9.62996H95.6V7.45996Z" fill="white" style="fill:white;fill-opacity:1;"/>
<path id="Vector_9" d="M100.13 13.03C99.38 13.03 98.59 12.57 97.84 11.61L96.33 13.23C97.18 14.3 98.36 15.18 100.04 15.18C102.35 15.18 103.77 13.69 103.77 11.63C103.77 9.56999 102.83 8.67999 100.68 7.52999C99.33 6.79999 98.9 6.33999 98.9 5.58999C98.9 4.96999 99.36 4.50999 100.07 4.50999C100.92 4.50999 101.31 4.78999 102.04 5.60999L103.51 4.13999C102.62 2.98999 101.66 2.35999 100.12 2.35999C98.02 2.35999 96.64 3.82999 96.64 5.69999C96.64 7.75998 97.76 8.69999 99.61 9.65999C101.07 10.41 101.51 10.97 101.51 11.69C101.51 12.52 101.05 13.04 100.12 13.04L100.13 13.03Z" fill="white" style="fill:white;fill-opacity:1;"/>
<path id="Vector_10" d="M109.81 12.39L110.4 14.98H112.69L109.51 2.55005H107.34L104.16 14.98H106.43L107.02 12.39H109.81ZM107.84 8.81005C108.07 7.80005 108.32 6.46005 108.41 5.83005C108.5 6.45005 108.78 7.89005 109 8.85005L109.34 10.32H107.51L107.85 8.81005H107.84Z" fill="white" style="fill:white;fill-opacity:1;"/>
<path id="Vector_11" d="M115.96 2.56006H113.74V14.9901H119.85V12.8201H115.96V2.56006Z" fill="white" style="fill:white;fill-opacity:1;"/>
<path id="Vector_12" d="M127.47 12.8601H123.15V9.41006H125.94V7.32006H123.15V4.69006H127.31V2.56006H120.93V14.9901H127.47V12.8601Z" fill="white" style="fill:white;fill-opacity:1;"/>
<path id="Vector_13" d="M135.64 2.56006L134.17 7.16006C133.82 8.26006 133.46 9.34006 133.33 9.97006C133.22 9.38006 132.87 8.32006 132.5 7.16006L131.03 2.56006H128.79V14.9901H130.78V10.9801C130.78 9.51006 130.76 8.14006 130.74 7.21006C130.99 8.10006 131.4 9.50006 131.86 10.9101L133.3 15.3101L134.74 10.9101C135.2 9.49006 135.61 8.10006 135.86 7.21006C135.84 8.13006 135.82 9.50006 135.82 10.9801V14.9901H137.85V2.56006H135.65H135.64Z" fill="white" style="fill:white;fill-opacity:1;"/>
<path id="Vector_14" d="M36.55 21.04C35.62 20.7 35.28 20.54 35 20.25C34.83 20.08 34.71 19.79 34.71 19.54C34.71 18.78 35.38 18.29 36.4 18.29C37.07 18.29 37.64 18.46 38.26 18.85L38.13 17.81C37.51 17.69 37.1 17.65 36.59 17.65C34.8 17.65 33.78 18.43 33.78 19.78C33.78 20.36 34.04 20.82 34.59 21.16C34.93 21.38 35.3 21.55 36 21.8C37.11 22.2 37.25 22.27 37.54 22.51C37.81 22.72 37.96 23.06 37.96 23.44C37.96 24.43 37.17 25.06 35.92 25.06C34.91 25.06 34.21 24.8 33.6 24.2L33.75 25.45L33.88 25.48C34.57 25.64 35.13 25.71 35.7 25.71C37.7 25.71 38.9 24.8 38.9 23.3C38.9 22.7 38.68 22.2 38.26 21.85C37.9 21.53 37.59 21.39 36.57 21.03L36.55 21.04Z" fill="white" style="fill:white;fill-opacity:1;"/>
<path id="Vector_15" d="M44.67 18.42C45.24 18.42 45.43 18.5 45.74 18.89L45.58 17.78H39.94L39.79 18.89C40.09 18.5 40.28 18.42 40.85 18.42H42.31V24.68C42.31 25.16 42.22 25.38 41.9 25.57H43.62C43.3 25.38 43.21 25.16 43.21 24.68V18.42H44.67Z" fill="white" style="fill:white;fill-opacity:1;"/>
<path id="Vector_16" d="M52.77 25.11C52.69 24.98 52.62 24.84 52.55 24.66L49.71 17.78H48.54C48.68 17.91 48.73 18.01 48.73 18.14C48.73 18.27 48.68 18.44 48.58 18.69L45.99 25C45.88 25.26 45.78 25.37 45.5 25.57H46.96C46.8 25.43 46.75 25.34 46.75 25.18C46.75 25.09 46.77 24.97 46.83 24.82L47.76 22.5H50.7L51.59 24.71C51.67 24.93 51.71 25.06 51.71 25.17C51.71 25.32 51.66 25.41 51.5 25.58H53.22C52.96 25.37 52.89 25.3 52.78 25.12L52.77 25.11ZM48.02 21.86L49.23 18.82L50.45 21.86H48.02Z" fill="white" style="fill:white;fill-opacity:1;"/>
<path id="Vector_17" d="M53.14 17.78L52.99 18.89C53.29 18.5 53.48 18.42 54.05 18.42H55.51V24.68C55.51 25.16 55.42 25.38 55.1 25.57H56.82C56.5 25.38 56.41 25.16 56.41 24.68V18.42H57.87C58.44 18.42 58.63 18.5 58.94 18.89L58.78 17.78H53.14Z" fill="white" style="fill:white;fill-opacity:1;"/>
<path id="Vector_18" d="M63.86 24.93H61.58V21.57H63.6C63.96 21.57 64.15 21.5801 64.28 21.6201C64.38 21.6501 64.45 21.7 64.63 21.84L64.56 20.8601C64.43 20.9201 64.36 20.93 63.95 20.93H61.58V18.43H63.95C64.51 18.43 64.69 18.49 65.05 18.75L65.11 18.7901L64.96 17.8H60.29C60.59 18 60.7 18.2101 60.7 18.7001V24.7001C60.7 25.1801 60.6 25.4 60.29 25.59H65.25L65.6 24.47L65.53 24.5201C65.06 24.8801 64.77 24.9501 63.86 24.9501V24.93Z" fill="white" style="fill:white;fill-opacity:1;"/>
<path id="Vector_19" d="M76.54 18.68V22.93C76.55 24.27 75.69 25.1 74.32 25.1C73.48 25.1 72.77 24.75 72.39 24.18C72.12 23.75 72.04 23.37 72.04 22.44V18.68C72.04 18.19 72.14 17.98 72.45 17.78H70.75C71.05 17.98 71.16 18.19 71.16 18.68V22.43C71.16 23.69 71.31 24.25 71.84 24.79C72.41 25.4 73.23 25.71 74.25 25.71C75.58 25.71 76.6 25.09 77.01 24.06C77.17 23.64 77.22 23.29 77.22 22.51V18.68C77.22 18.19 77.31 17.98 77.63 17.78H76.15C76.47 17.98 76.56 18.19 76.56 18.68H76.54Z" fill="white" style="fill:white;fill-opacity:1;"/>
<path id="Vector_20" d="M85.04 18.68V23.52L80.45 17.79H79.26C79.55 17.99 79.67 18.26 79.67 18.75V24.69C79.67 25.17 79.57 25.39 79.26 25.58H80.73C80.43 25.39 80.32 25.17 80.32 24.69V19L85.69 25.72V18.69C85.69 18.2 85.8 17.99 86.1 17.79H84.63C84.93 17.99 85.04 18.2 85.04 18.69V18.68Z" fill="white" style="fill:white;fill-opacity:1;"/>
<path id="Vector_21" d="M89.5 17.78H87.8C88.1 17.98 88.21 18.19 88.21 18.68V24.68C88.21 25.16 88.1 25.38 87.8 25.57H89.5C89.2 25.38 89.09 25.16 89.09 24.68V18.68C89.09 18.19 89.19 17.98 89.5 17.78Z" fill="white" style="fill:white;fill-opacity:1;"/>
<path id="Vector_22" d="M97.34 18.12C97.34 18.24 97.28 18.42 97.15 18.72L94.83 23.92L92.59 18.83C92.46 18.55 92.39 18.3 92.39 18.16C92.39 18 92.42 17.93 92.6 17.79H90.84C91.19 18.06 91.37 18.28 91.56 18.74L91.7 19.04L94.7 25.72L97.77 18.98C97.77 18.98 97.83 18.85 97.89 18.73C97.95 18.63 97.98 18.54 98.02 18.49C98.07 18.39 98.11 18.3 98.16 18.23C98.26 18.08 98.36 18 98.63 17.79H97.16C97.29 17.91 97.35 18 97.35 18.13L97.34 18.12Z" fill="white" style="fill:white;fill-opacity:1;"/>
<path id="Vector_23" d="M103.54 24.93H101.26V21.57H103.28C103.64 21.57 103.83 21.5801 103.96 21.6201C104.07 21.6501 104.13 21.7 104.31 21.84L104.24 20.8601C104.11 20.9201 104.04 20.93 103.63 20.93H101.26V18.43H103.63C104.19 18.43 104.37 18.49 104.73 18.75L104.79 18.7901L104.64 17.8H99.97C100.27 18 100.38 18.2101 100.38 18.7001V24.7001C100.38 25.1801 100.28 25.4 99.97 25.59H104.93L105.28 24.47L105.21 24.5201C104.74 24.8801 104.45 24.9501 103.54 24.9501V24.93Z" fill="white" style="fill:white;fill-opacity:1;"/>
<path id="Vector_24" d="M112.41 24.78C112.35 24.7 112.31 24.64 112.28 24.59L110.88 22.61C110.67 22.31 110.6 22.21 110.46 22.05C110.36 21.93 110.26 21.84 110.17 21.77C110.07 21.69 110 21.64 109.76 21.49C111.05 21.26 111.66 20.65 111.66 19.63C111.66 18.84 111.19 18.17 110.48 17.96C110.08 17.83 109.82 17.81 108.95 17.8C108.69 17.79 108.51 17.79 108.37 17.79H106.62C106.92 17.99 107.03 18.2 107.03 18.69V24.69C107.03 25.17 106.93 25.39 106.62 25.58H108.33C108.03 25.39 107.92 25.17 107.92 24.69V21.58C108.48 21.59 108.71 21.64 109.02 21.81C109.3 21.97 109.55 22.23 109.86 22.69L111.85 25.58H113.46C113.09 25.42 113 25.37 112.85 25.25C112.7 25.15 112.6 25.04 112.42 24.78H112.41ZM108.69 21.02C108.45 21.02 108.29 21.01 107.92 20.98V18.42C108.25 18.42 108.39 18.41 108.57 18.41C109.47 18.41 109.88 18.49 110.22 18.74C110.48 18.93 110.63 19.27 110.63 19.65C110.63 20.32 110.21 20.82 109.57 20.95C109.31 21 109.07 21.02 108.69 21.02Z" fill="white" style="fill:white;fill-opacity:1;"/>
<path id="Vector_25" d="M117.06 21.04C116.13 20.7 115.79 20.54 115.51 20.25C115.34 20.08 115.22 19.79 115.22 19.54C115.22 18.78 115.89 18.29 116.91 18.29C117.58 18.29 118.15 18.46 118.77 18.85L118.64 17.81C118.02 17.69 117.61 17.65 117.1 17.65C115.31 17.65 114.29 18.43 114.29 19.78C114.29 20.36 114.55 20.82 115.1 21.16C115.44 21.38 115.81 21.55 116.51 21.8C117.62 22.2 117.76 22.27 118.05 22.51C118.32 22.72 118.47 23.06 118.47 23.44C118.47 24.43 117.68 25.06 116.43 25.06C115.42 25.06 114.72 24.8 114.11 24.2L114.26 25.45L114.39 25.48C115.08 25.64 115.64 25.71 116.21 25.71C118.21 25.71 119.41 24.8 119.41 23.3C119.41 22.7 119.19 22.2 118.77 21.85C118.41 21.53 118.1 21.39 117.08 21.03L117.06 21.04Z" fill="white" style="fill:white;fill-opacity:1;"/>
<path id="Vector_26" d="M122.64 17.78H120.94C121.24 17.98 121.35 18.19 121.35 18.68V24.68C121.35 25.16 121.24 25.38 120.94 25.57H122.64C122.34 25.38 122.23 25.16 122.23 24.68V18.68C122.23 18.19 122.33 17.98 122.64 17.78Z" fill="white" style="fill:white;fill-opacity:1;"/>
<path id="Vector_27" d="M124.35 17.78L124.2 18.89C124.5 18.5 124.69 18.42 125.26 18.42H126.72V24.68C126.72 25.16 126.63 25.38 126.31 25.57H128.03C127.71 25.38 127.62 25.16 127.62 24.68V18.42H129.08C129.65 18.42 129.84 18.5 130.15 18.89L129.99 17.78H124.35Z" fill="white" style="fill:white;fill-opacity:1;"/>
<path id="Vector_28" d="M136.45 18.12C136.45 18.22 136.39 18.38 136.3 18.54L134.78 21.1L133.26 18.58C133.14 18.38 133.08 18.24 133.08 18.12C133.08 18 133.13 17.91 133.22 17.78H131.43L131.49 17.83C131.73 17.98 131.84 18.08 132 18.29C132.1 18.44 132.19 18.55 132.35 18.83L134.18 21.86V24.7C134.18 25.18 134.09 25.4 133.77 25.59H135.49C135.17 25.4 135.08 25.18 135.08 24.7V21.86L136.8 19.04C137.32 18.16 137.42 18.05 137.82 17.79H136.28C136.41 17.94 136.44 18.02 136.44 18.13L136.45 18.12Z" fill="white" style="fill:white;fill-opacity:1;"/>
<path id="Vector_29" d="M8.09 4.09004C8.11 4.29004 8.14 4.35004 8.14 4.35004C8.53 4.33004 8.84 4.41004 9.1 4.53004C7.92 4.26004 7.2 4.91004 7.09 5.75004C7.09 5.81004 7.09 5.87004 7.09 5.93004H7.9C8.02 5.71004 8.17 5.56004 8.38 5.40004C8.76 5.12004 9.12 5.10004 9.48 5.10004C9.66 5.10004 9.87 5.15004 9.87 5.15004C9.9 5.03004 9.95 4.91004 10 4.80004L9.18 2.67004C8.87 2.80004 8.68 2.93004 8.49 3.14004C8.25 3.40004 8.04 3.65004 8.08 4.09004H8.09Z" fill="white" style="fill:white;fill-opacity:1;"/>
<path id="Vector_30" d="M7.68999 4.51004C7.82999 4.44004 7.99999 4.39004 7.99999 4.39004C7.90999 3.75004 8.03999 3.32004 8.25999 3.06004C8.46999 2.81004 8.70999 2.58004 9.07999 2.41004L8.74999 1.54004C7.51999 1.74004 6.45999 2.00004 5.57999 2.28004L7.42999 4.68004C7.50999 4.62004 7.59999 4.56004 7.69999 4.52004L7.68999 4.51004Z" fill="white" style="fill:white;fill-opacity:1;"/>
<path id="Vector_31" d="M15.93 4.06002C16.4 4.18002 16.87 4.46002 17.33 4.90002C17.45 5.02002 17.58 5.16002 17.58 5.16002C17.69 5.13002 17.8 5.10002 17.9 5.08002L20.18 2.24002C19.29 1.97002 18.22 1.70002 16.99 1.51002C16.74 1.47002 16.47 1.43002 16.2 1.40002C16.47 1.43002 16.73 1.47002 16.99 1.51002L15.92 4.06002H15.93Z" fill="white" style="fill:white;fill-opacity:1;"/>
<path id="Vector_32" d="M11.93 4.01996C11.45 4.02996 11.33 4.07996 11.03 4.15996C10.66 4.27996 10.25 4.54996 10.02 5.10996C10 5.15996 9.99001 5.18996 9.99001 5.18996C10.38 5.33996 10.53 5.45996 10.63 5.60996C10.57 5.57996 10.55 5.55996 10.51 5.52996C9.72001 5.02996 8.69001 5.22996 8.16001 5.92996H8.30001C8.30001 5.92996 8.30001 5.92996 8.31001 5.92996C8.32001 5.92996 8.33001 5.92996 8.34001 5.93996L8.61001 6.16996C8.61001 6.16996 8.63001 6.19996 8.63001 6.20996V7.28996C8.63001 7.28996 8.62001 7.31996 8.60001 7.31996H8.27001V7.84996C8.35001 7.80996 8.44001 7.77996 8.52001 7.74996C8.60001 7.93996 8.68001 8.14996 8.75001 8.33996C8.93001 8.82996 9.13001 9.34996 9.40001 9.81996C9.41001 9.84996 9.43001 9.87996 9.44001 9.90996C9.20001 9.98996 8.98001 10.15 8.77001 10.29C8.77001 10.29 8.75001 10.31 8.74001 10.32C8.71001 10.34 8.67001 10.36 8.64001 10.4C8.60001 10.28 8.55001 10.16 8.51001 10.03C8.41001 9.70996 8.28001 9.36996 8.07001 9.11996V7.95996V11.72V9.23996C8.26001 9.46996 8.33001 9.74996 8.43001 10.06C8.48001 10.22 8.54001 10.38 8.60001 10.52C8.64001 10.61 8.68001 10.68 8.73001 10.76C8.77001 10.82 8.80001 10.88 8.83001 10.94C8.84001 10.96 8.85001 10.99 8.86001 11.02C8.89001 11.1 8.92001 11.2 8.98001 11.25C9.01001 11.24 9.04001 11.22 9.07001 11.21C9.02001 11.16 8.96001 11.05 8.94001 10.99C8.93001 10.96 8.92001 10.93 8.90001 10.9C8.87001 10.83 8.83001 10.77 8.79001 10.71C8.75001 10.64 8.71001 10.57 8.67001 10.5C8.69001 10.46 8.73001 10.43 8.77001 10.4C8.78001 10.4 8.79001 10.38 8.80001 10.38C9.00001 10.24 9.22001 10.08 9.46001 9.99996C9.51001 10.1 9.56001 10.19 9.61001 10.29C9.64001 10.34 9.66001 10.39 9.69001 10.45C9.72001 10.5 9.73001 10.57 9.75001 10.64C9.77001 10.74 9.80001 10.84 9.86001 10.92C9.89001 10.92 9.92001 10.9 9.95001 10.89C9.90001 10.82 9.85001 10.7 9.83001 10.62C9.81001 10.55 9.79001 10.47 9.76001 10.41C9.73001 10.36 9.71001 10.31 9.68001 10.26C9.60001 10.11 9.53001 9.94996 9.44001 9.79996C9.18001 9.33996 8.99001 8.82996 8.80001 8.32996C8.73001 8.13996 8.65001 7.92996 8.57001 7.73996C8.97001 7.58996 9.40001 7.44996 9.87001 7.32996C9.90001 7.52996 9.96001 7.71996 10.02 7.90996C10.06 8.02996 10.09 8.14996 10.12 8.26996V8.29996C10.18 8.50996 10.23 8.69996 10.32 8.89996C10.42 9.12996 10.51 9.37996 10.59 9.61996C10.65 9.78996 10.71 9.96996 10.78 10.15L10.8 10.2C10.86 10.34 10.92 10.5 10.95 10.65C10.98 10.65 11.01 10.64 11.04 10.63C11.01 10.47 10.94 10.31 10.88 10.16L10.86 10.11C10.79 9.93996 10.73 9.75996 10.67 9.58996C10.59 9.34996 10.51 9.09996 10.4 8.85996C10.31 8.66996 10.26 8.47996 10.21 8.27996V8.24996C10.17 8.12996 10.13 7.99996 10.09 7.88996C10.03 7.70996 9.97001 7.50996 9.94001 7.31996C10.28 7.23996 10.64 7.16996 11.02 7.11996C11.08 7.44996 11.1 7.79996 11.11 8.12996C11.11 8.35996 11.13 8.59996 11.15 8.82996C11.18 9.10996 11.25 9.37996 11.31 9.64996C11.35 9.82996 11.4 10.02 11.43 10.2C11.45 10.31 11.48 10.44 11.54 10.56C11.57 10.56 11.61 10.55 11.64 10.55C11.58 10.44 11.53 10.29 11.51 10.18C11.48 9.98996 11.43 9.79996 11.39 9.61996C11.33 9.35996 11.26 9.08996 11.23 8.81996C11.2 8.59996 11.2 8.36996 11.19 8.14996C11.22 8.14996 11.26 8.12996 11.3 8.11996C11.33 8.10996 11.37 8.09996 11.39 8.08996C11.46 8.08996 11.53 8.08996 11.61 8.07996C11.69 8.07996 11.76 8.07996 11.84 8.06996C11.91 8.52996 11.98 8.98996 12.07 9.42996C12.1 9.54996 12.12 9.66996 12.16 9.78996C12.2 9.94996 12.24 10.12 12.27 10.28C12.28 10.36 12.3 10.42 12.33 10.49C12.36 10.49 12.4 10.49 12.43 10.49C12.4 10.42 12.37 10.34 12.36 10.27C12.33 10.1 12.29 9.92996 12.25 9.76996C12.22 9.64996 12.19 9.52996 12.17 9.40996C12.04 8.77996 11.95 8.11996 11.85 7.43996V7.39996C11.82 7.27996 11.81 7.12996 11.85 7.01996C12.17 6.99996 12.51 6.97996 12.86 6.97996C13.08 6.97996 13.3 6.97996 13.51 6.99996C13.58 7.32996 13.53 7.70996 13.48 8.06996C13.47 8.17996 13.45 8.27996 13.44 8.38996C13.42 8.56996 13.4 8.74996 13.39 8.92996C13.36 9.24996 13.32 9.58996 13.28 9.90996C13.26 10.03 13.23 10.15 13.2 10.26C13.18 10.33 13.16 10.41 13.14 10.48C13.17 10.48 13.2 10.48 13.23 10.48C13.24 10.41 13.26 10.35 13.28 10.28C13.31 10.16 13.34 10.04 13.36 9.91996C13.4 9.58996 13.43 9.25996 13.47 8.92996C13.49 8.74996 13.51 8.56996 13.53 8.38996C13.54 8.28996 13.56 8.17996 13.57 8.06996C13.62 7.70996 13.67 7.33996 13.6 6.99996C14.07 7.02996 14.51 7.06996 14.92 7.13996C14.9 7.26996 14.84 7.39996 14.78 7.52996C14.74 7.60996 14.7 7.69996 14.67 7.78996C14.65 7.83996 14.64 7.88996 14.62 7.93996C14.55 8.13996 14.48 8.34996 14.45 8.54996C14.42 8.77996 14.35 8.97996 14.27 9.17996C14.23 9.29996 14.18 9.41996 14.14 9.54996C14.05 9.86996 13.98 10.25 13.94 10.52C13.94 10.52 13.94 10.52 13.93 10.52C13.93 10.52 13.93 10.52 13.94 10.52C13.94 10.52 13.95 10.52 13.96 10.52C14.03 10.52 14.09 10.54 14.16 10.55C14.09 10.55 14.03 10.53 13.97 10.52C13.99 10.52 14.01 10.52 14.03 10.52C14.06 10.31 14.11 10.04 14.17 9.77996C14.42 9.82996 14.71 9.89996 14.96 9.98996C14.98 9.98996 15 10.01 15.02 10.02C15.04 10.03 15.06 10.05 15.09 10.06C15.07 10.13 15.06 10.2 15.04 10.27C15.01 10.43 14.97 10.57 14.92 10.65C14.95 10.65 14.97 10.66 14.99 10.67C14.97 10.67 14.95 10.66 14.92 10.65C14.95 10.65 14.98 10.66 15.01 10.67C15.06 10.58 15.1 10.46 15.13 10.28C15.21 9.86996 15.34 9.49996 15.48 9.09996L15.52 8.99996C15.59 8.80996 15.64 8.61996 15.7 8.42996C15.72 8.37996 15.73 8.31996 15.75 8.26996C15.78 8.17996 15.81 8.07996 15.85 7.97996C15.93 7.76996 16 7.55996 16.03 7.33996C16.47 7.45996 16.88 7.59996 17.25 7.74996C17.22 7.82996 17.19 7.90996 17.17 7.98996C17.16 8.03996 17.14 8.07996 17.12 8.12996C17.06 8.28996 17 8.44996 16.93 8.60996C16.86 8.76996 16.8 8.92996 16.74 9.08996C16.62 9.44996 16.44 9.78996 16.26 10.12C16.13 10.36 15.99 10.64 15.88 10.9C16.13 10.98 16.38 11.07 16.6 11.16C16.4 11.08 16.18 11 15.96 10.93C16.07 10.67 16.21 10.41 16.34 10.17C16.51 9.83996 16.7 9.49996 16.82 9.12996C16.82 9.11996 16.82 9.10996 16.83 9.09996C17.09 9.18996 17.35 9.28996 17.49 9.48996C17.5 9.50996 17.51 9.52996 17.53 9.54996C17.55 9.57996 17.57 9.60996 17.6 9.63996C17.6 9.63996 17.6 9.64996 17.58 9.65996V9.67996C17.46 9.83996 17.38 9.94996 17.33 10.15C17.26 10.43 17.14 10.68 17 10.94C16.95 11.05 16.88 11.17 16.83 11.28C16.86 11.29 16.89 11.3 16.91 11.31C16.96 11.2 17.03 11.08 17.08 10.98C17.21 10.72 17.35 10.46 17.41 10.17C17.45 9.98996 17.52 9.88996 17.63 9.72996V9.70996C17.63 9.70996 17.67 9.67996 17.67 9.66996C17.68 9.65996 17.7 9.63996 17.71 9.60996V9.46996C17.71 9.46996 17.64 9.54996 17.63 9.55996C17.62 9.53996 17.6 9.51996 17.59 9.49996C17.58 9.47996 17.57 9.45996 17.55 9.43996C17.39 9.22996 17.11 9.11996 16.85 9.02996C16.9 8.90996 16.95 8.78996 17 8.66996C17.07 8.50996 17.13 8.34996 17.19 8.18996C17.2 8.13996 17.22 8.09996 17.24 8.04996C17.26 7.96996 17.29 7.88996 17.32 7.81996C17.39 7.84996 17.46 7.87996 17.53 7.90996V7.35996H17.2C17.2 7.35996 17.17 7.34996 17.17 7.32996V6.24996C17.17 6.24996 17.18 6.20996 17.19 6.20996L17.47 5.96996C17.47 5.96996 17.48 5.95996 17.49 5.95996H18.37C18.37 6.04996 18.37 6.14996 18.37 6.23996V6.27996C18.38 6.39996 18.33 6.53996 18.29 6.65996C18.27 6.73996 18.24 6.79996 18.2 6.85996C18.2 6.87996 18.18 6.88996 18.18 6.90996C18.18 6.91996 18.16 6.93996 18.16 6.94996C18.14 6.97996 18.11 7.06996 18.09 7.08996H18.19C18.19 7.08996 18.22 7.02996 18.24 6.98996C18.24 6.97996 18.25 6.96996 18.26 6.94996C18.26 6.93996 18.28 6.91996 18.29 6.90996C18.33 6.83996 18.36 6.77996 18.39 6.70996C18.43 6.57996 18.48 6.41996 18.47 6.27996V6.22996C18.47 6.13996 18.45 6.03996 18.46 5.94996H19.44C18.6 5.04996 17.84 5.14996 16.53 5.93996C16.73 5.70996 16.94 5.46996 17.22 5.32996C16.54 4.31996 15 4.07996 13.77 4.98996C13.27 5.31996 13.13 5.55996 12.92 5.82996C13.15 5.32996 13.32 4.97996 14.09 4.44996C14.47 4.18996 14.85 4.04996 15.23 4.01996L16.14 1.40996C15.24 1.29996 14.26 1.22996 13.2 1.20996L13.06 4.04996C13.36 4.19996 13.54 4.36996 13.58 4.39996C13.38 4.31996 13.21 4.26996 13.05 4.21996L13.03 4.69996C12.86 4.74996 12.66 4.85996 12.46 4.97996L12.44 4.07996C12.19 4.03996 12.03 4.04996 11.86 4.04996L11.93 4.01996ZM11.89 7.95996C11.82 7.95996 11.75 7.95996 11.68 7.96996C11.6 7.96996 11.52 7.96996 11.45 7.97996C11.42 7.97996 11.38 7.99996 11.34 8.00996C11.31 8.01996 11.28 8.02996 11.25 8.03996C11.24 7.71996 11.22 7.39996 11.16 7.08996C11.37 7.05996 11.59 7.03996 11.81 7.01996C11.77 7.14996 11.79 7.27996 11.81 7.39996V7.43996C11.84 7.60996 11.87 7.78996 11.89 7.95996ZM16 7.34996C15.97 7.55996 15.9 7.76996 15.82 7.96996C15.78 8.06996 15.75 8.16996 15.72 8.26996C15.7 8.31996 15.69 8.37996 15.67 8.42996C15.62 8.60996 15.56 8.80996 15.49 8.98996L15.45 9.08996C15.35 9.38996 15.24 9.67996 15.17 9.97996C15.15 9.97996 15.14 9.95996 15.12 9.94996C15.1 9.93996 15.08 9.91996 15.05 9.90996C14.8 9.80996 14.51 9.73996 14.25 9.68996C14.26 9.64996 14.27 9.59996 14.29 9.55996C14.33 9.42996 14.37 9.30996 14.42 9.19996C14.5 8.98996 14.57 8.77996 14.6 8.53996C14.62 8.33996 14.69 8.13996 14.76 7.94996C14.78 7.89996 14.8 7.84996 14.81 7.78996C14.84 7.70996 14.88 7.62996 14.92 7.54996C14.98 7.41996 15.05 7.27996 15.07 7.13996C15.4 7.19996 15.71 7.25996 16 7.33996V7.34996Z" fill="white" style="fill:white;fill-opacity:1;"/>
<path id="Vector_33" d="M14.97 10.67C14.73 10.62 14.47 10.59 14.21 10.55C14.47 10.58 14.73 10.62 14.97 10.67Z" fill="white" style="fill:white;fill-opacity:1;"/>
<path id="Vector_34" d="M11.01 2.44996C10.43 2.40996 10.1 2.40996 9.84999 2.44996L10.43 4.27996C10.53 4.18996 10.64 4.11996 10.75 4.05996C11.12 3.83996 11.44 3.74996 11.92 3.74996C12.13 3.74996 12.33 3.77996 12.5 3.81996L12.45 1.20996C11.39 1.22996 10.42 1.29996 9.51999 1.41996L9.76999 2.21996C10.46 2.13996 10.9 2.40996 11 2.45996L11.01 2.44996Z" fill="white" style="fill:white;fill-opacity:1;"/>
<path id="Vector_35" d="M16.92 18.91H15.86V21.18H16.92V18.91Z" fill="white" style="fill:white;fill-opacity:1;"/>
<path id="Vector_36" d="M23.37 8.36001C23.37 8.74001 23.3 8.91001 23.2 9.18001C23.08 9.44001 22.91 9.65001 22.84 9.64001C23.1 8.89001 23.16 8.38001 22.56 7.92001C22.55 7.92001 22.54 7.90001 22.53 7.90001V9.65001C22.53 9.65001 22.53 9.65001 22.52 9.65001C22.5 9.65001 22.41 9.65001 22.39 9.65001C22.38 9.65001 22.36 9.65001 22.35 9.65001C22.08 9.65001 21.83 9.63001 21.57 9.62001C21.5 9.62001 21.43 9.62001 21.35 9.61001V9.42001C21.35 9.42001 21.33 9.37001 21.3 9.37001H21.07C21.07 9.29001 21.07 9.22001 21.07 9.14001C21.07 9.05001 21.06 8.96001 21.06 8.87001C21.06 8.82001 21.06 8.77001 21.06 8.71001C21.06 8.58001 21.05 8.45001 21.08 8.33001V8.31001C21.1 8.23001 21.12 8.15001 21.13 8.07001C21.13 8.01001 21.13 7.95001 21.13 7.89001C21.13 7.85001 21.13 7.81001 21.13 7.77001H21.8C21.86 7.77001 21.91 7.77001 21.97 7.77001C22.08 7.77001 22.19 7.77001 22.3 7.77001C22.33 7.77001 22.36 7.77001 22.39 7.77001C22.43 7.77001 22.48 7.77001 22.52 7.77001H22.54V7.67001C22.54 7.67001 22.45 7.67001 22.41 7.67001C22.37 7.67001 22.34 7.67001 22.31 7.67001C22.2 7.67001 22.09 7.67001 21.98 7.67001H20.23C20.16 7.67001 20.1 7.67001 20.03 7.67001C19.95 7.67001 19.87 7.67001 19.79 7.67001C19.79 7.63001 19.79 7.59001 19.78 7.55001C19.77 7.44001 19.75 7.33001 19.8 7.26001C19.8 7.26001 19.8 7.25001 19.8 7.24001H22.55V7.61001C22.78 7.73001 23.02 7.91001 23.27 8.14001C23.87 7.75001 23.96 6.78001 23.47 6.00001C22.89 5.08001 21.69 4.74001 20.71 5.28001C21.36 4.52001 22.14 4.61001 22.95 5.08001C22.95 5.08001 22.96 5.08001 22.97 5.08001L24.4 4.17001C24.1 3.96001 23.15 3.33001 21.54 2.71001C21.37 2.64001 21.19 2.58001 21 2.51001L18.72 5.06001C19.36 5.15001 19.81 5.52001 20.25 5.93001C20.26 5.93001 20.27 5.95001 20.28 5.96001H20.24C20.24 6.02001 20.26 6.07001 20.27 6.13001C20.27 6.15001 20.28 6.17001 20.29 6.19001C20.29 6.23001 20.3 6.27001 20.31 6.31001C20.33 6.42001 20.35 6.54001 20.38 6.65001C20.4 6.75001 20.46 6.82001 20.51 6.90001C20.53 6.93001 20.55 6.96001 20.57 6.99001C20.57 6.99001 20.57 7.00001 20.59 7.01001C20.59 7.03001 20.63 7.07001 20.63 7.09001L20.72 7.10001C20.73 7.05001 20.69 7.00001 20.66 6.96001C20.66 6.96001 20.66 6.95001 20.65 6.94001C20.63 6.91001 20.61 6.88001 20.59 6.85001C20.54 6.78001 20.49 6.71001 20.47 6.63001C20.44 6.52001 20.42 6.41001 20.4 6.30001C20.4 6.26001 20.39 6.22001 20.38 6.18001C20.38 6.16001 20.37 6.13001 20.36 6.11001C20.35 6.06001 20.34 6.01001 20.34 5.96001H22.2C22.18 6.02001 22.18 6.05001 22.17 6.11001C22.17 6.14001 22.17 6.16001 22.15 6.19001C22.12 6.35001 22.15 6.50001 22.18 6.65001C22.21 6.80001 22.23 6.95001 22.21 7.10001H22.29C22.32 6.94001 22.29 6.79001 22.26 6.64001C22.23 6.49001 22.21 6.35001 22.23 6.21001C22.23 6.18001 22.24 6.15001 22.25 6.12001C22.25 6.07001 22.26 6.01001 22.28 5.96001H23C23 5.96001 23.03 5.97001 23.03 5.99001V7.07001C23.03 7.07001 23.02 7.10001 23 7.10001H22.57V7.23001H18.05H18.72C18.72 7.31001 18.7 7.39001 18.68 7.48001C18.66 7.57001 18.64 7.66001 18.64 7.75001C18.64 7.84001 18.66 7.91001 18.67 7.99001C18.67 7.99001 18.67 7.99001 18.67 8.00001C18.67 8.00001 18.67 8.01001 18.67 8.02001C18.67 8.03001 18.67 8.04001 18.68 8.05001C18.68 8.11001 18.7 8.17001 18.69 8.23001C18.69 8.28001 18.68 8.31001 18.67 8.34001C18.67 8.36001 18.66 8.38001 18.65 8.40001C18.65 8.41001 18.65 8.43001 18.64 8.43001C18.64 8.45001 18.62 8.48001 18.62 8.52001C18.62 8.54001 18.63 8.58001 18.64 8.65001C18.64 8.69001 18.66 8.76001 18.67 8.81001C18.55 8.79001 18.34 8.77001 18.22 8.77001C18.17 8.77001 18.12 8.77001 18.08 8.76001C18.07 8.76001 18.06 8.76001 18.05 8.76001V8.87001C18.05 8.87001 18.06 8.87001 18.07 8.87001C18.11 8.87001 18.16 8.88001 18.22 8.88001H18.23C18.36 8.88001 18.59 8.91001 18.69 8.93001V9.32001C18.69 9.45001 18.69 9.58001 18.69 9.71001C18.69 9.71001 18.69 9.73001 18.69 9.74001C18.69 9.74001 18.64 9.74001 18.61 9.74001C18.57 9.74001 18.53 9.74001 18.5 9.74001C18.48 9.74001 18.45 9.74001 18.43 9.74001C18.4 9.74001 18.36 9.74001 18.33 9.73001C18.25 9.73001 18.17 9.71001 18.08 9.71001C18.08 9.71001 18.07 9.71001 18.06 9.71001V9.81001C18.06 9.81001 18.07 9.81001 18.08 9.81001C18.16 9.81001 18.23 9.81001 18.31 9.83001C18.35 9.83001 18.38 9.83001 18.42 9.84001C18.45 9.84001 18.47 9.84001 18.5 9.84001C18.53 9.84001 18.56 9.84001 18.59 9.84001C18.63 9.84001 18.66 9.85001 18.7 9.85001C18.7 9.87001 18.72 9.89001 18.74 9.90001C18.76 9.91001 18.78 9.91001 18.8 9.91001C18.81 9.91001 18.82 9.91001 18.84 9.91001H19.15V10.85C19.15 10.85 19.17 10.9 19.2 10.9H19.58C19.58 10.9 19.58 11 19.58 11.05C19.58 11.11 19.58 11.17 19.58 11.23C19.54 11.23 19.49 11.23 19.44 11.23C19.34 11.25 19.29 11.25 19.18 11.24H19.09C19.02 11.24 18.95 11.24 18.88 11.24C18.77 11.24 18.66 11.25 18.55 11.24C18.39 11.22 18.23 11.22 18.06 11.21V11.31C18.23 11.31 18.39 11.32 18.54 11.34C18.59 11.34 18.64 11.34 18.68 11.34C18.75 11.34 18.82 11.34 18.88 11.34C18.95 11.34 19.02 11.34 19.09 11.34H19.18C19.29 11.34 19.35 11.34 19.46 11.33C19.5 11.33 19.54 11.33 19.59 11.33V11.39C19.59 11.47 19.59 11.56 19.6 11.64C19.6 11.64 19.6 11.66 19.6 11.67C19.6 11.7 19.6 11.75 19.62 11.78V11.85C19.62 11.85 19.62 11.9 19.62 11.93C19.62 11.97 19.62 12.01 19.62 12.05C19.62 12.13 19.62 12.2 19.62 12.28C19.62 12.3 19.62 12.32 19.62 12.35C19.62 12.39 19.62 12.43 19.62 12.46C19.6 12.52 19.45 12.51 19.39 12.51H19.37C19.3 12.51 19.24 12.5 19.17 12.5C19.05 12.49 18.94 12.48 18.82 12.49C18.73 12.49 18.64 12.51 18.55 12.52C18.48 12.52 18.41 12.54 18.34 12.54C18.24 12.54 18.15 12.56 18.06 12.56V12.66C18.16 12.66 18.26 12.65 18.35 12.64C18.42 12.64 18.49 12.62 18.56 12.62C18.65 12.61 18.73 12.6 18.82 12.59C18.93 12.59 19.04 12.59 19.15 12.6C19.22 12.6 19.29 12.61 19.36 12.61H19.38C19.45 12.61 19.52 12.61 19.61 12.59C19.61 12.62 19.61 12.65 19.61 12.68L19.63 12.71C19.63 12.71 19.63 12.8 19.65 12.83V12.86C19.65 12.86 19.66 12.93 19.67 12.97C19.68 13.04 19.7 13.11 19.69 13.18V13.2C19.69 13.2 19.69 13.34 19.66 13.37C19.63 13.4 19.56 13.4 19.5 13.4C19.48 13.4 19.5 13.4 19.49 13.4C19.35 13.4 19.22 13.41 19.08 13.42C18.95 13.42 18.81 13.43 18.68 13.44C18.56 13.44 18.43 13.44 18.31 13.45C18.23 13.45 18.14 13.45 18.05 13.45V13.55C18.14 13.55 18.22 13.55 18.31 13.55C18.43 13.55 18.56 13.55 18.68 13.54C18.82 13.54 18.95 13.53 19.08 13.52C19.22 13.52 19.35 13.51 19.49 13.5C19.48 13.5 19.51 13.5 19.49 13.5C19.57 13.5 19.66 13.5 19.72 13.44C19.8 13.44 19.89 13.45 19.97 13.46C20.08 13.47 20.24 13.49 20.36 13.49C20.38 13.49 20.4 13.49 20.43 13.49C20.45 13.49 20.48 13.49 20.5 13.49C20.58 13.49 20.57 13.49 20.66 13.46C20.66 13.49 20.66 13.53 20.64 13.59L20.62 13.65C20.6 13.74 20.58 13.82 20.57 13.92C20.57 14.02 20.58 14.12 20.59 14.21C20.59 14.26 20.61 14.31 20.61 14.35C20.61 14.37 20.61 14.39 20.61 14.4C20.6 14.4 20.57 14.4 20.56 14.4C20.55 14.4 20.53 14.4 20.52 14.4C20.47 14.4 20.52 14.4 20.47 14.4C20.42 14.4 20.36 14.4 20.31 14.4H19.35C19.25 14.4 19.16 14.4 19.06 14.4C18.97 14.4 18.87 14.41 18.79 14.43C18.74 14.43 18.69 14.45 18.64 14.45C18.51 14.46 18.38 14.47 18.25 14.47C18.18 14.47 18.12 14.47 18.05 14.47V14.57C18.12 14.57 18.19 14.57 18.25 14.57C18.38 14.57 18.51 14.56 18.64 14.55C18.69 14.55 18.74 14.54 18.79 14.53C18.88 14.51 18.96 14.5 19.05 14.5C19.15 14.5 19.24 14.5 19.34 14.5H19.93C19.93 14.56 19.93 14.63 19.93 14.69C19.96 14.98 19.98 15.24 19.98 15.5C19.98 15.52 19.98 15.6 19.98 15.7C19.98 16.23 19.97 16.45 19.98 16.55C19.98 16.55 19.91 16.55 19.87 16.56C19.73 16.57 19.6 16.56 19.47 16.56C19.37 16.55 19.27 16.55 19.18 16.55C19.11 16.55 19.05 16.55 18.98 16.55H18.93C18.64 16.53 18.34 16.51 18.05 16.55V16.66C18.33 16.61 18.64 16.63 18.93 16.65H18.98C19.05 16.65 19.11 16.65 19.18 16.66C19.27 16.66 19.37 16.66 19.46 16.67C19.51 16.67 19.57 16.68 19.62 16.68C19.62 16.97 19.62 17.27 19.62 17.56C19.62 17.81 19.62 18.05 19.62 18.29V18.32C19.62 18.32 19.62 18.35 19.62 18.36C19.62 18.4 19.6 18.4 19.5 18.42C19.35 18.44 19.19 18.44 19.03 18.45C18.94 18.45 18.86 18.45 18.76 18.45H18.59C18.48 18.46 18.36 18.47 18.25 18.48C18.19 18.48 18.13 18.48 18.08 18.49C18.08 18.49 18.07 18.49 18.06 18.49V18.59C18.06 18.59 18.08 18.59 18.09 18.59C18.15 18.59 18.2 18.59 18.26 18.58C18.37 18.58 18.49 18.57 18.6 18.56H18.77C18.86 18.55 18.94 18.55 19.03 18.55C19.19 18.55 19.35 18.55 19.52 18.52C19.55 18.52 19.57 18.52 19.6 18.51C19.6 18.53 19.6 18.55 19.6 18.56C19.6 18.59 19.6 18.62 19.6 18.64C19.6 18.71 19.6 18.78 19.61 18.84C19.61 18.88 19.61 18.92 19.61 18.95C19.61 19.02 19.61 19.1 19.61 19.17C19.61 19.2 19.61 19.23 19.61 19.27C19.59 19.27 19.57 19.28 19.56 19.29C19.49 19.34 19.48 19.43 19.48 19.53C19.48 19.64 19.48 19.74 19.48 19.85C19.48 20.01 19.48 20.17 19.46 20.33C19.42 20.33 19.37 20.33 19.33 20.33C19.22 20.33 19.11 20.33 18.99 20.33C18.88 20.33 18.76 20.34 18.65 20.35C18.52 20.35 18.39 20.36 18.26 20.37C18.22 20.37 18.16 20.38 18.11 20.4C18.1 20.4 18.09 20.4 18.07 20.4V20.51C18.07 20.51 18.11 20.51 18.12 20.5C18.17 20.5 18.22 20.48 18.26 20.48C18.39 20.47 18.52 20.46 18.64 20.45C18.75 20.45 18.87 20.44 18.98 20.43C19.09 20.43 19.2 20.43 19.31 20.43C19.35 20.43 19.4 20.43 19.45 20.43C19.45 20.49 19.46 20.55 19.47 20.61C19.48 20.7 19.49 20.78 19.49 20.87C19.49 20.97 19.49 21.07 19.49 21.17H19.59C19.59 21.07 19.59 20.97 19.59 20.87C19.59 20.78 19.59 20.69 19.57 20.6C19.57 20.52 19.55 20.43 19.55 20.35C19.56 20.18 19.57 20.01 19.57 19.85C19.57 19.74 19.57 19.64 19.57 19.53C19.57 19.5 19.57 19.42 19.6 19.38L19.65 19.4C19.88 19.41 20.1 19.44 20.32 19.47C20.38 19.47 20.44 19.49 20.5 19.49C20.41 19.71 20.46 19.98 20.5 20.21C20.51 20.28 20.52 20.36 20.53 20.42C20.55 20.58 20.52 20.73 20.49 20.89C20.47 20.98 20.46 21.07 20.45 21.15C20.45 21.15 20.45 21.17 20.45 21.18H20.56C20.56 21.18 20.56 21.18 20.56 21.17C20.57 21.08 20.58 21 20.6 20.91C20.63 20.75 20.65 20.59 20.64 20.41C20.64 20.36 20.63 20.31 20.62 20.25C21.17 20.15 21.76 20.17 22.32 20.19C22.41 20.19 22.5 20.19 22.58 20.19V20.08C22.49 20.08 22.41 20.08 22.32 20.08C21.75 20.06 21.16 20.05 20.6 20.15C20.56 19.93 20.53 19.69 20.61 19.5C20.7 19.51 20.79 19.52 20.88 19.53C20.99 19.54 21.1 19.55 21.21 19.55C21.29 19.55 21.37 19.55 21.46 19.53C21.5 19.53 21.54 19.52 21.57 19.51C21.62 19.5 21.67 19.49 21.72 19.48C21.98 19.45 22.27 19.44 22.58 19.43V19.33C22.26 19.33 21.98 19.35 21.71 19.38C21.65 19.38 21.6 19.4 21.55 19.41C21.51 19.41 21.48 19.42 21.44 19.43C21.27 19.46 21.09 19.45 20.9 19.43C20.72 19.42 20.53 19.39 20.35 19.37C20.14 19.34 19.93 19.32 19.72 19.3V19.17C19.72 19.09 19.72 19.02 19.72 18.94C19.72 18.9 19.72 18.86 19.71 18.82C19.71 18.75 19.7 18.69 19.71 18.63C19.71 18.61 19.71 18.58 19.71 18.56C19.71 18.52 19.72 18.47 19.71 18.43C19.72 18.41 19.73 18.4 19.73 18.37C19.73 18.35 19.73 18.32 19.73 18.3V18.28C19.73 18.04 19.73 17.79 19.73 17.55V17.49C20.27 17.49 20.81 17.48 21.35 17.48C21.49 17.48 21.62 17.48 21.76 17.48H22.25C22.33 17.48 22.4 17.48 22.48 17.5C22.51 17.5 22.55 17.5 22.58 17.51V17.42C22.64 17.43 22.68 17.47 22.73 17.5C22.79 17.55 22.79 17.6 22.76 17.66C22.79 17.68 22.83 17.69 22.87 17.7C22.89 17.68 22.91 17.66 22.94 17.66C22.98 17.66 23.02 17.66 23.05 17.68C23.1 17.72 23.15 17.76 23.19 17.8C23.19 17.8 23.2 17.82 23.2 17.83C23.21 17.86 23.2 17.9 23.19 17.93L23.28 18.01C23.28 18.01 23.36 18.01 23.4 18.01C23.44 18.01 23.48 18.01 23.5 18.04C23.53 18.06 23.55 18.09 23.55 18.12C23.55 18.13 23.55 18.15 23.55 18.17C23.59 18.15 23.63 18.17 23.66 18.18C23.68 18.18 23.7 18.2 23.72 18.21C23.73 18.2 23.74 18.14 23.76 18.13C23.76 18.13 23.87 18.09 23.87 18.15C23.87 18.09 23.93 18.05 24.02 18.03C24.02 18 24.01 17.97 24.01 17.95C24.01 17.92 24.03 17.9 24.07 17.89C24.1 17.89 24.12 17.88 24.15 17.87C24.17 17.87 24.2 17.87 24.23 17.87C24.29 17.88 24.35 17.89 24.39 17.92C24.41 17.93 24.43 17.95 24.46 17.96C24.5 17.9 24.57 17.87 24.66 17.85C24.67 17.85 24.71 17.85 24.74 17.85V16.22C24.74 16.22 24.72 16.22 24.7 16.22C24.7 16.2 24.69 16.17 24.68 16.15H24.38C24.38 16.15 24.38 16.16 24.37 16.17C24.35 16.19 24.34 16.2 24.32 16.22C24.31 16.2 24.29 16.18 24.29 16.16C24.29 15.99 24.29 15.81 24.29 15.64V15.31H24.04C24.04 15.31 24.02 15.25 24.01 15.2C24.01 15.24 24 15.27 23.99 15.3H23.73C23.73 15.35 23.73 15.4 23.73 15.46H23.6V15.3H23.58V15.45C23.58 15.45 23.51 15.46 23.47 15.47V15.91H23V15.68H22.6V17.42C22.6 17.42 22.54 17.42 22.51 17.41C22.43 17.41 22.35 17.39 22.27 17.39H21.78C21.65 17.39 21.52 17.39 21.39 17.39C21.39 17.34 21.4 17.29 21.41 17.24C21.42 17.19 21.43 17.15 21.43 17.1C21.43 17.03 21.43 16.96 21.43 16.9C21.43 16.86 21.43 16.82 21.43 16.78C21.43 16.77 21.43 16.75 21.43 16.73C21.43 16.69 21.43 16.65 21.43 16.61C21.43 16.57 21.4 16.54 21.38 16.52C21.37 16.5 21.36 16.49 21.35 16.48C21.34 16.45 21.33 16.43 21.32 16.4C21.32 16.37 21.3 16.34 21.29 16.31C21.27 16.27 21.27 16.24 21.27 16.19C21.27 15.99 21.25 15.8 21.22 15.59V15.56C21.22 15.56 21.21 15.52 21.22 15.51C21.25 15.51 21.4 15.51 21.44 15.51C21.47 15.51 21.49 15.51 21.52 15.51C21.75 15.51 21.88 15.51 22.11 15.52C22.27 15.52 22.44 15.53 22.6 15.53V15.43C22.44 15.43 22.27 15.43 22.12 15.41C21.93 15.41 21.84 15.39 21.64 15.4C21.64 15.37 21.64 15.35 21.64 15.32V15.26C21.64 15.14 21.63 15.03 21.62 14.94C21.62 14.9 21.62 14.87 21.62 14.84C21.62 14.78 21.62 14.72 21.6 14.66C21.62 14.6 21.61 14.53 21.6 14.47C21.6 14.45 21.6 14.43 21.6 14.42C21.6 14.3 21.6 14.18 21.58 14.05C21.6 14.05 21.61 14.05 21.63 14.05C21.65 14.05 21.66 14.05 21.67 14.05C21.84 14.08 21.87 14.1 22.02 14.1C22.11 14.1 22.19 14.1 22.28 14.1C22.34 14.1 22.4 14.1 22.46 14.11H22.49C22.49 14.11 22.53 14.11 22.55 14.11C22.58 14.11 22.6 14.11 22.62 14.11V14H22.61C22.61 14 22.54 14 22.5 14H22.47C22.41 14 22.35 14 22.29 13.99C22.21 13.99 22.11 13.98 22.03 13.99C21.89 13.99 21.87 13.98 21.71 13.94C21.69 13.94 21.67 13.94 21.65 13.94C21.63 13.94 21.58 13.94 21.57 13.93C21.55 13.92 21.55 13.85 21.54 13.82V13.79C21.52 13.65 21.51 13.51 21.51 13.38V13C21.51 13 21.51 12.94 21.51 12.91C21.51 12.88 21.51 12.84 21.51 12.8C21.51 12.76 21.51 12.74 21.51 12.72C21.51 12.69 21.52 12.66 21.53 12.63C21.53 12.62 21.53 12.6 21.53 12.59C21.54 12.53 21.55 12.47 21.56 12.4C21.58 12.28 21.59 12.16 21.63 12.05C21.63 12.04 21.64 12.02 21.65 12.01C21.66 11.98 21.67 11.96 21.68 11.93H21.79C21.92 11.93 21.95 11.93 22.08 11.93H22.3C22.36 11.93 22.43 11.93 22.49 11.93C22.53 11.93 22.57 11.93 22.61 11.93V13.15C22.69 13.17 22.77 13.19 22.84 13.17C23.02 13.12 23.06 12.9 23.25 12.9C23.28 12.9 23.3 12.9 23.32 12.9C23.4 12.76 23.49 12.72 23.73 12.76C23.75 12.6 23.84 12.49 24.04 12.46C24.04 12.33 24.12 12.24 24.26 12.2C24.26 12.16 24.24 12.12 24.24 12.08C24.24 12.08 24.25 12.08 24.26 12.08C24.26 12.05 24.24 12.02 24.24 11.99C24.25 11.96 24.28 11.93 24.32 11.92C24.36 11.91 24.4 11.89 24.45 11.88C24.48 11.86 24.53 11.86 24.57 11.87C24.64 11.88 24.71 11.9 24.77 11.92V8.43001C24.34 8.27001 23.89 8.25001 23.46 8.40001L23.37 8.36001ZM19.73 8.28001C19.73 8.23001 19.73 8.18001 19.73 8.13001C19.73 8.09001 19.73 8.04001 19.73 7.98001C19.73 7.91001 19.73 7.84001 19.73 7.78001V7.75001C19.81 7.75001 19.89 7.75001 19.97 7.75001C20.04 7.75001 20.1 7.75001 20.17 7.75001H20.97C20.97 7.75001 20.97 7.83001 20.97 7.87001C20.97 7.93001 20.97 7.98001 20.97 8.04001C20.97 8.12001 20.95 8.19001 20.93 8.27001V8.29001C20.91 8.38001 20.9 8.47001 20.9 8.56001C20.86 8.56001 20.82 8.56001 20.79 8.56001H20.76C20.54 8.56001 20.32 8.58001 20.09 8.61001C20.03 8.61001 19.98 8.63001 19.93 8.64001C19.85 8.65001 19.78 8.66001 19.7 8.67001C19.7 8.54001 19.7 8.41001 19.7 8.28001H19.73ZM19.97 8.75001C20.02 8.75001 20.07 8.73001 20.13 8.73001C20.35 8.71001 20.58 8.69001 20.79 8.68001H20.83C20.83 8.68001 20.9 8.68001 20.94 8.68001C20.94 8.69001 20.94 8.70001 20.94 8.71001C20.94 8.76001 20.94 8.81001 20.94 8.86001C20.94 8.95001 20.94 9.04001 20.94 9.14001C20.94 9.22001 20.95 9.29001 20.95 9.36001H19.73C19.73 9.25001 19.73 9.15001 19.73 9.04001C19.73 8.95001 19.73 8.87001 19.73 8.77001C19.82 8.77001 19.9 8.75001 19.97 8.74001V8.75001ZM18.74 7.49001C18.76 7.40001 18.78 7.31001 18.78 7.21001H19.66C19.62 7.31001 19.63 7.43001 19.64 7.54001C19.64 7.59001 19.65 7.64001 19.65 7.68001C19.65 7.71001 19.65 7.75001 19.65 7.78001C19.65 7.83001 19.65 7.88001 19.65 7.92001C19.57 7.92001 19.49 7.92001 19.41 7.92001C19.22 7.92001 19.02 7.92001 18.83 7.92001C18.8 7.92001 18.77 7.92001 18.75 7.93001C18.75 7.93001 18.75 7.93001 18.74 7.93001C18.73 7.86001 18.71 7.79001 18.71 7.72001C18.71 7.64001 18.73 7.56001 18.75 7.47001L18.74 7.49001ZM19.09 9.42001V9.78001H18.76C18.76 9.78001 18.73 9.78001 18.74 9.78001C18.74 9.78001 18.74 9.73001 18.74 9.71001C18.74 9.70001 18.74 9.68001 18.74 9.67001C18.74 9.54001 18.74 9.41001 18.74 9.28001V8.93001C18.74 8.93001 18.74 8.88001 18.74 8.85001C18.74 8.81001 18.74 8.75001 18.71 8.61001C18.7 8.57001 18.69 8.51001 18.69 8.50001C18.69 8.48001 18.69 8.47001 18.7 8.45001C18.7 8.44001 18.71 8.42001 18.72 8.40001C18.72 8.38001 18.73 8.36001 18.74 8.34001C18.75 8.30001 18.77 8.26001 18.77 8.20001C18.77 8.14001 18.77 8.09001 18.76 8.03001H18.77C18.79 8.03001 18.82 8.03001 18.84 8.02001C19.03 8.01001 19.22 8.02001 19.41 8.02001C19.49 8.02001 19.57 8.02001 19.65 8.02001C19.65 8.06001 19.65 8.09001 19.65 8.12001C19.65 8.17001 19.65 8.22001 19.65 8.28001C19.65 8.44001 19.65 8.60001 19.65 8.75001C19.65 8.85001 19.65 8.95001 19.65 9.04001C19.65 9.14001 19.65 9.25001 19.65 9.36001H19.16C19.16 9.36001 19.11 9.38001 19.11 9.41001L19.09 9.42001ZM19.19 10.77V9.47001H21.23V10.77H19.19ZM20.45 13.37C20.45 13.37 20.4 13.37 20.37 13.37C20.24 13.37 20.07 13.37 19.94 13.35C19.87 13.35 19.8 13.33 19.73 13.33C19.74 13.28 19.74 13.23 19.74 13.19C19.74 13.09 19.73 13.02 19.71 12.94C19.71 12.91 19.71 12.87 19.7 12.84V12.81C19.7 12.81 19.69 12.75 19.68 12.72C19.73 12.72 19.77 12.72 19.81 12.72C19.86 12.72 19.96 12.72 20.01 12.72C20.03 12.72 20.05 12.72 20.07 12.72H20.12C20.2 12.72 20.2 12.72 20.28 12.72C20.31 12.72 20.35 12.73 20.38 12.74C20.43 12.75 20.46 12.77 20.52 12.77C20.59 12.77 20.65 12.77 20.72 12.78C20.72 12.81 20.72 12.87 20.72 12.91C20.72 12.93 20.72 12.95 20.72 12.97C20.72 12.99 20.72 13.01 20.72 13.04C20.72 13.12 20.72 13.2 20.69 13.26C20.68 13.3 20.67 13.31 20.65 13.32C20.57 13.37 20.57 13.37 20.47 13.37H20.45ZM21.24 16.63C21.24 16.63 21.24 16.67 21.24 16.7C21.24 16.72 21.24 16.74 21.24 16.75C21.24 16.8 21.24 16.84 21.24 16.88C21.24 16.94 21.25 17 21.24 17.06C21.24 17.1 21.23 17.15 21.22 17.18C21.21 17.24 21.2 17.29 21.19 17.35C20.68 17.35 20.17 17.35 19.66 17.36C19.66 17.12 19.66 16.88 19.66 16.65C19.71 16.65 19.77 16.65 19.82 16.65C19.86 16.65 19.89 16.65 19.93 16.64C20.1 16.62 20.27 16.63 20.44 16.64H20.49C20.63 16.64 20.79 16.65 20.93 16.64H20.95C20.95 16.64 21.02 16.64 21.06 16.63C21.08 16.63 21.1 16.63 21.12 16.63C21.16 16.63 21.2 16.63 21.23 16.63H21.24ZM21.42 14.8C21.42 14.8 21.42 14.87 21.42 14.91C21.43 15 21.44 15.11 21.44 15.23C21.44 15.25 21.44 15.27 21.44 15.28C21.44 15.31 21.44 15.33 21.44 15.36H21.42C21.42 15.36 21.37 15.36 21.35 15.36C21.31 15.36 21.16 15.36 21.11 15.36C21.08 15.36 21.05 15.38 21.03 15.4C21 15.44 21.01 15.49 21.02 15.53V15.56C21.06 15.77 21.07 15.96 21.07 16.15C21.07 16.21 21.07 16.26 21.1 16.31C21.1 16.34 21.12 16.36 21.12 16.39C21.12 16.42 21.13 16.46 21.15 16.49C21.15 16.51 21.16 16.52 21.17 16.53C21.15 16.53 21.13 16.53 21.11 16.53C21.09 16.53 21.07 16.53 21.05 16.53C21.01 16.53 20.97 16.53 20.93 16.53H20.91C20.77 16.55 20.62 16.54 20.48 16.53H20.43C20.29 16.53 20.15 16.53 20.01 16.53C20.01 16.39 20.01 15.93 20.01 15.69C20.01 15.59 20.01 15.51 20.01 15.49C20.01 15.23 20 14.97 19.96 14.67C19.96 14.61 19.96 14.55 19.96 14.49H20.22C20.27 14.49 20.33 14.49 20.38 14.49C20.43 14.49 20.38 14.49 20.43 14.49C20.43 14.49 20.45 14.49 20.46 14.49C20.48 14.49 20.5 14.49 20.53 14.49V14.65C20.53 14.65 20.55 14.7 20.58 14.7C20.62 14.7 20.65 14.7 20.69 14.7C20.77 14.7 20.96 14.71 21.04 14.71C21.11 14.71 21.28 14.71 21.34 14.69H21.35C21.35 14.69 21.37 14.69 21.38 14.69C21.38 14.72 21.38 14.75 21.38 14.78L21.42 14.8ZM21.4 14.6C21.4 14.6 21.4 14.6 21.37 14.6H21.35C21.22 14.62 20.87 14.62 20.73 14.6C20.71 14.6 20.69 14.6 20.67 14.6C20.67 14.5 20.67 14.41 20.67 14.32C20.67 14.27 20.66 14.22 20.65 14.17C20.64 14.08 20.63 13.99 20.63 13.9C20.63 13.82 20.65 13.74 20.67 13.65L20.69 13.59C20.71 13.51 20.71 13.47 20.71 13.43C20.71 13.41 20.71 13.39 20.71 13.37C20.74 13.35 20.75 13.32 20.76 13.28C20.78 13.2 20.79 13.11 20.8 13.03C20.8 13.01 20.8 12.99 20.8 12.96C20.8 12.94 20.8 12.93 20.8 12.91C20.8 12.86 20.81 12.81 20.8 12.76H20.84C20.84 12.76 20.87 12.76 20.89 12.76C20.91 12.76 21.05 12.76 21.07 12.76C21.11 12.76 21.26 12.76 21.29 12.74C21.29 12.77 21.29 12.8 21.29 12.83V13.3C21.29 13.43 21.29 13.58 21.31 13.73V13.76C21.31 13.76 21.33 13.84 21.34 13.88C21.34 13.91 21.35 13.94 21.36 13.96C21.36 13.97 21.37 13.98 21.37 14C21.39 14.12 21.39 14.23 21.39 14.35C21.39 14.37 21.39 14.38 21.39 14.41C21.39 14.46 21.39 14.55 21.38 14.58L21.4 14.6ZM21.46 11.92C21.46 11.92 21.44 11.96 21.44 11.97C21.4 12.09 21.38 12.22 21.36 12.34C21.36 12.4 21.34 12.46 21.33 12.52C21.33 12.54 21.33 12.55 21.33 12.57C21.33 12.6 21.33 12.62 21.32 12.64C21.3 12.68 20.99 12.68 20.92 12.67C20.9 12.67 20.88 12.67 20.87 12.67H20.83C20.74 12.67 20.64 12.67 20.55 12.67C20.5 12.67 20.48 12.65 20.42 12.64C20.38 12.64 20.35 12.62 20.31 12.62C20.23 12.61 20.21 12.61 20.13 12.61H20.08C20.08 12.61 20.04 12.61 20.02 12.61C19.97 12.61 19.87 12.61 19.82 12.61C19.77 12.61 19.72 12.61 19.67 12.61C19.67 12.58 19.67 12.56 19.67 12.53C19.67 12.52 19.67 12.51 19.67 12.5C19.69 12.45 19.69 12.39 19.68 12.34C19.68 12.32 19.68 12.3 19.68 12.29C19.68 12.21 19.68 12.13 19.68 12.05C19.68 12.01 19.68 11.97 19.68 11.93C19.68 11.9 19.68 11.88 19.68 11.85C19.72 11.86 19.75 11.86 19.79 11.86C19.81 11.86 19.83 11.86 19.85 11.86H19.9C19.96 11.87 20.07 11.88 20.13 11.88C20.25 11.88 20.37 11.88 20.49 11.88C20.61 11.88 20.73 11.88 20.84 11.88C21.01 11.88 21.31 11.88 21.51 11.89C21.51 11.9 21.5 11.92 21.49 11.92H21.46ZM22.52 11.79C22.52 11.79 22.44 11.79 22.4 11.79C22.33 11.79 22.27 11.79 22.2 11.79H21.98C21.85 11.79 21.82 11.79 21.69 11.79C21.4 11.79 21.04 11.79 20.81 11.78C20.69 11.78 20.57 11.78 20.46 11.78C20.34 11.78 20.22 11.78 20.1 11.78C20.04 11.78 19.94 11.78 19.88 11.76H19.83C19.83 11.76 19.79 11.75 19.77 11.75C19.74 11.75 19.71 11.75 19.68 11.74C19.68 11.74 19.66 11.74 19.65 11.74C19.65 11.72 19.65 11.69 19.65 11.67V11.63C19.65 11.55 19.65 11.46 19.64 11.38V11.29C19.64 11.21 19.64 11.12 19.64 11.04C19.64 10.99 19.64 10.94 19.64 10.89H21.29C21.29 10.89 21.34 10.87 21.34 10.84V10.38C21.57 10.42 21.81 10.44 22.07 10.44C22.07 10.44 22.15 10.44 22.19 10.44C22.27 10.44 22.35 10.44 22.44 10.44H22.48C22.48 10.44 22.51 10.44 22.52 10.44V11.81V11.79ZM22.52 10.31C22.52 10.31 22.5 10.31 22.48 10.31H22.44C22.35 10.31 22.27 10.31 22.19 10.31C22.15 10.31 22.1 10.31 22.07 10.31C21.81 10.31 21.57 10.29 21.34 10.26V9.71001C21.42 9.71001 21.48 9.71001 21.55 9.72001C21.81 9.74001 22.06 9.75001 22.34 9.75001C22.34 9.75001 22.36 9.75001 22.38 9.75001C22.39 9.75001 22.41 9.75001 22.42 9.75001C22.43 9.75001 22.5 9.75001 22.52 9.75001V10.31Z" fill="white" style="fill:white;fill-opacity:1;"/>
<path id="Vector_37" d="M12.46 16.28C12.46 16.28 12.43 16.28 12.42 16.28C12.34 16.3 12.29 16.39 12.32 16.48C12.34 16.55 12.4 16.6 12.47 16.6C12.47 16.6 12.5 16.6 12.51 16.6C12.59 16.58 12.64 16.49 12.61 16.4C12.59 16.33 12.53 16.28 12.46 16.28Z" fill="white" style="fill:white;fill-opacity:1;"/>
<path id="Vector_38" d="M12.98 21.18V20.98H14.79V20.72H14.5H12.34V20.5H14.23V18.94H15.71V18.67H14.16V19.13C14.16 19.32 13.97 19.24 13.98 19.07C14 18.86 13.83 19.03 13.8 19C13.72 18.91 13.62 18.96 13.56 19.06V18.89H13.5V18.33C13.5 18.33 13.55 18.24 13.6 18.24C13.65 18.23 13.72 18.22 13.72 18.28C13.88 18.21 13.72 18.15 13.82 18.04C13.88 17.98 13.96 17.96 13.97 17.96C13.99 17.89 14 17.8 14.08 17.8C14.22 17.81 14.22 17.7 14.3 17.71C14.35 17.71 14.38 17.71 14.37 17.62C14.37 17.59 14.39 17.56 14.4 17.54C14.41 17.52 14.43 17.51 14.46 17.5C14.48 17.5 14.5 17.5 14.52 17.5C14.54 17.5 14.59 17.43 14.61 17.43C14.64 17.43 14.63 17.39 14.65 17.37C14.68 17.33 14.69 17.33 14.72 17.3C14.74 17.28 14.8 17.32 14.82 17.31C14.89 17.29 14.92 17.35 14.93 17.37C14.94 17.4 14.99 17.45 15.03 17.48C15.03 17.46 15.03 17.44 15.03 17.43V16.84H15.27V16.34C15.27 16.34 16.09 16.34 16.12 16.34V16.57H16.82V17.27H16.93V17.14C17.02 17.14 16.98 17.12 17.06 17.12C17.11 17.12 17.17 17.12 17.23 17.12V16.93H17.46C17.46 16.93 17.47 16.69 17.48 16.71H17.6V15.27C17.6 15.27 17.6 15.28 17.59 15.28C17.53 15.28 17.42 15.16 17.37 15.16C17.35 15.16 17.26 15.12 17.23 15.12C17.19 15.11 17.2 15.2 17.16 15.22C17.13 15.23 17.09 15.23 17.06 15.22C17.02 15.2 16.89 15.06 16.84 15.07C16.73 15.08 16.67 15.2 16.62 15.16C16.59 15.14 16.55 15.08 16.5 15.08C16.41 15.08 16.4 15.11 16.39 15.16C16.39 15.16 16.36 15.19 16.35 15.2C16.35 15.2 16.24 15.06 16.19 15.03C16.14 15 16.04 15.03 16.01 15.03C15.87 14.98 16.01 14.8 15.85 14.76C15.75 14.74 15.67 14.8 15.62 14.85C15.57 14.85 15.53 14.79 15.49 14.79C15.45 14.79 15.41 14.8 15.37 14.81C15.32 14.81 15.27 14.83 15.22 14.83C15.15 14.83 15.1 14.85 15.07 14.88C15.05 14.91 15.03 14.94 15.01 14.97C15 14.98 14.99 15 14.98 15.02C14.9 15.02 14.83 15.02 14.76 15.01C14.66 15.01 14.59 15.03 14.58 15.08C14.57 15.13 14.53 15.16 14.46 15.19C14.39 15.21 14.33 15.25 14.29 15.29C14.27 15.32 14.23 15.33 14.18 15.34C14.05 15.35 14.11 15.28 13.97 15.29C13.95 15.29 13.83 15.37 13.81 15.37C13.81 15.37 13.79 15.37 13.79 15.36C13.81 15.3 13.79 15.2 13.72 15.15C13.67 15.1 13.58 15.15 13.48 15.14C13.45 15.08 13.4 15.04 13.32 15.03C13.3 15.03 13.28 15 13.27 14.99C13.21 14.92 12.97 14.82 12.91 14.92C12.88 14.97 12.8 14.83 12.72 15.02C12.69 15 12.67 15.02 12.64 15.01C12.59 14.98 12.59 14.95 12.53 14.94C12.51 14.94 12.49 14.97 12.47 14.98C12.44 14.98 12.4 14.93 12.36 14.94C12.33 14.94 12.3 14.96 12.29 15C12.29 15.04 12.29 15.05 12.29 15.07C12.27 15.11 12.24 15.11 12.23 15.11C12.19 15.11 12.16 15.07 12.12 15.08C12.03 15.1 12 15.13 12.03 15.2C11.94 15.16 11.9 15.22 11.88 15.31C11.73 15.29 11.73 15.43 11.68 15.51C11.66 15.51 11.65 15.51 11.63 15.51C11.55 15.51 11.53 15.52 11.5 15.57C11.5 15.59 11.48 15.6 11.47 15.61C11.44 15.63 11.41 15.64 11.37 15.66C11.28 15.6 11.18 15.6 11.08 15.6C11.08 15.58 11.08 15.55 11.08 15.53C11.08 15.51 11.08 15.5 11.06 15.49C10.98 15.44 10.91 15.38 10.83 15.33C10.79 15.3 10.72 15.29 10.65 15.3C10.59 15.3 10.56 15.33 10.53 15.35C10.49 15.35 10.47 15.35 10.44 15.33C10.46 15.31 10.44 15.22 10.35 15.23C10.22 15.13 10.3 15.23 10.17 15.18C10.22 15.05 10.23 15.01 10.15 14.99C10.1 14.96 10.05 14.97 9.96999 14.97C9.91999 14.9 9.93999 14.67 9.80999 14.63C9.65999 14.58 9.64999 14.74 9.62999 14.72C9.43999 14.52 9.24999 14.61 9.20999 14.72C9.20999 14.72 9.07999 14.43 8.79999 14.82C8.78999 14.52 8.63999 14.72 8.59999 14.68C8.48999 14.57 8.37999 14.54 8.29999 14.57V16.12H9.59999V16.87H9.98999V17.13H9.84999V18.45H9.98999V18.71H9.93999V20.08H10.08V20.15C10.08 20.15 10.09 20.17 10.1 20.18C10.11 20.2 10.12 20.21 10.15 20.23C10.15 20.23 10.16 20.23 10.17 20.23V20.27H10.21L10.26 20.22C10.35 20.19 10.35 20.24 10.46 20.25C10.58 20.25 10.67 20.31 10.67 20.39C10.67 20.41 10.67 20.43 10.66 20.45C10.66 20.47 10.64 20.48 10.63 20.5C10.66 20.52 10.71 20.53 10.71 20.57C10.71 20.58 10.74 20.6 10.75 20.61C10.76 20.61 10.78 20.61 10.79 20.63C10.85 20.67 10.86 20.7 10.81 20.74C10.79 20.76 10.76 20.77 10.73 20.79C10.69 20.82 10.69 20.9 10.7 20.94C10.68 20.91 10.65 20.9 10.63 20.88C10.64 20.86 10.65 20.83 10.66 20.81C10.66 20.78 10.67 20.76 10.67 20.73C10.67 20.63 10.58 20.55 10.46 20.55C10.32 20.55 10.17 20.55 10.06 20.64C10.01 20.61 9.96999 20.59 9.92999 20.56C9.89999 20.55 9.88999 20.53 9.87999 20.5C9.84999 20.42 9.81999 20.4 9.71999 20.4C9.69999 20.4 9.67999 20.4 9.65999 20.4C9.59999 20.29 9.51999 20.26 9.31999 20.29C9.31999 20.26 9.30999 20.23 9.29999 20.2C9.27999 20.17 9.26999 20.14 9.23999 20.12H8.30999V21.25C9.94999 21.25 11.58 21.25 13.22 21.25H13.02L12.98 21.18ZM13.53 18.92V19.1H13.35V18.92H13.53ZM13.31 19.48C13.31 19.48 13.31 19.47 13.31 19.46C13.31 19.46 13.31 19.46 13.31 19.45C13.31 19.44 13.29 19.42 13.28 19.41C13.28 19.41 13.26 19.4 13.25 19.39C13.25 19.39 13.22 19.39 13.21 19.39C13.21 19.39 13.18 19.39 13.17 19.39C13.17 19.39 13.16 19.39 13.15 19.39C13.14 19.39 13.13 19.4 13.12 19.41C13.09 19.44 13.07 19.48 13.06 19.52C13.04 19.52 12.98 19.52 12.99 19.53C12.99 19.54 12.95 19.53 12.94 19.57C12.94 19.59 12.91 19.66 12.89 19.67C12.88 19.67 12.87 19.67 12.85 19.66C12.8 19.66 12.8 19.71 12.75 19.71C12.72 19.71 12.71 19.73 12.71 19.75C12.71 19.79 12.66 19.77 12.65 19.8C12.64 19.8 12.62 19.8 12.6 19.8C12.59 19.8 12.57 19.8 12.56 19.8H12.53C12.53 19.8 12.5 19.81 12.5 19.83C12.5 19.83 12.5 19.83 12.5 19.84C12.5 19.85 12.5 19.86 12.5 19.87C12.5 19.89 12.5 19.9 12.52 19.91H12.47C12.47 19.91 12.44 19.89 12.43 19.88C12.41 19.88 12.39 19.87 12.36 19.86C12.38 19.88 12.36 19.95 12.34 19.91C12.28 19.81 12.24 19.86 12.22 19.87C12.21 19.87 12.26 19.81 12.16 19.76C12.16 19.76 12.11 19.73 12.04 19.8V19.21H13.52V19.5H13.35V19.49L13.31 19.48ZM11.98 19.17V19.14H13.53V19.17H11.98ZM12.04 16.09L12.73 16.05H12.82V16.01H12.86L13.5 16.04V16.13H13.45V16.1H13.34L12.86 16.07H12.82L12.42 16.08H12.16L12.14 16.09H12.04ZM13.38 15.95H13.4C13.4 15.95 13.41 15.95 13.42 15.96V15.98C13.42 15.98 13.42 15.98 13.41 15.98L12.92 15.96C12.92 15.96 12.91 15.96 12.9 15.95V15.93C12.9 15.93 12.9 15.93 12.91 15.93L13.39 15.95H13.38ZM12.99 15.87V15.86H13.28V15.87V15.89L12.99 15.87ZM13.47 16.71V16.73H13.37V16.71H13.47ZM13.41 16.66V16.24H13.45V16.67H13.43H13.41V16.66ZM13.37 16.17V16.15H13.47V16.17H13.37ZM13.26 16.4C13.26 16.4 13.26 16.48 13.26 16.52C13.24 16.55 13.22 16.58 13.19 16.59C13.19 16.59 13.17 16.59 13.16 16.59C13.11 16.59 13.06 16.55 13.05 16.48C13.04 16.44 13.05 16.4 13.06 16.36C13.08 16.33 13.1 16.3 13.13 16.29C13.13 16.29 13.15 16.29 13.16 16.29C13.21 16.29 13.26 16.33 13.27 16.4H13.26ZM12.93 16.69V16.71H12.87H12.86V16.69H12.94H12.93ZM12.91 16.64V16.22H12.93V16.64H12.91ZM12.93 16.15H12.87H12.86V16.13H12.94V16.15H12.93ZM12.17 18.89V16.99H12.2V16.91L12.65 16.89V16.97H12.69V18.9H12.65V19.12H12.21V18.9H12.17V18.89ZM12.69 18.92H12.96V19.1H12.69V18.92ZM12.73 16.16H12.71V16.14H12.82V16.16H12.73ZM12.82 16.22V16.64H12.75V16.22H12.82ZM12.73 16.69H12.74H12.8V16.71H12.73H12.72V16.69H12.73ZM12.83 16.95V18.88H12.73V16.95H12.81H12.83ZM12.82 16.88H12.71H12.7L12.82 16.86V16.88ZM12.91 18.89V16.96H12.93V18.89H12.91ZM12.95 16.89H12.94H12.89H12.86H12.95ZM12.7 16.22V16.64V16.71L12.23 16.73V16.24H12.25V16.18L12.66 16.16H12.68V16.21H12.71L12.7 16.22ZM12.11 16.68V16.26H12.18V16.68H12.16H12.11ZM12.16 16.72V16.74H12.11H12.08V16.72H12.09H12.16ZM12.07 16.19V16.17H12.18V16.18H12.07V16.19ZM12.74 16.75H12.82V16.78L11.95 16.83V16.8L12.74 16.76V16.75ZM12.03 16.91H12.05H12.11H12.15L12.14 16.92H12.06H12.04H12.03V16.91ZM12.15 18.92H12.17V19.1H11.98V18.92H12.15ZM13.42 16.91H13.39V16.9H13.41H13.47H13.4L13.42 16.91ZM13.47 16.95V18.88H13.4V16.95H13.47ZM13.53 16.8L12.85 16.77V16.74L13.53 16.77V16.8ZM12.25 15.85H12.29L12.58 15.83H12.6H12.61L12.66 15.86H12.65C12.49 15.89 12.33 15.88 12.17 15.89C12.17 15.89 12.17 15.89 12.16 15.89L12.13 15.91C12.13 15.91 12.13 15.91 12.13 15.92C12.13 15.92 12.13 15.92 12.14 15.92H12.16L12.72 15.89C12.72 15.89 12.72 15.89 12.72 15.88L12.75 15.9L12.79 15.92V15.9L12.37 15.62V15.52H13.15V15.62L13.12 15.66V15.68H13.11C13.11 15.68 13.11 15.68 13.12 15.68C13.24 15.78 13.36 15.88 13.47 15.98H13.54L13.45 15.89L13.16 15.63V15.52C13.16 15.52 13.16 15.52 13.16 15.51L13.56 15.87C13.56 15.87 13.56 15.88 13.56 15.89C13.56 15.89 13.56 15.93 13.56 15.94C13.56 15.95 13.56 15.97 13.56 15.98C13.56 15.99 13.56 16 13.56 16.01H13.54H13.47V15.99H13.44H13.42H13.4V15.96L13.14 15.75V15.77C13.14 15.77 13.14 15.78 13.14 15.79V15.81H13.1L13.13 15.77V15.73L12.84 15.94V15.97H12.8H12.76V15.94C12.76 15.94 12.76 15.95 12.75 15.95L12.12 15.98H12.11V16H11.91H11.93C11.98 15.96 12.04 15.92 12.09 15.88L12.37 15.68L12.42 15.73L12.49 15.77H12.47V15.81H12.43C12.43 15.81 12.42 15.81 12.41 15.81C12.41 15.81 12.4 15.81 12.39 15.8C12.39 15.8 12.39 15.8 12.39 15.79V15.77H12.33C12.33 15.77 12.33 15.77 12.32 15.77L12.3 15.79L12.28 15.81L12.25 15.83C12.25 15.83 12.25 15.83 12.25 15.84H12.27L12.25 15.85ZM11.85 15.92V15.9C11.85 15.9 11.85 15.89 11.85 15.88L12.35 15.52V15.57L11.95 15.85L11.87 15.91C11.87 15.91 11.84 15.92 11.84 15.91L11.85 15.92ZM11.52 19.37C11.52 19.37 11.51 19.28 11.52 19.25C11.54 19.17 11.49 19.1 11.4 19.04C11.32 18.98 11.23 18.95 11.1 18.96C10.99 18.96 10.88 18.96 10.75 18.96C10.75 18.96 10.77 18.73 10.63 18.77C10.49 18.81 10.51 18.77 10.51 18.77C10.57 18.7 10.58 18.62 10.55 18.53C10.54 18.5 10.54 18.47 10.51 18.45C10.38 18.34 10.25 18.23 10.11 18.13C10.06 18.09 9.97999 18.07 9.89999 18.07V17.43C9.95999 17.43 10.01 17.44 10.05 17.47C10.16 17.53 10.26 17.58 10.35 17.64C10.36 17.64 10.37 17.65 10.37 17.66C10.37 17.66 10.37 17.67 10.37 17.68C10.39 17.73 10.38 17.77 10.34 17.81L10.39 17.84H10.56L10.72 17.94C10.84 17.94 10.95 17.94 11.07 17.94C11.2 17.94 11.29 17.96 11.37 18C11.46 18.04 11.51 18.09 11.49 18.15C11.49 18.17 11.49 18.2 11.49 18.24C11.63 18.21 11.72 18.23 11.81 18.27C11.86 18.29 11.93 18.31 11.99 18.33C11.99 18.33 11.99 18.33 12.01 18.33V18.89H11.91V19.22H11.95V19.46C11.95 19.46 11.85 19.44 11.81 19.42C11.72 19.37 11.63 19.34 11.49 19.38L11.52 19.37ZM11.71 20.05H13.91V20.26H11.71V20.05Z" fill="white" style="fill:white;fill-opacity:1;"/>
<path id="Vector_39" d="M23.95 7.73996C24.15 7.83996 24.42 7.90996 24.67 7.99996V4.82996L23.47 5.51996C23.88 5.99996 24.12 6.71996 23.95 7.74996V7.73996Z" fill="white" style="fill:white;fill-opacity:1;"/>
<path id="Vector_40" d="M9.76 18.63H8.28V19.46H9.76V18.63Z" fill="white" style="fill:white;fill-opacity:1;"/>
<path id="Vector_41" d="M9.03 17.0601H8.75V18.3801H9.03V17.0601Z" fill="white" style="fill:white;fill-opacity:1;"/>
<path id="Vector_42" d="M8.48999 17.0601H8.26999V18.3801H8.48999V17.0601Z" fill="white" style="fill:white;fill-opacity:1;"/>
<path id="Vector_43" d="M17.34 13.31C17.34 13.25 17.34 13.2 17.35 13.14H17.6V12.23C16.44 11.58 14.89 11.05 12.92 11.05C10.95 11.05 9.44 11.56 8.28 12.2V13.66H8.77V13.1C8.85 13.1 8.91 13.1 9.01 13.09V12.78H9.05V13.08H9.41V13.67C9.41 13.67 9.5 13.67 9.55 13.66C9.55 13.63 9.55 13.23 9.55 12.96C9.54 12.91 9.55 12.87 9.55 12.82C9.55 12.46 9.84 12.16 10.21 12.16C10.58 12.16 10.86 12.45 10.86 12.82C10.86 12.85 10.86 12.88 10.86 12.91V13.71C10.86 13.71 10.98 13.69 10.98 13.89H11.1C11.1 13.89 11.08 13.49 11.22 13.53C11.22 13.56 11.24 13.59 11.24 13.62H11.4C11.4 13.56 11.4 13.51 11.41 13.46H12.08V14.3H12.4C12.4 14.36 12.4 14.42 12.41 14.47H12.96V13.53C12.96 13.53 13.04 13.52 13.09 13.51V12.88H14.17L14.56 13.29V14.46H14.79V14.19L15 14C15.08 14 15.17 14 15.27 14V13.83C15.39 13.83 15.53 13.83 15.64 13.83C15.64 13.8 15.64 13.59 15.64 13.56H15.74V13.34H15.82V13.18H15.92V12.94H16.17V13.18H16.27V13.34H16.35V13.56H16.45V14.35H17.01V13.33C17.06 13.33 17.09 13.32 17.14 13.31V13.14H17.17V13.31H17.33H17.34Z" fill="white" style="fill:white;fill-opacity:1;"/>
<path id="Vector_44" d="M17.6 19.9V18H15.86V18.27H17.4V19.9H17.6Z" fill="white" style="fill:white;fill-opacity:1;"/>
<path id="Vector_45" d="M9.57001 17.0601H9.29001V18.3801H9.57001V17.0601Z" fill="white" style="fill:white;fill-opacity:1;"/>
<path id="Vector_46" d="M12.63 19.51C12.63 19.51 12.62 19.49 12.61 19.47V19.45C12.6 19.43 12.59 19.42 12.57 19.41C12.56 19.4 12.54 19.39 12.52 19.38C12.52 19.38 12.49 19.37 12.47 19.37H12.46C12.46 19.37 12.43 19.37 12.42 19.37C12.33 19.4 12.28 19.48 12.28 19.58C12.28 19.6 12.28 19.61 12.28 19.63C12.28 19.65 12.3 19.67 12.31 19.68C12.32 19.7 12.33 19.71 12.35 19.72C12.36 19.73 12.38 19.74 12.4 19.75C12.4 19.75 12.43 19.75 12.45 19.76C12.47 19.76 12.48 19.76 12.5 19.76C12.51 19.76 12.52 19.76 12.53 19.75C12.59 19.72 12.63 19.65 12.63 19.59C12.63 19.59 12.63 19.57 12.63 19.56C12.63 19.54 12.63 19.53 12.63 19.51Z" fill="white" style="fill:white;fill-opacity:1;"/>
<path id="Vector_47" d="M3.09999 4.16004C3.65999 3.97004 4.16999 3.95004 4.56999 4.10004C4.64999 4.13004 4.73999 4.17004 4.80999 4.22004C4.96999 4.32004 5.09999 4.46004 5.18999 4.63004C5.03999 4.54004 4.91999 4.46004 4.69999 4.36004C4.62999 4.33004 4.51999 4.28004 4.38999 4.26004C3.69999 4.13004 2.90999 4.42004 2.57999 4.94004C2.19999 5.54004 2.33999 6.32004 2.89999 6.72004V5.98004C2.89999 5.98004 2.90999 5.95004 2.91999 5.95004H4.26999C4.35999 5.73004 4.47998 5.51004 4.63999 5.34004C4.99999 4.98004 5.73998 4.66004 6.38999 5.17004C6.16999 5.11004 6.13999 5.10004 6.01999 5.08004C5.46999 4.97004 4.89999 5.32004 4.65999 5.87004C4.64999 5.90004 4.63999 5.92004 4.62999 5.95004H4.57999C4.66999 6.27004 4.49999 6.80004 4.31999 7.09004H4.42999C4.61999 6.78004 4.74998 6.30004 4.65999 5.95004H6.81999C6.81999 5.64004 6.87999 5.34004 7.01999 5.12004L4.79999 2.54004C4.64999 2.59004 4.50999 2.65004 4.36999 2.70004C2.90999 3.27004 1.97999 3.84004 1.60999 4.09004L2.42999 4.64004C2.59999 4.42004 2.81999 4.26004 3.09999 4.17004V4.16004Z" fill="white" style="fill:white;fill-opacity:1;"/>
<path id="Vector_48" d="M2.15001 6.33004C2.10001 6.01004 2.09001 5.72004 2.12001 5.46004L1.20001 4.92004V6.61004C1.20001 6.61004 1.27001 6.55004 1.31001 6.52004C1.56001 6.36004 1.78001 6.29004 2.14001 6.32004L2.15001 6.33004Z" fill="white" style="fill:white;fill-opacity:1;"/>
<path id="Vector_49" d="M17.54 21.65H23.33C23.42 21.57 23.5 21.5 23.59 21.42H17.57C17.56 21.48 17.55 21.56 17.54 21.65Z" fill="white" style="fill:white;fill-opacity:1;"/>
<path id="Vector_50" d="M3.05001 22.07C3.05001 22.07 3.14001 22.15 3.19001 22.19H8.34001C8.34001 22.11 8.34001 22.04 8.34001 21.97H2.92001C2.92001 21.97 3.01001 22.04 3.06001 22.08L3.05001 22.07Z" fill="white" style="fill:white;fill-opacity:1;"/>
<path id="Vector_51" d="M17.53 22.19H22.68C22.68 22.19 22.78 22.11 22.82 22.07C22.86 22.03 22.91 22 22.95 21.96H17.52C17.52 22.03 17.52 22.11 17.52 22.19H17.53Z" fill="white" style="fill:white;fill-opacity:1;"/>
<path id="Vector_52" d="M17.61 22.7901H21.9C22 22.7101 22.1 22.6401 22.2 22.5601H17.57C17.58 22.6401 17.6 22.7101 17.61 22.7901Z" fill="white" style="fill:white;fill-opacity:1;"/>
<path id="Vector_53" d="M4.89001 23.47H8.01001C8.05001 23.39 8.08001 23.32 8.11001 23.24H4.57001C4.67001 23.32 4.78001 23.39 4.89001 23.47Z" fill="white" style="fill:white;fill-opacity:1;"/>
<path id="Vector_54" d="M5.96 24.21H7.52C7.59 24.14 7.65 24.06 7.71 23.98H5.63C5.74 24.06 5.85 24.13 5.96 24.21Z" fill="white" style="fill:white;fill-opacity:1;"/>
<path id="Vector_55" d="M18.35 24.21H19.92C20.03 24.14 20.14 24.06 20.25 23.98H18.17C18.23 24.06 18.29 24.13 18.35 24.21Z" fill="white" style="fill:white;fill-opacity:1;"/>
<path id="Vector_56" d="M3.96999 22.7901H8.24999C8.26999 22.7101 8.27999 22.6401 8.28999 22.5601H3.67999C3.77999 22.6401 3.87999 22.7101 3.97999 22.7901H3.96999Z" fill="white" style="fill:white;fill-opacity:1;"/>
<path id="Vector_57" d="M8.29999 21.42H2.29999C2.37999 21.49 2.45999 21.57 2.54999 21.65H8.32999C8.32999 21.56 8.30999 21.49 8.29999 21.42Z" fill="white" style="fill:white;fill-opacity:1;"/>
<path id="Vector_58" d="M17.85 23.47H20.98C21.09 23.39 21.19 23.32 21.3 23.24H17.75C17.78 23.32 17.81 23.39 17.85 23.47Z" fill="white" style="fill:white;fill-opacity:1;"/>
<path id="Vector_59" d="M24.67 4.65997C24.67 4.48997 24.59 4.32997 24.45 4.21997C24.45 4.21997 24.46 4.21997 24.46 4.22997C24.6 4.32997 24.68 4.49997 24.68 4.66997L24.67 4.65997Z" fill="white" style="fill:white;fill-opacity:1;"/>
<path id="Vector_60" d="M25.19 3.27C25.07 3.18 23.99 2.37 21.94 1.57C20.09 0.85 17.03 0 12.94 0C8.84001 0 5.78001 0.85 3.94001 1.57C1.89001 2.37 0.80001 3.18 0.69001 3.27C0.48001 3.43 0.30001 3.65 0.19001 3.89C0.0700098 4.13 0.0100098 4.4 0.0100098 4.66V20.09C0.0100098 20.49 0.15001 20.88 0.40001 21.19L0.43001 21.23C0.50001 21.32 0.59001 21.41 0.67001 21.5C1.01001 21.87 1.45001 22.29 1.97001 22.72C2.07001 22.81 2.18001 22.89 2.30001 23C3.70001 24.14 5.76001 25.57 7.97001 26.92C8.93001 27.51 9.85001 28.04 10.61 28.45C11.47 28.91 12.06 29.17 12.45 29.28C12.59 29.32 12.74 29.35 12.92 29.35H12.93H12.97H12.99C13.14 29.35 13.28 29.32 13.41 29.28C13.81 29.17 14.4 28.9 15.26 28.44C16.02 28.03 16.94 27.51 17.9 26.91C20.1 25.56 22.17 24.14 23.57 22.99C23.69 22.89 23.8 22.8 23.9 22.72C24.42 22.28 24.86 21.87 25.2 21.5C25.29 21.41 25.37 21.31 25.44 21.23L25.46 21.21C25.72 20.9 25.86 20.5 25.86 20.09V4.66C25.86 4.39 25.8 4.12 25.68 3.88C25.56 3.64 25.39 3.43 25.18 3.27H25.19ZM25.37 4.66V20.09C25.37 20.38 25.27 20.67 25.08 20.89C25 20.98 24.92 21.07 24.84 21.16C24.51 21.52 24.09 21.92 23.59 22.34C23.49 22.42 23.39 22.51 23.27 22.61C21.88 23.74 19.84 25.16 17.65 26.49C16.69 27.07 15.79 27.6 15.03 28C14.21 28.44 13.64 28.7 13.28 28.79C13.17 28.82 13.07 28.84 12.96 28.84H12.94H12.92C12.81 28.84 12.7 28.82 12.6 28.79C12.24 28.69 11.67 28.43 10.85 28C10.09 27.6 9.18001 27.07 8.23001 26.49C6.05001 25.15 4.00001 23.74 2.61001 22.61C2.49001 22.51 2.38001 22.42 2.29001 22.34C1.79001 21.91 1.37001 21.52 1.04001 21.16C0.95001 21.07 0.87001 20.97 0.80001 20.89C0.61001 20.66 0.51001 20.38 0.51001 20.09V4.66C0.51001 4.47 0.55001 4.28 0.64001 4.11C0.73001 3.94 0.85001 3.79 1.00001 3.67C1.06001 3.63 2.12001 2.82 4.13001 2.04C5.94001 1.34 8.93001 0.5 12.95 0.5C16.97 0.5 19.96 1.34 21.77 2.04C23.78 2.82 24.84 3.62 24.89 3.67C25.04 3.79 25.17 3.94 25.25 4.11C25.34 4.28 25.38 4.47 25.38 4.66H25.37Z" fill="white" style="fill:white;fill-opacity:1;"/>
<path id="Vector_61" d="M6.98999 5.93994H6.89999C6.88999 6.02994 6.84999 6.15994 6.81999 6.26994C6.73999 6.53994 6.64999 6.84994 6.76999 7.07994H6.86999C6.76999 6.87994 6.82999 6.54994 6.89999 6.29994C6.93999 6.17994 6.96999 6.04994 6.98999 5.94994V5.93994Z" fill="white" style="fill:white;fill-opacity:1;"/>
<path id="Vector_62" d="M2.46999 18.13C2.46999 18.13 2.74999 18.02 2.79999 18.18C2.83999 17.99 2.93999 17.86 3.13999 17.8C3.13999 17.69 3.11999 17.59 3.20999 17.55C3.20999 17.54 3.20999 17.53 3.20999 17.52C3.20999 17.5 3.20999 17.49 3.20999 17.47C3.20999 17.38 3.24999 17.31 3.33999 17.27V15.62H2.56999C2.56999 15.62 2.55999 15.68 2.54999 15.71H2.23999V16.07H1.58999V15.49C1.58999 15.49 1.31999 15.49 1.18999 15.49V11.16C1.28999 11.21 1.35999 11.29 1.39999 11.39C1.56999 11.41 1.66999 11.51 1.75999 11.63C1.85999 11.75 1.85999 11.87 1.80999 11.99C1.86999 12.04 1.92999 12.08 2.00999 12.09C2.04999 12.06 2.07999 12.01 2.14999 12.01C2.22999 12.01 2.29999 12.02 2.34999 12.08C2.43999 12.18 2.51999 12.28 2.59999 12.38C2.61999 12.4 2.61999 12.43 2.61999 12.45C2.63999 12.53 2.62999 12.61 2.58999 12.67L2.72999 12.85C2.78999 12.85 2.83999 12.85 2.88999 12.85C2.93999 12.82 2.97999 12.8 3.03999 12.78C3.11999 12.75 3.22999 12.75 3.32999 12.78V11.3C3.41999 11.3 3.50999 11.3 3.59999 11.3C3.67999 11.3 3.74999 11.3 3.81999 11.3C4.13999 11.3 4.39999 11.28 4.63999 11.26C4.60999 11.38 4.58999 11.46 4.59999 11.52C4.59999 11.56 4.59999 11.68 4.59999 11.8C4.59999 11.91 4.59999 12.02 4.59999 12.06C4.60999 12.23 4.61999 12.63 4.59999 12.74C4.59999 12.78 4.57999 12.82 4.56999 12.86C4.52999 13.06 4.47999 13.25 4.30999 13.3C4.26999 13.31 4.20999 13.31 4.14999 13.3C4.06999 13.3 3.98999 13.3 3.90999 13.33C3.78999 13.39 3.65999 13.38 3.51999 13.38C3.46999 13.38 3.40999 13.38 3.35999 13.38H3.33999V13.5C3.33999 13.5 3.35999 13.48 3.36999 13.48C3.41999 13.48 3.46999 13.48 3.51999 13.48C3.65999 13.48 3.80999 13.48 3.94999 13.42C3.99999 13.4 4.06999 13.4 4.13999 13.41C4.20999 13.41 4.27999 13.41 4.33999 13.4C4.49999 13.35 4.56999 13.23 4.61999 13.09C4.61999 13.09 4.72999 13.08 4.77999 13.06C4.82999 13.05 4.87999 13.04 4.91999 13.04C5.03999 13.04 5.16999 13.04 5.29999 13.05C5.37999 13.05 5.46999 13.05 5.54999 13.05C5.54999 13.18 5.54999 13.31 5.54999 13.43C5.54999 13.67 5.54999 13.9 5.54999 14.15C5.54999 14.16 5.54999 14.17 5.55999 14.18C5.55999 14.22 5.55999 14.25 5.55999 14.28C5.55999 14.31 5.55999 14.35 5.55999 14.39C5.55999 14.43 5.55999 14.47 5.55999 14.5C5.39999 14.5 5.24999 14.5 5.10999 14.52C4.85999 14.54 4.60999 14.53 4.35999 14.53H4.23999C4.15999 14.53 4.06999 14.53 3.97999 14.53C3.78999 14.53 3.59999 14.53 3.40999 14.53C3.38999 14.53 3.35999 14.53 3.33999 14.53V14.63C3.33999 14.63 3.38999 14.63 3.40999 14.63C3.59999 14.63 3.78999 14.63 3.97999 14.63C4.06999 14.63 4.14999 14.63 4.23999 14.63H4.35999C4.60999 14.63 4.86999 14.63 5.11999 14.61C5.26999 14.61 5.40999 14.6 5.55999 14.6V14.62C5.55999 14.68 5.55999 14.73 5.55999 14.79C5.55999 14.87 5.55999 14.95 5.54999 15.03C5.54999 15.11 5.53999 15.2 5.53999 15.28C5.49999 15.28 5.44999 15.28 5.40999 15.28C5.36999 15.28 5.32999 15.28 5.28999 15.28C5.02999 15.28 4.76999 15.3 4.51999 15.32C4.34999 15.34 4.15999 15.35 3.97999 15.36C3.81999 15.36 3.64999 15.36 3.48999 15.36H3.33999V15.46H3.48999C3.64999 15.46 3.81999 15.46 3.98999 15.46C4.16999 15.46 4.35999 15.44 4.52999 15.42C4.77999 15.4 5.03999 15.37 5.28999 15.38C5.32999 15.38 5.36999 15.38 5.39999 15.38C5.43999 15.38 5.48999 15.38 5.53999 15.38C5.53999 15.44 5.53999 15.49 5.52999 15.55C5.52999 15.64 5.51999 15.73 5.51999 15.82C5.50999 15.92 5.50999 16.02 5.51999 16.11C5.51999 16.15 5.51999 16.18 5.51999 16.21C5.51999 16.32 5.51999 16.43 5.50999 16.53C5.50999 16.6 5.49999 16.67 5.48999 16.73C5.47999 16.82 5.46999 16.91 5.45999 17.01C5.37999 16.98 5.23999 16.95 5.08999 16.97C4.92999 16.99 4.71999 16.97 4.60999 16.94C4.47999 16.92 4.38999 16.94 4.28999 16.94C4.22999 16.94 4.16999 16.95 4.09999 16.95C4.04999 16.95 4.01999 16.96 3.98999 17C3.93999 17.06 3.95999 17.15 3.98999 17.26C3.99999 17.33 4.01999 17.4 4.00999 17.47C3.81999 17.37 3.57999 17.33 3.34999 17.32V17.42C3.57999 17.43 3.80999 17.47 3.98999 17.57C3.98999 17.66 3.98999 17.75 3.98999 17.84C3.98999 18.15 3.98999 18.46 3.97999 18.78C3.94999 18.79 3.86999 18.78 3.82999 18.78C3.80999 18.78 3.78999 18.78 3.76999 18.78C3.61999 18.78 3.47999 18.78 3.34999 18.78V18.88C3.48999 18.88 3.62999 18.88 3.76999 18.88C3.76999 18.88 3.79999 18.88 3.81999 18.88C3.84999 18.88 3.86999 18.88 3.89999 18.88C3.93999 18.88 3.97999 18.88 4.00999 18.86C4.16999 18.9 4.33999 18.91 4.50999 18.92C4.57999 18.92 4.64999 18.92 4.71999 18.93C4.73999 18.93 4.75999 18.93 4.78999 18.93C4.87999 18.93 4.95999 18.92 5.02999 18.91C5.05999 18.91 5.07999 18.9 5.10999 18.9C5.10999 18.91 5.10999 18.93 5.12999 18.94C5.13999 18.97 5.14999 19 5.14999 19.02C5.14999 19.09 5.14999 19.15 5.13999 19.22C5.13999 19.26 5.13999 19.29 5.12999 19.31C5.12999 19.35 5.11999 19.39 5.11999 19.45C5.10999 19.51 5.08999 19.56 5.06999 19.62C5.03999 19.72 5.00999 19.81 4.98999 19.91C4.94999 19.93 4.83999 19.91 4.78999 19.91C4.75999 19.91 4.73999 19.91 4.70999 19.91C4.55999 19.91 4.40999 19.91 4.26999 19.91C4.19999 19.91 4.11999 19.91 4.04999 19.91C3.89999 19.91 3.74999 19.91 3.59999 19.9C3.51999 19.9 3.42999 19.9 3.33999 19.9V20C3.42999 20 3.50999 20 3.59999 20C3.74999 20 3.89999 20.01 4.04999 20.01C4.11999 20.01 4.19999 20.01 4.26999 20.01C4.40999 20.01 4.55999 20.01 4.69999 20.01C4.71999 20.01 4.73999 20.01 4.76999 20.01C4.81999 20.01 4.87999 20.03 4.92999 20.03C4.93999 20.03 4.95999 20.03 4.96999 20.03C4.96999 20.06 4.96999 20.1 4.95999 20.13C4.95999 20.18 4.95999 20.23 4.93999 20.28C4.93999 20.33 4.92999 20.39 4.92999 20.45C4.80999 20.56 4.77999 20.7 4.77999 20.78C4.77999 20.93 4.81999 21.03 4.85999 21.12C4.85999 21.13 4.85999 21.14 4.86999 21.15H4.97999C4.97999 21.15 4.95999 21.1 4.94999 21.08C4.90999 20.99 4.87999 20.9 4.87999 20.78C4.87999 20.73 4.90999 20.61 4.98999 20.53C5.05999 20.54 5.12999 20.55 5.19999 20.55C5.22999 20.55 5.26999 20.55 5.28999 20.55C5.43999 20.57 5.57999 20.57 5.69999 20.57H5.71999C5.84999 20.57 5.96999 20.56 6.08999 20.52C6.27999 20.47 6.42999 20.44 6.62999 20.44C6.73999 20.44 6.83999 20.44 6.94999 20.42C6.95999 20.42 6.97999 20.42 6.99999 20.42C7.01999 20.42 7.03999 20.42 7.05999 20.42C7.05999 20.55 7.04999 20.69 7.03999 20.82C7.03999 20.89 7.03999 20.96 7.02999 21.03C7.02999 21.06 7.02999 21.1 7.02999 21.14H7.12999C7.12999 21.14 7.12999 21.07 7.12999 21.04C7.12999 20.97 7.12999 20.9 7.13999 20.83C7.13999 20.69 7.15999 20.55 7.15999 20.41C7.17999 20.41 7.18999 20.39 7.19999 20.38C7.22999 20.35 7.22999 20.32 7.21999 20.31C7.21999 20.25 7.21999 20.19 7.21999 20.14C7.21999 20.12 7.21999 20.09 7.21999 20.07C7.21999 20.05 7.21999 20.03 7.21999 20.01H7.49999C7.56999 20.01 7.62999 20.01 7.68999 20.01C7.73999 20.01 7.77999 20.01 7.82999 20.01V19.91C7.82999 19.91 7.72999 19.91 7.68999 19.91C7.62999 19.91 7.55999 19.91 7.49999 19.91H7.22999C7.22999 19.91 7.22999 19.89 7.22999 19.88C7.22999 19.76 7.23999 19.64 7.22999 19.52C7.22999 19.49 7.20999 19.47 7.17999 19.47H6.92999C6.84999 19.47 6.77999 19.46 6.70999 19.46C6.73999 19.38 6.73999 19.28 6.74999 19.2C6.74999 19.18 6.74999 19.15 6.74999 19.13C6.74999 19.07 6.74999 19.01 6.74999 18.95C6.74999 18.91 6.74999 18.88 6.74999 18.84C6.74999 18.81 6.74999 18.78 6.74999 18.75C6.74999 18.66 6.74999 18.56 6.77999 18.48C6.77999 18.48 6.77999 18.47 6.77999 18.46C6.78999 18.44 6.79999 18.42 6.79999 18.37V18.26C6.79999 18.2 6.79999 18.13 6.79999 18.07C6.79999 17.98 6.79999 17.89 6.79999 17.79C6.79999 17.67 6.79999 17.55 6.79999 17.43C6.85999 17.41 6.91999 17.42 6.99999 17.43C7.03999 17.43 7.07999 17.43 7.11999 17.43H7.61999C7.61999 17.43 7.65999 17.43 7.67999 17.43C7.72999 17.43 7.77999 17.43 7.81999 17.43V17.32C7.81999 17.32 7.72999 17.32 7.67999 17.32C7.65999 17.32 7.62999 17.32 7.60999 17.32H7.10999C7.10999 17.32 7.02999 17.32 6.99999 17.32C6.92999 17.32 6.85999 17.31 6.79999 17.32C6.79999 17.27 6.79999 17.21 6.79999 17.16C6.79999 17.07 6.79999 16.98 6.79999 16.89C6.79999 16.7 6.79999 16.51 6.79999 16.33C6.79999 16.27 6.81999 16.21 6.82999 16.15C6.84999 16.08 6.85999 16 6.85999 15.93C6.97999 15.93 7.09999 15.94 7.22999 15.95C7.27999 15.95 7.33999 15.95 7.38999 15.95C7.45999 15.95 7.52999 15.96 7.59999 15.96C7.64999 15.96 7.69999 15.96 7.74999 15.95C7.75999 15.95 7.78999 15.95 7.80999 15.95C7.80999 15.95 7.80999 15.95 7.81999 15.95V15.85C7.81999 15.85 7.80999 15.85 7.79999 15.85C7.77999 15.85 7.74999 15.85 7.72999 15.85C7.61999 15.87 7.49999 15.85 7.38999 15.85C7.33999 15.85 7.27999 15.85 7.21999 15.85C7.01999 15.85 6.81999 15.83 6.62999 15.82C6.52999 15.82 6.41999 15.81 6.31999 15.8C6.23999 15.8 6.16999 15.8 6.09999 15.8C5.92999 15.8 5.75999 15.8 5.58999 15.76C5.58999 15.69 5.58999 15.62 5.59999 15.55C5.59999 15.46 5.60999 15.37 5.61999 15.28C5.61999 15.2 5.61999 15.11 5.62999 15.02C5.62999 14.94 5.62999 14.86 5.62999 14.78C5.62999 14.72 5.62999 14.67 5.62999 14.61C5.62999 14.53 5.62999 14.45 5.62999 14.37C5.62999 14.32 5.62999 14.28 5.61999 14.24C5.61999 14.21 5.61999 14.19 5.61999 14.17C5.64999 14.17 5.67999 14.16 5.70999 14.15C5.72999 14.15 5.74999 14.15 5.76999 14.14C5.83999 14.13 5.92999 14.14 6.00999 14.14C6.03999 14.14 6.06999 14.14 6.10999 14.14C6.22999 14.15 6.36999 14.14 6.48999 14.14C6.54999 14.14 6.59999 14.14 6.65999 14.14H6.77999C6.95999 14.14 7.13999 14.14 7.32999 14.15C7.39999 14.15 7.47999 14.16 7.55999 14.17C7.64999 14.17 7.73999 14.19 7.82999 14.19V14.08C7.73999 14.08 7.65999 14.07 7.56999 14.06C7.48999 14.06 7.41999 14.05 7.33999 14.04C7.14999 14.03 6.96999 14.03 6.78999 14.03H6.66999C6.60999 14.03 6.55999 14.03 6.49999 14.03C6.37999 14.03 6.24999 14.03 6.12999 14.03C6.09999 14.03 6.06999 14.03 6.03999 14.03C5.94999 14.02 5.85999 14.01 5.76999 14.03C5.74999 14.03 5.71999 14.03 5.69999 14.05C5.66999 14.05 5.64999 14.06 5.61999 14.06C5.61999 13.84 5.61999 13.62 5.61999 13.4C5.61999 13.28 5.61999 13.15 5.61999 13.02H5.64999C6.01999 13.02 6.38999 13.01 6.75999 12.99C7.10999 12.98 7.46999 12.96 7.82999 12.96V12.86C7.47999 12.86 7.12999 12.87 6.78999 12.89C6.78999 12.83 6.81999 12.78 6.84999 12.73C6.87999 12.65 6.91999 12.57 6.91999 12.47V11.93C6.91999 11.86 6.91999 11.79 6.91999 11.73V11.36C6.91999 11.36 6.91999 11.32 6.91999 11.3C6.91999 11.26 6.91999 11.22 6.91999 11.19H6.97999C7.22999 11.19 7.48999 11.19 7.73999 11.21C7.75999 11.21 7.78999 11.21 7.80999 11.22C7.80999 11.22 7.80999 11.22 7.81999 11.22V11.11C7.81999 11.11 7.76999 11.11 7.73999 11.1C7.47999 11.08 7.21999 11.08 6.96999 11.08C6.88999 11.08 6.80999 11.08 6.71999 11.08C6.53999 11.08 6.35999 11.08 6.18999 11.06C5.99999 11.06 5.79999 11.04 5.59999 11.05C5.46999 11.05 5.34999 11.06 5.22999 11.08C5.17999 11.08 5.11999 11.09 5.06999 11.1C5.00999 11.1 4.93999 11.1 4.87999 11.1C4.79999 11.1 4.71999 11.1 4.63999 11.11C4.57999 11.11 4.51999 11.12 4.44999 11.13C4.44999 10.96 4.45999 10.79 4.46999 10.62C4.47999 10.46 4.48999 10.3 4.48999 10.14C4.86999 10.16 5.23999 10.16 5.55999 10.16C5.70999 10.16 5.85999 10.16 6.00999 10.16H6.14999C6.20999 10.16 6.26999 10.16 6.32999 10.16H6.42999C6.42999 10.16 6.51999 10.16 6.55999 10.15C6.59999 10.15 6.63999 10.15 6.67999 10.15H6.90999C6.96999 10.15 7.01999 10.15 7.07999 10.15C7.18999 10.15 7.29999 10.15 7.40999 10.15C7.49999 10.15 7.57999 10.17 7.65999 10.19C7.69999 10.19 7.74999 10.21 7.78999 10.21V10.1C7.78999 10.1 7.70999 10.09 7.67999 10.08C7.58999 10.07 7.50999 10.05 7.41999 10.04C7.30999 10.04 7.19999 10.04 7.07999 10.04C7.02999 10.04 6.96999 10.04 6.91999 10.04H6.68999C6.68999 10.04 6.59999 10.04 6.55999 10.05C6.51999 10.05 6.47999 10.06 6.43999 10.06H6.42999C6.42999 10.01 6.42999 9.95999 6.42999 9.90999C6.42999 9.85999 6.42999 9.81999 6.42999 9.75999C6.42999 9.69999 6.42999 9.64999 6.42999 9.58999C6.42999 9.49999 6.42999 9.39999 6.42999 9.29999C6.42999 9.22999 6.40999 9.14999 6.36999 9.09999C6.40999 9.09999 6.45999 9.07999 6.49999 9.07999C6.56999 9.07999 6.65999 9.07999 6.75999 9.07999C7.01999 9.07999 7.27999 9.07999 7.53999 9.07999C7.62999 9.07999 7.70999 9.07999 7.79999 9.07999V8.96999C7.70999 8.96999 7.61999 8.96999 7.53999 8.96999C7.27999 8.96999 7.01999 8.96999 6.75999 8.96999C6.65999 8.96999 6.57999 8.96999 6.49999 8.96999C6.44999 8.96999 6.38999 8.96999 6.33999 8.98999C6.34999 8.91999 6.35999 8.80999 6.35999 8.66999C6.35999 8.63999 6.35999 8.59999 6.35999 8.58999C6.37999 8.39999 6.38999 8.18999 6.36999 7.97999V7.94999C6.33999 7.68999 6.31999 7.40999 6.36999 7.15999H6.25999C6.20999 7.41999 6.23999 7.69999 6.25999 7.95999V7.98999C6.27999 8.18999 6.25999 8.39999 6.25999 8.57999C6.25999 8.58999 6.25999 8.61999 6.25999 8.65999C6.25999 8.73999 6.25999 8.97999 6.22999 9.01999C6.11999 9.01999 5.97999 8.99999 5.85999 8.99999C5.77999 8.99999 5.69999 8.99999 5.61999 8.99999C5.61999 8.99999 5.60999 8.99999 5.59999 8.99999C5.59999 8.90999 5.59999 8.80999 5.59999 8.71999C5.59999 8.50999 5.59999 8.30999 5.59999 8.09999V8.03999C5.59999 7.90999 5.61999 7.79999 5.61999 7.66999C5.61999 7.52999 5.62999 7.38999 5.64999 7.24999C5.64999 7.21999 5.64999 7.17999 5.64999 7.14999H5.54999C5.54999 7.14999 5.54999 7.20999 5.54999 7.23999C5.53999 7.37999 5.52999 7.51999 5.52999 7.66999C5.52999 7.79999 5.52999 7.90999 5.51999 8.03999V8.09999C5.51999 8.15999 5.51999 8.21999 5.50999 8.27999C5.48999 8.27999 5.46999 8.27999 5.43999 8.27999C5.41999 8.27999 5.39999 8.27999 5.36999 8.27999H5.04999C4.84999 8.27999 4.64999 8.27999 4.44999 8.28999C4.25999 8.28999 4.06999 8.29999 3.87999 8.29999C3.75999 8.29999 3.62999 8.29999 3.50999 8.27999C3.43999 8.27999 3.36999 8.27999 3.29999 8.26999V7.01999H2.86999C2.86999 7.01999 2.83999 7.00999 2.83999 6.98999V6.78999C2.77999 6.75999 2.67999 6.71999 2.52999 6.66999C2.02999 6.48999 1.39999 6.59999 1.14999 6.95999V8.63999C1.25999 8.56999 1.55999 8.38999 1.84999 8.27999C2.24999 8.11999 2.30999 8.12999 2.71999 8.05999C1.78999 8.38999 1.34999 8.92999 1.14999 9.23999V20.02C1.14999 20.15 1.19999 20.28 1.27999 20.38C1.19999 20.28 1.14999 20.16 1.14999 20.02V17.95V17.59C1.21999 17.59 1.27999 17.59 1.34999 17.58C1.47999 17.57 1.56999 17.61 1.65999 17.69C1.74999 17.78 1.79999 17.88 1.77999 18.01C1.77999 18.06 1.77999 18.12 1.78999 18.19C1.88999 18.14 1.95999 18.15 2.02999 18.19C2.05999 18.2 2.08999 18.22 2.11999 18.24C2.16999 18.28 2.22999 18.32 2.28999 18.35C2.32999 18.31 2.36999 18.1 2.41999 18.07L2.46999 18.13ZM5.07999 18.59C5.08999 18.67 5.10999 18.78 5.10999 18.83C5.07999 18.83 5.05999 18.83 5.02999 18.84C4.93999 18.85 4.84999 18.87 4.73999 18.86C4.66999 18.86 4.59999 18.86 4.51999 18.85C4.36999 18.85 4.21999 18.84 4.07999 18.81C4.09999 18.5 4.09999 18.18 4.08999 17.87C4.08999 17.77 4.08999 17.68 4.08999 17.58C4.11999 17.49 4.09999 17.37 4.08999 17.27C4.07999 17.2 4.05999 17.12 4.07999 17.09C4.07999 17.09 4.09999 17.09 4.10999 17.09C4.17999 17.09 4.24999 17.09 4.30999 17.08C4.40999 17.07 4.48999 17.06 4.59999 17.08C4.71999 17.1 4.93999 17.12 5.10999 17.1C5.25999 17.08 5.39999 17.12 5.45999 17.14C5.45999 17.21 5.45999 17.31 5.45999 17.41C5.45999 17.52 5.44999 17.64 5.44999 17.71V17.83C5.32999 17.83 5.18999 17.83 5.11999 17.86C5.07999 17.87 5.06999 17.9 5.04999 18.14C5.04999 18.15 5.04999 18.16 5.04999 18.17C5.03999 18.27 5.06999 18.45 5.08999 18.6L5.07999 18.59ZM6.95999 19.6H7.15999C7.15999 19.7 7.15999 19.8 7.15999 19.9C7.15999 19.97 7.15999 20.03 7.15999 20.1C7.15999 20.12 7.15999 20.15 7.15999 20.17C7.15999 20.22 7.15999 20.27 7.15999 20.31C7.15999 20.32 7.15999 20.34 7.15999 20.34C7.13999 20.35 7.06999 20.34 7.04999 20.34C7.01999 20.34 6.99999 20.34 6.97999 20.34C6.87999 20.35 6.77999 20.36 6.66999 20.36C6.45999 20.36 6.28999 20.39 6.09999 20.45C5.97999 20.48 5.86999 20.5 5.73999 20.49C5.61999 20.49 5.48999 20.49 5.33999 20.47C5.30999 20.47 5.27999 20.47 5.23999 20.47C5.17999 20.47 5.10999 20.46 5.05999 20.45C5.05999 20.4 5.05999 20.36 5.06999 20.32C5.06999 20.27 5.07999 20.22 5.08999 20.17C5.08999 20.12 5.09999 20.07 5.10999 20.02C5.12999 19.91 5.15999 19.8 5.18999 19.68C5.19999 19.64 5.20999 19.6 5.21999 19.56C5.59999 19.56 6.16999 19.57 6.96999 19.59L6.95999 19.6ZM6.74999 18.1C6.74999 18.16 6.74999 18.23 6.74999 18.29C6.74999 18.31 6.74999 18.33 6.74999 18.35V18.4C6.74999 18.4 6.74999 18.44 6.74999 18.45C6.74999 18.45 6.74999 18.47 6.73999 18.48C6.70999 18.58 6.70999 18.68 6.70999 18.78C6.70999 18.81 6.70999 18.84 6.70999 18.87C6.70999 18.91 6.70999 18.95 6.70999 18.99C6.70999 19.05 6.70999 19.1 6.70999 19.16C6.70999 19.18 6.70999 19.21 6.70999 19.23C6.70999 19.31 6.70999 19.42 6.66999 19.49C6.05999 19.47 5.59999 19.46 5.27999 19.46C5.27999 19.46 5.27999 19.46 5.27999 19.45C5.27999 19.42 5.27999 19.39 5.28999 19.37C5.28999 19.34 5.28999 19.31 5.29999 19.27C5.29999 19.2 5.30999 19.13 5.30999 19.06C5.30999 19.02 5.29999 18.98 5.27999 18.95C5.26999 18.92 5.25999 18.9 5.25999 18.88V18.87C5.25999 18.82 5.25999 18.74 5.22999 18.59C5.19999 18.44 5.17999 18.28 5.18999 18.19C5.18999 18.19 5.18999 18.17 5.18999 18.16C5.19999 18.04 5.20999 17.99 5.20999 17.96C5.28999 17.94 5.43999 17.94 5.49999 17.94H5.52999C5.73999 17.98 5.86999 18.01 5.97999 18.01C6.02999 18.01 6.18999 18.01 6.23999 18.01C6.29999 18.01 6.32999 18.01 6.36999 18.01C6.41999 18.01 6.45999 18.03 6.56999 17.99C6.72999 17.94 6.77999 17.96 6.80999 18.01C6.80999 18.04 6.80999 18.08 6.80999 18.11L6.74999 18.1ZM6.13999 15.93C6.20999 15.93 6.28999 15.93 6.35999 15.93C6.45999 15.93 6.56999 15.94 6.66999 15.95C6.70999 15.95 6.74999 15.95 6.78999 15.95C6.78999 16.02 6.77999 16.08 6.75999 16.16C6.74999 16.22 6.72999 16.29 6.72999 16.35C6.72999 16.54 6.72999 16.73 6.72999 16.92C6.72999 17.01 6.72999 17.1 6.72999 17.18C6.72999 17.27 6.72999 17.36 6.72999 17.46C6.72999 17.58 6.72999 17.7 6.72999 17.82C6.72999 17.83 6.72999 17.85 6.72999 17.86C6.63999 17.82 6.51999 17.86 6.45999 17.87C6.37999 17.89 6.34999 17.89 6.30999 17.88C6.27999 17.88 6.22999 17.87 6.15999 17.88C6.10999 17.88 5.95999 17.89 5.91999 17.88C5.82999 17.88 5.69999 17.86 5.51999 17.82V17.75C5.51999 17.75 5.51999 17.71 5.51999 17.69C5.51999 17.62 5.51999 17.5 5.52999 17.39C5.52999 17.29 5.52999 17.19 5.53999 17.11C5.53999 17.11 5.53999 17.09 5.53999 17.08C5.53999 16.97 5.54999 16.86 5.56999 16.74C5.56999 16.67 5.57999 16.61 5.58999 16.54C5.58999 16.43 5.58999 16.33 5.58999 16.21C5.58999 16.18 5.58999 16.14 5.58999 16.11C5.58999 16.04 5.58999 15.95 5.58999 15.88C5.75999 15.91 5.92999 15.91 6.09999 15.92L6.13999 15.93ZM4.70999 12.75C4.74999 12.61 4.72999 12.17 4.71999 12.04C4.71999 12 4.71999 11.89 4.71999 11.78C4.71999 11.65 4.71999 11.54 4.71999 11.49C4.71999 11.45 4.72999 11.36 4.76999 11.23C4.81999 11.23 4.86999 11.23 4.91999 11.23C4.97999 11.23 5.04999 11.23 5.10999 11.23C5.15999 11.23 5.21999 11.22 5.26999 11.21C5.38999 11.2 5.50999 11.19 5.62999 11.19C5.82999 11.19 6.02999 11.19 6.21999 11.2C6.38999 11.2 6.56999 11.22 6.74999 11.22H6.83999C6.83999 11.22 6.83999 11.28 6.83999 11.32C6.83999 11.34 6.83999 11.37 6.83999 11.39C6.83999 11.51 6.83999 11.64 6.83999 11.76V12.5C6.83999 12.58 6.80999 12.65 6.77999 12.72C6.74999 12.79 6.72999 12.85 6.71999 12.93C6.37999 12.94 6.02999 12.95 5.68999 12.95C5.56999 12.95 5.43999 12.95 5.30999 12.94C5.18999 12.94 5.05999 12.93 4.92999 12.93C4.87999 12.93 4.81999 12.94 4.76999 12.96C4.72999 12.96 4.68999 12.98 4.65999 12.98C4.65999 12.95 4.67999 12.91 4.67999 12.88C4.68999 12.84 4.69999 12.8 4.70999 12.77V12.75ZM4.42999 10.65C4.41999 10.82 4.40999 10.99 4.40999 11.17C4.23999 11.18 4.05999 11.19 3.85999 11.19C3.77999 11.19 3.70999 11.19 3.62999 11.19C3.53999 11.19 3.44999 11.19 3.35999 11.19V9.55999H3.70999C3.78999 9.55999 3.87999 9.55999 3.95999 9.54999C4.03999 9.54999 4.11999 9.53999 4.19999 9.53999H4.33999C4.33999 9.64999 4.33999 9.75999 4.36999 9.86999C4.38999 9.95999 4.39999 10.03 4.39999 10.11C4.39999 10.14 4.41999 10.16 4.44999 10.16H4.46999C4.46999 10.32 4.45999 10.49 4.44999 10.64L4.42999 10.65ZM5.67999 9.16999C5.75999 9.16999 5.83999 9.16999 5.91999 9.16999C6.03999 9.16999 6.19999 9.17999 6.30999 9.18999C6.32999 9.18999 6.36999 9.18999 6.38999 9.35999C6.39999 9.44999 6.38999 9.53999 6.38999 9.62999C6.38999 9.68999 6.38999 9.74999 6.38999 9.80999C6.38999 9.85999 6.38999 9.90999 6.38999 9.95999C6.38999 10.01 6.38999 10.05 6.38999 10.11C6.32999 10.11 6.27999 10.11 6.21999 10.11H6.07999C5.92999 10.11 5.77999 10.11 5.62999 10.11C5.28999 10.11 4.89999 10.11 4.48999 10.08C4.48999 10.01 4.46999 9.93999 4.45999 9.86999C4.41999 9.64999 4.42999 9.40999 4.44999 9.19999C4.66999 9.18999 4.89999 9.18999 5.10999 9.18999H5.42999C5.51999 9.18999 5.59999 9.18999 5.68999 9.18999L5.67999 9.16999ZM2.38999 9.46999C2.53999 9.20999 2.86999 9.03999 3.34999 8.95999V8.43999C3.41999 8.43999 3.48999 8.43999 3.54999 8.43999C3.66999 8.43999 3.79999 8.45999 3.92999 8.45999C4.11999 8.45999 4.30999 8.45999 4.49999 8.44999C4.69999 8.44999 4.89999 8.43999 5.09999 8.43999H5.41999C5.41999 8.43999 5.45999 8.43999 5.47999 8.43999C5.49999 8.43999 5.52999 8.43999 5.54999 8.43999C5.54999 8.55999 5.54999 8.66999 5.54999 8.78999C5.54999 8.87999 5.54999 8.96999 5.54999 9.06999C5.49999 9.06999 5.45999 9.06999 5.41999 9.06999C5.30999 9.06999 5.20999 9.06999 5.09999 9.06999C4.86999 9.06999 4.62999 9.06999 4.38999 9.08999C4.36999 9.08999 4.34999 9.10999 4.33999 9.13999C4.33999 9.22999 4.31999 9.33999 4.31999 9.43999H4.16999C4.08999 9.43999 4.00999 9.43999 3.91999 9.44999C3.83999 9.44999 3.75999 9.45999 3.67999 9.45999H3.32999V9.17999C2.56999 9.21999 2.25999 9.81999 2.27999 10.41C2.07999 10.19 2.27999 9.61999 2.36999 9.45999L2.38999 9.46999Z" fill="white" style="fill:white;fill-opacity:1;"/>
<path id="Vector_63" d="M10.35 25.1101C10.35 25.1101 10.32 25.0901 10.32 25.0701C10.32 25.0501 10.31 25.0201 10.31 24.9801V22.5601H10.19L9.56 22.9701L9.58 22.9901L9.92 22.8701C9.92 22.8701 9.98 22.8701 10 22.8901C10.02 22.9101 10.03 22.9401 10.03 22.9701V24.9801C10.03 24.9801 10.03 25.0501 10.02 25.0701C10.02 25.0901 10 25.1101 9.99 25.1201C9.97 25.1301 9.95 25.1401 9.93 25.1401C9.91 25.1401 9.87 25.1401 9.84 25.1401V25.1701H10.53V25.1401H10.44C10.44 25.1401 10.4 25.1401 10.38 25.1301L10.35 25.1101Z" fill="white" style="fill:white;fill-opacity:1;"/>
<path id="Vector_64" d="M12.3 24.07C12.24 24.01 12.18 23.95 12.1 23.9C12.03 23.85 11.95 23.81 11.87 23.77C11.93 23.74 11.99 23.7 12.06 23.66C12.12 23.62 12.18 23.57 12.23 23.51C12.28 23.46 12.32 23.39 12.35 23.33C12.38 23.27 12.4 23.2 12.4 23.12C12.4 23.02 12.38 22.94 12.34 22.86C12.3 22.79 12.25 22.73 12.18 22.68C12.11 22.63 12.04 22.6 11.95 22.57C11.86 22.55 11.78 22.53 11.69 22.53C11.59 22.53 11.5 22.54 11.4 22.57C11.31 22.6 11.22 22.64 11.14 22.71C11.07 22.77 11.01 22.83 10.98 22.9C10.94 22.97 10.93 23.05 10.93 23.14C10.93 23.22 10.94 23.3 10.97 23.37C11 23.44 11.03 23.5 11.08 23.55C11.13 23.61 11.18 23.66 11.24 23.7C11.3 23.75 11.36 23.79 11.42 23.83C11.34 23.87 11.27 23.91 11.21 23.95C11.15 23.99 11.09 24.04 11.04 24.1C10.99 24.15 10.95 24.22 10.92 24.29C10.89 24.36 10.88 24.44 10.88 24.53C10.88 24.64 10.9 24.74 10.95 24.82C11 24.9 11.06 24.97 11.13 25.02C11.21 25.07 11.29 25.11 11.39 25.14C11.48 25.16 11.58 25.18 11.68 25.18C11.78 25.18 11.88 25.17 11.98 25.14C12.08 25.12 12.16 25.08 12.23 25.02C12.3 24.97 12.36 24.9 12.4 24.82C12.44 24.74 12.46 24.64 12.46 24.52C12.46 24.42 12.44 24.34 12.41 24.26C12.38 24.18 12.33 24.11 12.27 24.05L12.3 24.07ZM11.37 23.46C11.32 23.41 11.28 23.35 11.25 23.29C11.22 23.23 11.2 23.17 11.2 23.1C11.2 23.03 11.21 22.97 11.24 22.92C11.27 22.87 11.3 22.83 11.35 22.8C11.39 22.77 11.45 22.74 11.5 22.72C11.56 22.7 11.62 22.7 11.68 22.7C11.83 22.7 11.95 22.74 12.03 22.82C12.11 22.9 12.15 22.99 12.16 23.1C12.16 23.2 12.13 23.31 12.06 23.43C11.99 23.54 11.87 23.63 11.72 23.7C11.66 23.68 11.61 23.65 11.55 23.61C11.49 23.57 11.44 23.53 11.39 23.48L11.37 23.46ZM12.14 24.85C12.09 24.92 12.02 24.96 11.94 24.99C11.86 25.02 11.78 25.03 11.68 25.03C11.59 25.03 11.5 25.01 11.43 24.97C11.35 24.93 11.29 24.88 11.23 24.8C11.18 24.72 11.15 24.63 11.15 24.52C11.15 24.45 11.15 24.38 11.18 24.32C11.2 24.26 11.24 24.2 11.29 24.15C11.33 24.1 11.38 24.06 11.44 24.02C11.49 23.99 11.55 23.95 11.61 23.93C11.76 24.01 11.89 24.1 12.02 24.2C12.15 24.31 12.22 24.44 12.22 24.61C12.22 24.71 12.19 24.79 12.14 24.85Z" fill="white" style="fill:white;fill-opacity:1;"/>
<path id="Vector_65" d="M14.32 22.9C14.26 22.79 14.17 22.7 14.06 22.62C13.95 22.55 13.81 22.52 13.64 22.52C13.51 22.52 13.4 22.54 13.29 22.58C13.19 22.62 13.1 22.68 13.03 22.76C12.96 22.84 12.91 22.93 12.87 23.03C12.83 23.13 12.81 23.25 12.81 23.38C12.81 23.5 12.83 23.61 12.86 23.71C12.89 23.81 12.94 23.9 13 23.97C13.07 24.04 13.14 24.1 13.24 24.14C13.33 24.18 13.45 24.2 13.57 24.2C13.68 24.2 13.79 24.18 13.9 24.13C14.01 24.08 14.09 24.01 14.16 23.92C14.14 24.04 14.11 24.16 14.07 24.28C14.03 24.39 13.98 24.5 13.91 24.61C13.87 24.67 13.82 24.73 13.76 24.79C13.7 24.85 13.63 24.91 13.57 24.96C13.5 25.01 13.43 25.05 13.34 25.08C13.26 25.11 13.18 25.13 13.11 25.13C13.08 25.13 13.05 25.13 13.01 25.13C12.97 25.13 12.94 25.12 12.91 25.1V25.17C13.13 25.21 13.34 25.19 13.55 25.13C13.75 25.06 13.94 24.95 14.1 24.78C14.24 24.63 14.34 24.46 14.4 24.28C14.46 24.1 14.49 23.9 14.49 23.7C14.49 23.56 14.48 23.42 14.45 23.28C14.42 23.14 14.38 23.01 14.31 22.9H14.32ZM14.09 23.82C14.04 23.88 13.97 23.93 13.89 23.96C13.81 23.99 13.72 24.01 13.63 24.01C13.54 24.01 13.46 23.98 13.38 23.94C13.3 23.89 13.24 23.82 13.18 23.72C13.13 23.62 13.1 23.49 13.1 23.33C13.1 23.17 13.13 23.04 13.18 22.94C13.24 22.84 13.31 22.77 13.39 22.73C13.47 22.69 13.56 22.68 13.66 22.69C13.76 22.71 13.84 22.75 13.92 22.83C14 22.9 14.07 23.01 14.12 23.13C14.17 23.26 14.19 23.42 14.18 23.61C14.18 23.69 14.15 23.77 14.09 23.83V23.82Z" fill="white" style="fill:white;fill-opacity:1;"/>
<path id="Vector_66" d="M16.33 24.86C16.33 24.86 16.27 24.9 16.22 24.9H15.13L15.83 24.14C15.89 24.08 15.95 24.01 16 23.93C16.06 23.86 16.11 23.78 16.15 23.7C16.19 23.62 16.23 23.54 16.25 23.46C16.28 23.38 16.29 23.29 16.29 23.2C16.29 23.1 16.27 23 16.23 22.92C16.19 22.84 16.14 22.77 16.08 22.71C16.01 22.65 15.94 22.61 15.86 22.58C15.78 22.55 15.69 22.53 15.6 22.53C15.51 22.53 15.42 22.53 15.33 22.56C15.24 22.59 15.16 22.63 15.09 22.68C15.04 22.72 14.99 22.77 14.95 22.84C14.91 22.91 14.87 22.97 14.84 23.03L14.86 23.06C14.92 23.01 14.98 22.96 15.02 22.92C15.06 22.88 15.1 22.85 15.14 22.83C15.18 22.81 15.23 22.79 15.28 22.78C15.33 22.78 15.4 22.77 15.49 22.77C15.64 22.77 15.76 22.82 15.85 22.91C15.94 23.01 15.99 23.13 15.99 23.28C15.99 23.35 15.98 23.42 15.96 23.5C15.94 23.58 15.91 23.65 15.87 23.72C15.83 23.79 15.79 23.86 15.75 23.93C15.7 24 15.66 24.06 15.61 24.1L14.79 25V25.13H16.31L16.43 24.75H16.41C16.41 24.75 16.36 24.8 16.34 24.83L16.33 24.86Z" fill="white" style="fill:white;fill-opacity:1;"/>
</g>
<defs>
<clipPath id="clip0_0_1">
<rect width="137.84" height="29.35" fill="white" style="fill:white;fill-opacity:1;"/>
</clipPath>
</defs>
</svg>
